NewsreaderCaption-ExtraLight.ufo
<glyph name="exclam" format="2">
  <advance width="592.0"/>
  <unicode hex="0021"/>
  <outline>
    <contour>
      <point x="343.0" y="1414.0" type="line" smooth="yes"/>
      <point x="343.0" y="1428.0"/>
      <point x="319.0" y="1434.0"/>
      <point x="296.0" y="1434.0" type="curve" smooth="yes"/>
      <point x="273.0" y="1434.0"/>
      <point x="249.0" y="1428.0"/>
      <point x="249.0" y="1414.0" type="curve" smooth="yes"/>
      <point x="249.0" y="1347.0" type="line" smooth="yes"/>
      <point x="249.0" y="1212.0"/>
      <point x="262.2271293375393" y="748.0"/>
      <point x="270.0" y="396.0" type="curve"/>
      <point x="322.0" y="396.0" type="line"/>
      <point x="329.77287066246066" y="748.0"/>
      <point x="343.0" y="1212.0"/>
      <point x="343.0" y="1347.0" type="curve" smooth="yes"/>
    </contour>
    <contour>
      <point x="296.0" y="184.0" type="curve" smooth="yes"/>
      <point x="234.0" y="184.0"/>
      <point x="193.0" y="153.0"/>
      <point x="193.0" y="85.0" type="curve" smooth="yes"/>
      <point x="193.0" y="17.0"/>
      <point x="234.0" y="-14.0"/>
      <point x="296.0" y="-14.0" type="curve" smooth="yes"/>
      <point x="358.0" y="-14.0"/>
      <point x="399.0" y="17.0"/>
      <point x="399.0" y="85.0" type="curve" smooth="yes"/>
      <point x="399.0" y="153.0"/>
      <point x="358.0" y="184.0"/>
    </contour>
  </outline>
</glyph>
<glyph name="quotesingle" format="2">
	<unicode hex="0027"/>
	<advance width="396"/>
	<outline>
		<contour>
			<point x="167" y="990" type="line"/>
			<point x="229" y="990" type="line"/>
			<point x="245" y="1394" type="line"/>
			<point x="245" y="1414" type="line"/>
			<point x="151" y="1414" type="line"/>
			<point x="151" y="1394" type="line"/>
		</contour>
	</outline>
</glyph>
<glyph name="parenleft" format="2">
	<unicode hex="0028"/>
	<advance width="644"/>
	<outline>
		<contour>
			<point x="199" y="621" type="curve" smooth="yes"/>
			<point x="199" y="959"/>
			<point x="313" y="1190"/>
			<point x="574" y="1440" type="curve"/>
			<point x="534" y="1484" type="line"/>
			<point x="217" y="1175"/>
			<point x="120" y="933"/>
			<point x="120" y="621" type="curve" smooth="yes"/>
			<point x="120" y="309"/>
			<point x="217" y="67"/>
			<point x="534" y="-242" type="curve"/>
			<point x="574" y="-198" type="line"/>
			<point x="313" y="52"/>
			<point x="199" y="283"/>
		</contour>
	</outline>
</glyph>
<glyph name="parenright" format="2">
	<unicode hex="0029"/>
	<advance width="644"/>
	<outline>
		<contour>
			<point x="445" y="621" type="curve" smooth="yes"/>
			<point x="445" y="283"/>
			<point x="331" y="52"/>
			<point x="70" y="-198" type="curve"/>
			<point x="110" y="-242" type="line"/>
			<point x="427" y="67"/>
			<point x="524" y="309"/>
			<point x="524" y="621" type="curve" smooth="yes"/>
			<point x="524" y="933"/>
			<point x="427" y="1175"/>
			<point x="110" y="1484" type="curve"/>
			<point x="70" y="1440" type="line"/>
			<point x="331" y="1190"/>
			<point x="445" y="959"/>
		</contour>
	</outline>
</glyph>
<glyph name="asterisk" format="2">
	<unicode hex="002A"/>
	<advance width="864"/>
	<outline>
		<contour>
			<point x="569" y="818" type="line"/>
			<point x="480" y="1076" type="line"/>
			<point x="752" y="1093" type="line"/>
			<point x="750" y="1139" type="line"/>
			<point x="477" y="1134" type="line"/>
			<point x="545" y="1397" type="line"/>
			<point x="500" y="1410" type="line"/>
			<point x="422" y="1149" type="line"/>
			<point x="191" y="1294" type="line"/>
			<point x="166" y="1257" type="line"/>
			<point x="390" y="1101" type="line"/>
			<point x="180" y="927" type="line"/>
			<point x="208" y="891" type="line"/>
			<point x="425" y="1055" type="line"/>
			<point x="526" y="802" type="line"/>
		</contour>
	</outline>
</glyph>
<glyph name="plus" format="2">
	<unicode hex="002B"/>
	<advance width="1140"/>
	<outline>
		<contour>
			<point x="537" y="923" type="line"/>
			<point x="537" y="101" type="line"/>
			<point x="603" y="101" type="line"/>
			<point x="603" y="923" type="line"/>
		</contour>
		<contour>
			<point x="981" y="545" type="line"/>
			<point x="159" y="545" type="line"/>
			<point x="159" y="479" type="line"/>
			<point x="981" y="479" type="line"/>
		</contour>
	</outline>
</glyph>
<glyph name="comma" format="2">
	<unicode hex="002C"/>
	<advance width="496"/>
	<outline>
		<contour>
			<point x="83" y="-294" type="curve"/>
			<point x="117" y="-331" type="line"/>
			<point x="294" y="-183"/>
			<point x="353" y="-55"/>
			<point x="353" y="64" type="curve" smooth="yes"/>
			<point x="353" y="148"/>
			<point x="316" y="184"/>
			<point x="248" y="184" type="curve" smooth="yes"/>
			<point x="180" y="184"/>
			<point x="141" y="149"/>
			<point x="141" y="84" type="curve" smooth="yes"/>
			<point x="141" y="53"/>
			<point x="246" y="14"/>
			<point x="246" y="-58" type="curve" smooth="yes"/>
			<point x="246" y="-123"/>
			<point x="205" y="-184"/>
		</contour>
	</outline>
</glyph>
<glyph name="hyphen" format="2">
	<unicode hex="002D"/>
	<advance width="701"/>
	<outline>
		<contour>
			<point x="130" y="560" type="line"/>
			<point x="130" y="484" type="line"/>
			<point x="571" y="484" type="line"/>
			<point x="571" y="560" type="line"/>
		</contour>
	</outline>
</glyph>
<glyph name="period" format="2">
	<unicode hex="002E"/>
	<advance width="488"/>
	<outline>
		<contour>
			<point x="244" y="184" type="curve" smooth="yes"/>
			<point x="182" y="184"/>
			<point x="141" y="153"/>
			<point x="141" y="85" type="curve" smooth="yes"/>
			<point x="141" y="17"/>
			<point x="182" y="-14"/>
			<point x="244" y="-14" type="curve" smooth="yes"/>
			<point x="306" y="-14"/>
			<point x="347" y="17"/>
			<point x="347" y="85" type="curve" smooth="yes"/>
			<point x="347" y="153"/>
			<point x="306" y="184"/>
		</contour>
	</outline>
</glyph>
<glyph name="slash" format="2">
	<unicode hex="002F"/>
	<advance width="805"/>
	<outline>
		<contour>
			<point x="74" y="0" type="line"/>
			<point x="144" y="0" type="line"/>
			<point x="734" y="1414" type="line"/>
			<point x="664" y="1414" type="line"/>
		</contour>
	</outline>
</glyph>
<glyph name="zero" format="2">
  <advance width="1300"/>
  <unicode hex="0030"/>
  <outline>
    <contour>
      <point x="653.0" y="46.0" type="curve" smooth="yes"/>
      <point x="360.0" y="46.0"/>
      <point x="189.0" y="302.0"/>
      <point x="189.0" y="739.0" type="curve" smooth="yes"/>
      <point x="189.0" y="1136.0"/>
      <point x="357.0" y="1368.0"/>
      <point x="646.0" y="1368.0" type="curve" smooth="yes"/>
      <point x="939.0" y="1368.0"/>
      <point x="1110.0" y="1112.0"/>
      <point x="1110.0" y="675.0" type="curve" smooth="yes"/>
      <point x="1110.0" y="278.0"/>
      <point x="942.0" y="46.0"/>
    </contour>
    <contour>
      <point x="662.0" y="1434.0" type="curve" smooth="yes"/>
      <point x="293.0" y="1434.0"/>
      <point x="107.0" y="1174.0"/>
      <point x="107.0" y="700.0" type="curve" smooth="yes"/>
      <point x="107.0" y="257.0"/>
      <point x="299.0" y="-20.0"/>
      <point x="637.0" y="-20.0" type="curve" smooth="yes"/>
      <point x="1006.0" y="-20.0"/>
      <point x="1192.0" y="240.0"/>
      <point x="1192.0" y="714.0" type="curve" smooth="yes"/>
      <point x="1192.0" y="1157.0"/>
      <point x="1000.0" y="1434.0"/>
    </contour>
  </outline>
</glyph>
<glyph name="one" format="2">
	<unicode hex="0031"/>
	<advance width="1300"/>
	<outline>
		<contour>
			<point x="697" y="67" type="line"/>
			<point x="352" y="51" type="line"/>
			<point x="352" y="0" type="line"/>
			<point x="1107" y="0" type="line"/>
			<point x="1107" y="51" type="line"/>
			<point x="775" y="67" type="line"/>
			<point x="775" y="1434" type="line"/>
			<point x="717" y="1434" type="line"/>
			<point x="235" y="1196" type="line"/>
			<point x="257" y="1149" type="line"/>
			<point x="719" y="1355" type="line"/>
			<point x="697" y="1366" type="line"/>
		</contour>
	</outline>
</glyph>
<glyph name="colon" format="2">
	<unicode hex="003A"/>
	<advance width="534"/>
	<outline>
		<contour>
			<point x="267" y="184" type="curve" smooth="yes"/>
			<point x="205" y="184"/>
			<point x="164" y="153"/>
			<point x="164" y="85" type="curve" smooth="yes"/>
			<point x="164" y="17"/>
			<point x="205" y="-14"/>
			<point x="267" y="-14" type="curve" smooth="yes"/>
			<point x="329" y="-14"/>
			<point x="370" y="17"/>
			<point x="370" y="85" type="curve" smooth="yes"/>
			<point x="370" y="153"/>
			<point x="329" y="184"/>
		</contour>
		<contour>
			<point x="267" y="1038" type="curve" smooth="yes"/>
			<point x="205" y="1038"/>
			<point x="164" y="1007"/>
			<point x="164" y="939" type="curve" smooth="yes"/>
			<point x="164" y="871"/>
			<point x="205" y="840"/>
			<point x="267" y="840" type="curve" smooth="yes"/>
			<point x="329" y="840"/>
			<point x="370" y="871"/>
			<point x="370" y="939" type="curve" smooth="yes"/>
			<point x="370" y="1007"/>
			<point x="329" y="1038"/>
		</contour>
	</outline>
</glyph>
<glyph name="semicolon" format="2">
	<unicode hex="003B"/>
	<advance width="582"/>
	<outline>
		<contour>
			<point x="133" y="-294" type="curve"/>
			<point x="167" y="-331" type="line"/>
			<point x="344" y="-183"/>
			<point x="403" y="-55"/>
			<point x="403" y="64" type="curve" smooth="yes"/>
			<point x="403" y="148"/>
			<point x="366" y="184"/>
			<point x="298" y="184" type="curve" smooth="yes"/>
			<point x="230" y="184"/>
			<point x="191" y="149"/>
			<point x="191" y="84" type="curve" smooth="yes"/>
			<point x="191" y="53"/>
			<point x="296" y="14"/>
			<point x="296" y="-58" type="curve" smooth="yes"/>
			<point x="296" y="-123"/>
			<point x="255" y="-184"/>
		</contour>
		<contour>
			<point x="300" y="1038" type="curve" smooth="yes"/>
			<point x="238" y="1038"/>
			<point x="197" y="1007"/>
			<point x="197" y="939" type="curve" smooth="yes"/>
			<point x="197" y="871"/>
			<point x="238" y="840"/>
			<point x="300" y="840" type="curve" smooth="yes"/>
			<point x="362" y="840"/>
			<point x="403" y="871"/>
			<point x="403" y="939" type="curve" smooth="yes"/>
			<point x="403" y="1007"/>
			<point x="362" y="1038"/>
		</contour>
	</outline>
</glyph>
<glyph name="less" format="2">
	<unicode hex="003C"/>
	<advance width="1140"/>
	<outline>
		<contour>
			<point x="195" y="504" type="line"/>
			<point x="974" y="836" type="line"/>
			<point x="974" y="909" type="line"/>
			<point x="138" y="545" type="line"/>
			<point x="138" y="479" type="line"/>
			<point x="974" y="115" type="line"/>
			<point x="974" y="188" type="line"/>
			<point x="195" y="526" type="line"/>
		</contour>
	</outline>
</glyph>
<glyph name="greater" format="2">
  <advance width="1140.0"/>
  <unicode hex="003E"/>
  <outline>
    <contour>
      <point x="945.0" y="504.0" type="line"/>
      <point x="945.0" y="526.0" type="line"/>
      <point x="166.0" y="188.0" type="line"/>
      <point x="166.0" y="115.0" type="line"/>
      <point x="1002.0" y="479.0" type="line"/>
      <point x="1002.0" y="545.0" type="line"/>
      <point x="166.0" y="909.0" type="line"/>
      <point x="166.0" y="836.0" type="line"/>
    </contour>
  </outline>
</glyph>
<glyph name="question" format="2">
	<unicode hex="003F"/>
	<advance width="1001"/>
	<outline>
		<contour>
			<point x="387" y="1434" type="curve" smooth="yes"/>
			<point x="141" y="1434"/>
			<point x="64" y="1377"/>
			<point x="64" y="1318" type="curve" smooth="yes"/>
			<point x="64" y="1272"/>
			<point x="91" y="1250"/>
			<point x="133" y="1250" type="curve" smooth="yes"/>
			<point x="167" y="1250"/>
			<point x="196" y="1375"/>
			<point x="414" y="1375" type="curve" smooth="yes"/>
			<point x="682" y="1375"/>
			<point x="813" y="1215"/>
			<point x="813" y="1043" type="curve" smooth="yes"/>
			<point x="813" y="871"/>
			<point x="715" y="773"/>
			<point x="385" y="763" type="curve"/>
			<point x="414" y="396" type="line"/>
			<point x="455" y="396" type="line"/>
			<point x="455" y="734" type="line"/>
			<point x="417" y="681" type="line"/>
			<point x="756" y="697"/>
			<point x="878" y="811"/>
			<point x="878" y="1041" type="curve" smooth="yes"/>
			<point x="878" y="1242"/>
			<point x="722" y="1434"/>
		</contour>
		<contour>
			<point x="434" y="184" type="curve" smooth="yes"/>
			<point x="372" y="184"/>
			<point x="331" y="153"/>
			<point x="331" y="85" type="curve" smooth="yes"/>
			<point x="331" y="17"/>
			<point x="372" y="-14"/>
			<point x="434" y="-14" type="curve" smooth="yes"/>
			<point x="496" y="-14"/>
			<point x="537" y="17"/>
			<point x="537" y="85" type="curve" smooth="yes"/>
			<point x="537" y="153"/>
			<point x="496" y="184"/>
		</contour>
	</outline>
</glyph>
<glyph name="at" format="2">
	<unicode hex="0040"/>
	<advance width="1918"/>
	<outline>
		<contour>
			<point x="1320" y="212" type="curve" smooth="yes"/>
			<point x="1568" y="212"/>
			<point x="1788" y="451"/>
			<point x="1788" y="826" type="curve" smooth="yes"/>
			<point x="1788" y="1263"/>
			<point x="1509" y="1434"/>
			<point x="1068" y="1434" type="curve" smooth="yes"/>
			<point x="481" y="1434"/>
			<point x="121" y="1030"/>
			<point x="121" y="512" type="curve" smooth="yes"/>
			<point x="121" y="-45"/>
			<point x="439" y="-242"/>
			<point x="925" y="-242" type="curve" smooth="yes"/>
			<point x="1197" y="-242"/>
			<point x="1398" y="-171"/>
			<point x="1573" y="-50" type="curve"/>
			<point x="1544" y="-8" type="line"/>
			<point x="1357" y="-126"/>
			<point x="1172" y="-186"/>
			<point x="935" y="-186" type="curve" smooth="yes"/>
			<point x="449" y="-186"/>
			<point x="195" y="30"/>
			<point x="195" y="505" type="curve" smooth="yes"/>
			<point x="195" y="1011"/>
			<point x="511" y="1379"/>
			<point x="1070" y="1379" type="curve" smooth="yes"/>
			<point x="1459" y="1379"/>
			<point x="1720" y="1237"/>
			<point x="1720" y="802" type="curve" smooth="yes"/>
			<point x="1720" y="471"/>
			<point x="1525" y="267"/>
			<point x="1334" y="267" type="curve" smooth="yes"/>
			<point x="1241" y="267"/>
			<point x="1191" y="298"/>
			<point x="1191" y="377" type="curve" smooth="yes"/>
			<point x="1191" y="408"/>
			<point x="1198" y="445"/>
			<point x="1213" y="490" type="curve" smooth="yes"/>
			<point x="1378" y="999" type="line"/>
			<point x="1306" y="999" type="line"/>
			<point x="1265" y="873" type="line"/>
			<point x="1222" y="740" type="line" smooth="yes"/>
			<point x="1142" y="495"/>
			<point x="942" y="271"/>
			<point x="780" y="271" type="curve" smooth="yes"/>
			<point x="668" y="271"/>
			<point x="625" y="321"/>
			<point x="625" y="420" type="curve" smooth="yes"/>
			<point x="625" y="630"/>
			<point x="819" y="958"/>
			<point x="1057" y="958" type="curve" smooth="yes"/>
			<point x="1153" y="958"/>
			<point x="1229" y="915"/>
			<point x="1279" y="829" type="curve"/>
			<point x="1292" y="855" type="line"/>
			<point x="1245" y="950"/>
			<point x="1176" y="1015"/>
			<point x="1058" y="1015" type="curve" smooth="yes"/>
			<point x="756" y="1015"/>
			<point x="544" y="646"/>
			<point x="544" y="411" type="curve" smooth="yes"/>
			<point x="544" y="291"/>
			<point x="614" y="212"/>
			<point x="759" y="212" type="curve" smooth="yes"/>
			<point x="888" y="212"/>
			<point x="1012" y="297"/>
			<point x="1176" y="549" type="curve"/>
			<point x="1183" y="549" type="line"/>
			<point x="1162" y="490" type="line" smooth="yes"/>
			<point x="1145" y="441"/>
			<point x="1136" y="398"/>
			<point x="1136" y="362" type="curve" smooth="yes"/>
			<point x="1136" y="264"/>
			<point x="1198" y="212"/>
		</contour>
	</outline>
</glyph>
<glyph name="A" format="2">
	<unicode hex="0041"/>
	<advance width="1588"/>
	<outline>
		<contour>
			<point x="436" y="520" type="line"/>
			<point x="1123" y="520" type="line"/>
			<point x="1123" y="588" type="line"/>
			<point x="436" y="588" type="line"/>
		</contour>
		<contour>
			<point x="1380" y="66" type="line"/>
			<point x="820" y="1414" type="line"/>
			<point x="724" y="1414" type="line"/>
			<point x="218" y="67" type="line"/>
			<point x="22" y="51" type="line"/>
			<point x="22" y="0" type="line"/>
			<point x="495" y="0" type="line"/>
			<point x="495" y="51" type="line"/>
			<point x="291" y="66" type="line"/>
			<point x="778" y="1372" type="line"/>
			<point x="757" y="1372" type="line"/>
			<point x="1295" y="67" type="line"/>
			<point x="1071" y="51" type="line"/>
			<point x="1071" y="0" type="line"/>
			<point x="1581" y="0" type="line"/>
			<point x="1581" y="51" type="line"/>
		</contour>
	</outline>
	<anchor name="UCtop" x="764" y="1414"/>
	<anchor name="bottom" x="809" y="0"/>
	<anchor name="right" x="1461" y="0"/>
</glyph>
<glyph name="B" format="2">
	<unicode hex="0042"/>
	<advance width="1340"/>
	<outline>
		<contour>
			<point x="369" y="1346" type="line"/>
			<point x="680" y="1346" type="line" smooth="yes"/>
			<point x="954" y="1346"/>
			<point x="1069" y="1257"/>
			<point x="1069" y="1081" type="curve" smooth="yes"/>
			<point x="1069" y="872"/>
			<point x="933" y="792"/>
			<point x="750" y="792" type="curve" smooth="yes"/>
			<point x="369" y="792" type="line"/>
			<point x="362" y="724" type="line"/>
			<point x="750" y="724" type="line" smooth="yes"/>
			<point x="1024" y="724"/>
			<point x="1125" y="604"/>
			<point x="1125" y="395" type="curve" smooth="yes"/>
			<point x="1125" y="152"/>
			<point x="1021" y="68"/>
			<point x="686" y="68" type="curve" smooth="yes"/>
			<point x="363" y="68" type="line"/>
			<point x="356" y="0" type="line"/>
			<point x="729" y="0" type="line" smooth="yes"/>
			<point x="1106" y="0"/>
			<point x="1207" y="160"/>
			<point x="1207" y="406" type="curve" smooth="yes"/>
			<point x="1207" y="628"/>
			<point x="1069" y="763"/>
			<point x="817" y="774" type="curve"/>
			<point x="817" y="755" type="line"/>
			<point x="1022" y="770"/>
			<point x="1143" y="885"/>
			<point x="1143" y="1081" type="curve" smooth="yes"/>
			<point x="1143" y="1290"/>
			<point x="1032" y="1414"/>
			<point x="693" y="1414" type="curve" smooth="yes"/>
			<point x="355" y="1414" type="line"/>
		</contour>
		<contour>
			<point x="104" y="0" type="line"/>
			<point x="405" y="0" type="line"/>
			<point x="405" y="1414" type="line"/>
			<point x="104" y="1414" type="line"/>
			<point x="104" y="1363" type="line"/>
			<point x="325" y="1347" type="line"/>
			<point x="325" y="67" type="line"/>
			<point x="104" y="51" type="line"/>
		</contour>
	</outline>
	<anchor name="UCtop" x="671" y="1414"/>
	<anchor name="bottom" x="701" y="0"/>
</glyph>
<glyph name="C" format="2">
	<unicode hex="0043"/>
	<advance width="1478"/>
	<outline>
		<contour>
			<point x="891" y="48" type="curve" smooth="yes"/>
			<point x="487" y="48"/>
			<point x="223" y="241"/>
			<point x="223" y="681" type="curve" smooth="yes"/>
			<point x="223" y="1158"/>
			<point x="482" y="1364"/>
			<point x="866" y="1364" type="curve" smooth="yes"/>
			<point x="1028" y="1364"/>
			<point x="1149" y="1332"/>
			<point x="1312" y="1239" type="curve"/>
			<point x="1243" y="1348" type="line"/>
			<point x="1284" y="991" type="line"/>
			<point x="1342" y="991" type="line"/>
			<point x="1342" y="1464" type="line"/>
			<point x="1294" y="1464" type="line"/>
			<point x="1255" y="1337" type="line"/>
			<point x="1313" y="1349" type="line"/>
			<point x="1198" y="1403"/>
			<point x="1051" y="1434"/>
			<point x="874" y="1434" type="curve" smooth="yes"/>
			<point x="433" y="1434"/>
			<point x="135" y="1174"/>
			<point x="135" y="710" type="curve" smooth="yes"/>
			<point x="135" y="202"/>
			<point x="413" y="-20"/>
			<point x="897" y="-20" type="curve" smooth="yes"/>
			<point x="1033" y="-20"/>
			<point x="1182" y="10"/>
			<point x="1296" y="55" type="curve"/>
			<point x="1353" y="395" type="line"/>
			<point x="1295" y="395" type="line"/>
			<point x="1185" y="36" type="line"/>
			<point x="1271" y="121" type="line"/>
			<point x="1162" y="69"/>
			<point x="1001" y="48"/>
		</contour>
	</outline>
	<anchor name="UCtop" x="832" y="1414"/>
	<anchor name="bottom" x="832" y="0"/>
	<anchor name="right" x="1223" y="0"/>
</glyph>
<glyph name="D" format="2">
	<unicode hex="0044"/>
	<advance width="1596"/>
	<outline>
		<contour>
			<point x="1374" y="707" type="curve" smooth="yes"/>
			<point x="1374" y="255"/>
			<point x="1139" y="68"/>
			<point x="701" y="68" type="curve" smooth="yes"/>
			<point x="353" y="68" type="line"/>
			<point x="353" y="0" type="line"/>
			<point x="725" y="0" type="line" smooth="yes"/>
			<point x="1179" y="0"/>
			<point x="1458" y="212"/>
			<point x="1458" y="707" type="curve" smooth="yes"/>
			<point x="1458" y="1202"/>
			<point x="1179" y="1414"/>
			<point x="725" y="1414" type="curve" smooth="yes"/>
			<point x="353" y="1414" type="line"/>
			<point x="353" y="1346" type="line"/>
			<point x="701" y="1346" type="line" smooth="yes"/>
			<point x="1139" y="1346"/>
			<point x="1374" y="1159"/>
		</contour>
		<contour>
			<point x="104" y="0" type="line"/>
			<point x="405" y="0" type="line"/>
			<point x="405" y="1414" type="line"/>
			<point x="104" y="1414" type="line"/>
			<point x="104" y="1363" type="line"/>
			<point x="325" y="1347" type="line"/>
			<point x="325" y="67" type="line"/>
			<point x="104" y="51" type="line"/>
		</contour>
	</outline>
	<anchor name="UCtop" x="829" y="1414"/>
	<anchor name="bottom" x="829" y="0"/>
</glyph>
<glyph name="E" format="2">
	<unicode hex="0045"/>
	<advance width="1443"/>
	<outline>
		<contour>
			<point x="962" y="988" type="line"/>
			<point x="912" y="988" type="line"/>
			<point x="881" y="768" type="line"/>
			<point x="390" y="768" type="line"/>
			<point x="390" y="700" type="line"/>
			<point x="881" y="700" type="line"/>
			<point x="912" y="477" type="line"/>
			<point x="962" y="477" type="line"/>
			<point x="962" y="732" type="line"/>
		</contour>
		<contour>
			<point x="1281" y="1068" type="line"/>
			<point x="1288" y="1484" type="line"/>
			<point x="1240" y="1484" type="line"/>
			<point x="1200" y="1414" type="line"/>
			<point x="335" y="1414" type="line"/>
			<point x="335" y="1346" type="line"/>
			<point x="1235" y="1346" type="line"/>
			<point x="1190" y="1402" type="line"/>
			<point x="1220" y="1068" type="line"/>
		</contour>
		<contour>
			<point x="1185" y="42" type="line"/>
			<point x="1254" y="68" type="line"/>
			<point x="335" y="68" type="line"/>
			<point x="335" y="0" type="line"/>
			<point x="1191" y="0" type="line"/>
			<point x="1204" y="-72" type="line"/>
			<point x="1270" y="-72" type="line"/>
			<point x="1342" y="380" type="line"/>
			<point x="1283" y="380" type="line"/>
		</contour>
		<contour>
			<point x="104" y="0" type="line"/>
			<point x="405" y="0" type="line"/>
			<point x="405" y="1414" type="line"/>
			<point x="104" y="1414" type="line"/>
			<point x="104" y="1363" type="line"/>
			<point x="325" y="1347" type="line"/>
			<point x="325" y="67" type="line"/>
			<point x="104" y="51" type="line"/>
		</contour>
	</outline>
	<anchor name="UCtop" x="770" y="1414"/>
	<anchor name="right" x="1224" y="0"/>
	<anchor name="bottom" x="773" y="0"/>
</glyph>
<glyph name="F" format="2">
	<unicode hex="0046"/>
	<advance width="1312"/>
	<outline>
		<contour>
			<point x="962" y="938" type="line"/>
			<point x="912" y="938" type="line"/>
			<point x="881" y="718" type="line"/>
			<point x="390" y="718" type="line"/>
			<point x="390" y="650" type="line"/>
			<point x="881" y="650" type="line"/>
			<point x="912" y="427" type="line"/>
			<point x="962" y="427" type="line"/>
			<point x="962" y="682" type="line"/>
		</contour>
		<contour>
			<point x="1180" y="1484" type="line"/>
			<point x="1140" y="1414" type="line"/>
			<point x="335" y="1414" type="line"/>
			<point x="335" y="1346" type="line"/>
			<point x="1175" y="1346" type="line"/>
			<point x="1130" y="1402" type="line"/>
			<point x="1160" y="1068" type="line"/>
			<point x="1221" y="1068" type="line"/>
			<point x="1228" y="1484" type="line"/>
		</contour>
		<contour>
			<point x="405" y="1414" type="line"/>
			<point x="104" y="1414" type="line"/>
			<point x="104" y="1363" type="line"/>
			<point x="325" y="1347" type="line"/>
			<point x="325" y="67" type="line"/>
			<point x="104" y="51" type="line"/>
			<point x="104" y="0" type="line"/>
			<point x="626" y="0" type="line"/>
			<point x="626" y="51" type="line"/>
			<point x="405" y="67" type="line"/>
		</contour>
	</outline>
	<anchor name="UCtop" x="705" y="1414"/>
	<anchor name="bottom" x="365" y="0"/>
</glyph>
<glyph name="G" format="2">
	<unicode hex="0047"/>
	<advance width="1581"/>
	<outline>
		<contour>
			<point x="1296" y="100" type="line"/>
			<point x="1296" y="610" type="line"/>
			<point x="1467" y="626" type="line"/>
			<point x="1467" y="677" type="line"/>
			<point x="965" y="677" type="line"/>
			<point x="965" y="626" type="line"/>
			<point x="1216" y="610" type="line"/>
			<point x="1216" y="55" type="line"/>
			<point x="1254" y="96" type="line"/>
			<point x="1132" y="58"/>
			<point x="1010" y="48"/>
			<point x="893" y="48" type="curve" smooth="yes"/>
			<point x="489" y="48"/>
			<point x="225" y="241"/>
			<point x="225" y="681" type="curve" smooth="yes"/>
			<point x="225" y="1158"/>
			<point x="477" y="1364"/>
			<point x="861" y="1364" type="curve" smooth="yes"/>
			<point x="1023" y="1364"/>
			<point x="1144" y="1332"/>
			<point x="1307" y="1239" type="curve"/>
			<point x="1238" y="1348" type="line"/>
			<point x="1279" y="991" type="line"/>
			<point x="1337" y="991" type="line"/>
			<point x="1337" y="1464" type="line"/>
			<point x="1289" y="1464" type="line"/>
			<point x="1250" y="1337" type="line"/>
			<point x="1308" y="1349" type="line"/>
			<point x="1193" y="1403"/>
			<point x="1046" y="1434"/>
			<point x="869" y="1434" type="curve" smooth="yes"/>
			<point x="427" y="1434"/>
			<point x="136" y="1174"/>
			<point x="136" y="710" type="curve" smooth="yes"/>
			<point x="136" y="202"/>
			<point x="424" y="-20"/>
			<point x="926" y="-20" type="curve" smooth="yes"/>
			<point x="1125" y="-20"/>
			<point x="1316" y="21"/>
			<point x="1451" y="67" type="curve"/>
			<point x="1451" y="100" type="line"/>
		</contour>
	</outline>
	<anchor name="UCtop" x="831" y="1414"/>
	<anchor name="bottom" x="831" y="0"/>
</glyph>
<glyph name="H" format="2">
	<unicode hex="0048"/>
	<advance width="1694"/>
	<outline>
		<contour>
			<point x="405" y="67" type="line"/>
			<point x="405" y="1347" type="line"/>
			<point x="626" y="1363" type="line"/>
			<point x="626" y="1414" type="line"/>
			<point x="104" y="1414" type="line"/>
			<point x="104" y="1363" type="line"/>
			<point x="325" y="1347" type="line"/>
			<point x="325" y="67" type="line"/>
			<point x="104" y="51" type="line"/>
			<point x="104" y="0" type="line"/>
			<point x="626" y="0" type="line"/>
			<point x="626" y="51" type="line"/>
		</contour>
		<contour>
			<point x="1369" y="67" type="line"/>
			<point x="1369" y="1347" type="line"/>
			<point x="1590" y="1363" type="line"/>
			<point x="1590" y="1414" type="line"/>
			<point x="1068" y="1414" type="line"/>
			<point x="1068" y="1363" type="line"/>
			<point x="1289" y="1347" type="line"/>
			<point x="1289" y="67" type="line"/>
			<point x="1068" y="51" type="line"/>
			<point x="1068" y="0" type="line"/>
			<point x="1590" y="0" type="line"/>
			<point x="1590" y="51" type="line"/>
		</contour>
		<contour>
			<point x="353" y="696" type="line"/>
			<point x="1341" y="696" type="line"/>
			<point x="1341" y="764" type="line"/>
			<point x="353" y="764" type="line"/>
		</contour>
	</outline>
	<anchor name="UCtop" x="847" y="1414"/>
	<anchor name="bottom" x="847" y="0"/>
</glyph>
<glyph name="I" format="2">
	<unicode hex="0049"/>
	<advance width="730"/>
	<outline>
		<contour>
			<point x="626" y="51" type="line"/>
			<point x="405" y="67" type="line"/>
			<point x="405" y="1347" type="line"/>
			<point x="626" y="1363" type="line"/>
			<point x="626" y="1414" type="line"/>
			<point x="104" y="1414" type="line"/>
			<point x="104" y="1363" type="line"/>
			<point x="325" y="1347" type="line"/>
			<point x="325" y="67" type="line"/>
			<point x="104" y="51" type="line"/>
			<point x="104" y="0" type="line"/>
			<point x="626" y="0" type="line"/>
		</contour>
	</outline>
	<anchor name="UCtop" x="365" y="1414"/>
	<anchor name="right" x="484" y="0"/>
	<anchor name="bottom" x="365" y="0"/>
</glyph>
<glyph name="J" format="2">
	<unicode hex="004A"/>
	<advance width="973"/>
	<outline>
		<contour>
			<point x="671" y="347" type="curve" smooth="yes"/>
			<point x="671" y="1347" type="line"/>
			<point x="892" y="1363" type="line"/>
			<point x="892" y="1414" type="line"/>
			<point x="370" y="1414" type="line"/>
			<point x="370" y="1363" type="line"/>
			<point x="591" y="1347" type="line"/>
			<point x="591" y="337" type="line" smooth="yes"/>
			<point x="591" y="125"/>
			<point x="500" y="46"/>
			<point x="277" y="46" type="curve" smooth="yes"/>
			<point x="158" y="46"/>
			<point x="127" y="123"/>
			<point x="97" y="123" type="curve" smooth="yes"/>
			<point x="56" y="123"/>
			<point x="39" y="103"/>
			<point x="39" y="72" type="curve" smooth="yes"/>
			<point x="39" y="16"/>
			<point x="102" y="-20"/>
			<point x="283" y="-20" type="curve" smooth="yes"/>
			<point x="544" y="-20"/>
			<point x="671" y="99"/>
		</contour>
	</outline>
	<anchor name="UCtop" x="631" y="1414"/>
	<anchor name="bottom" x="416" y="0"/>
</glyph>
<glyph name="K" format="2">
	<unicode hex="004B"/>
	<advance width="1552"/>
	<outline>
		<contour>
			<point x="1314" y="67" type="line"/>
			<point x="662" y="785" type="line"/>
			<point x="666" y="728" type="line"/>
			<point x="1235" y="1347" type="line"/>
			<point x="1426" y="1363" type="line"/>
			<point x="1426" y="1414" type="line"/>
			<point x="956" y="1414" type="line"/>
			<point x="956" y="1363" type="line"/>
			<point x="1147" y="1347" type="line"/>
			<point x="635" y="779" type="line"/>
			<point x="395" y="779" type="line"/>
			<point x="395" y="711" type="line"/>
			<point x="625" y="711" type="line"/>
			<point x="1212" y="64" type="line"/>
			<point x="1001" y="51" type="line"/>
			<point x="1001" y="0" type="line"/>
			<point x="1520" y="0" type="line"/>
			<point x="1520" y="51" type="line"/>
		</contour>
		<contour>
			<point x="405" y="1347" type="line"/>
			<point x="626" y="1363" type="line"/>
			<point x="626" y="1414" type="line"/>
			<point x="104" y="1414" type="line"/>
			<point x="104" y="1363" type="line"/>
			<point x="325" y="1347" type="line"/>
			<point x="325" y="67" type="line"/>
			<point x="104" y="51" type="line"/>
			<point x="104" y="0" type="line"/>
			<point x="626" y="0" type="line"/>
			<point x="626" y="51" type="line"/>
			<point x="405" y="67" type="line"/>
		</contour>
	</outline>
	<anchor name="UCtop" x="770" y="1414"/>
	<anchor name="bottom" x="801" y="0"/>
</glyph>
<glyph name="L" format="2">
	<unicode hex="004C"/>
	<advance width="1305"/>
	<outline>
		<contour>
			<point x="1170" y="-72" type="line"/>
			<point x="1242" y="380" type="line"/>
			<point x="1183" y="380" type="line"/>
			<point x="1085" y="42" type="line"/>
			<point x="1154" y="64" type="line"/>
			<point x="335" y="64" type="line"/>
			<point x="335" y="0" type="line"/>
			<point x="1091" y="0" type="line"/>
			<point x="1104" y="-72" type="line"/>
		</contour>
		<contour>
			<point x="405" y="1347" type="line"/>
			<point x="626" y="1363" type="line"/>
			<point x="626" y="1414" type="line"/>
			<point x="104" y="1414" type="line"/>
			<point x="104" y="1363" type="line"/>
			<point x="325" y="1347" type="line"/>
			<point x="325" y="67" type="line"/>
			<point x="104" y="51" type="line"/>
			<point x="104" y="0" type="line"/>
			<point x="405" y="0" type="line"/>
		</contour>
	</outline>
	<anchor name="UCtop" x="365" y="1414"/>
	<anchor name="right" x="642" y="1414"/>
	<anchor name="bottom" x="653" y="0"/>
	<anchor name="mid" x="1036" y="772"/>
</glyph>
<glyph name="M" format="2">
	<unicode hex="004D"/>
	<advance width="2075"/>
	<outline>
		<contour>
			<point x="1782" y="67" type="line"/>
			<point x="1692" y="1344" type="line"/>
			<point x="1911" y="1364" type="line"/>
			<point x="1911" y="1414" type="line"/>
			<point x="1584" y="1414" type="line"/>
			<point x="1027" y="47" type="line"/>
			<point x="1050" y="47" type="line"/>
			<point x="479" y="1414" type="line"/>
			<point x="145" y="1414" type="line"/>
			<point x="145" y="1363" type="line"/>
			<point x="375" y="1340" type="line"/>
			<point x="298" y="67" type="line"/>
			<point x="77" y="51" type="line"/>
			<point x="77" y="0" type="line"/>
			<point x="586" y="0" type="line"/>
			<point x="586" y="51" type="line"/>
			<point x="365" y="67" type="line"/>
			<point x="441" y="1340" type="line"/>
			<point x="427" y="1338" type="line"/>
			<point x="986" y="0" type="line"/>
			<point x="1069" y="0" type="line"/>
			<point x="1626" y="1360" type="line"/>
			<point x="1613" y="1362" type="line"/>
			<point x="1704" y="67" type="line"/>
			<point x="1483" y="51" type="line"/>
			<point x="1483" y="0" type="line"/>
			<point x="2003" y="0" type="line"/>
			<point x="2003" y="51" type="line"/>
		</contour>
	</outline>
	<anchor name="UCtop" x="1040" y="1414"/>
	<anchor name="bottom" x="1028" y="0"/>
</glyph>
<glyph name="N" format="2">
	<unicode hex="004E"/>
	<advance width="1707"/>
	<outline>
		<contour>
			<point x="325" y="67" type="line"/>
			<point x="104" y="51" type="line"/>
			<point x="104" y="0" type="line"/>
			<point x="612" y="0" type="line"/>
			<point x="612" y="51" type="line"/>
			<point x="391" y="67" type="line"/>
			<point x="391" y="1352" type="line"/>
			<point x="371" y="1346" type="line"/>
			<point x="1306" y="-20" type="line"/>
			<point x="1403" y="-20" type="line"/>
			<point x="1403" y="1347" type="line"/>
			<point x="1624" y="1363" type="line"/>
			<point x="1624" y="1414" type="line"/>
			<point x="1116" y="1414" type="line"/>
			<point x="1116" y="1363" type="line"/>
			<point x="1337" y="1347" type="line"/>
			<point x="1337" y="-4" type="line"/>
			<point x="1344" y="56" type="line"/>
			<point x="415" y="1414" type="line"/>
			<point x="104" y="1414" type="line"/>
			<point x="104" y="1363" type="line"/>
			<point x="325" y="1347" type="line"/>
		</contour>
	</outline>
	<anchor name="UCtop" x="853" y="1414"/>
	<anchor name="bottom" x="884" y="0"/>
</glyph>
<glyph name="O" format="2">
	<unicode hex="004F"/>
	<advance width="1639"/>
	<outline>
		<contour>
			<point x="812" y="1434" type="curve" smooth="yes"/>
			<point x="404" y="1434"/>
			<point x="136" y="1168"/>
			<point x="136" y="707" type="curve" smooth="yes"/>
			<point x="136" y="250"/>
			<point x="387" y="-20"/>
			<point x="827" y="-20" type="curve" smooth="yes"/>
			<point x="1235" y="-20"/>
			<point x="1503" y="246"/>
			<point x="1503" y="707" type="curve" smooth="yes"/>
			<point x="1503" y="1164"/>
			<point x="1252" y="1434"/>
		</contour>
		<contour>
			<point x="828" y="50" type="curve" smooth="yes"/>
			<point x="445" y="50"/>
			<point x="220" y="274"/>
			<point x="220" y="708" type="curve" smooth="yes"/>
			<point x="220" y="1119"/>
			<point x="421" y="1364"/>
			<point x="811" y="1364" type="curve" smooth="yes"/>
			<point x="1194" y="1364"/>
			<point x="1419" y="1140"/>
			<point x="1419" y="706" type="curve" smooth="yes"/>
			<point x="1419" y="295"/>
			<point x="1218" y="50"/>
		</contour>
	</outline>
	<anchor name="UCtop" x="820" y="1414"/>
	<anchor name="bottom" x="820" y="0"/>
	<anchor name="right" x="979" y="0"/>
	<anchor name="horn" x="1163" y="1414"/>
</glyph>
<glyph name="P" format="2">
	<unicode hex="0050"/>
	<advance width="1324"/>
	<outline>
		<contour>
			<point x="1143" y="1022" type="curve" smooth="yes"/>
			<point x="1143" y="779"/>
			<point x="1020" y="677"/>
			<point x="797" y="677" type="curve" smooth="yes"/>
			<point x="369" y="677" type="line"/>
			<point x="369" y="609" type="line"/>
			<point x="779" y="609" type="line" smooth="yes"/>
			<point x="1080" y="609"/>
			<point x="1225" y="746"/>
			<point x="1225" y="1017" type="curve" smooth="yes"/>
			<point x="1225" y="1279"/>
			<point x="1098" y="1414"/>
			<point x="698" y="1414" type="curve" smooth="yes"/>
			<point x="358" y="1414" type="line"/>
			<point x="358" y="1346" type="line"/>
			<point x="682" y="1346" type="line" smooth="yes"/>
			<point x="1046" y="1346"/>
			<point x="1143" y="1237"/>
		</contour>
		<contour>
			<point x="405" y="1414" type="line"/>
			<point x="104" y="1414" type="line"/>
			<point x="104" y="1363" type="line"/>
			<point x="325" y="1347" type="line"/>
			<point x="325" y="67" type="line"/>
			<point x="104" y="51" type="line"/>
			<point x="104" y="0" type="line"/>
			<point x="626" y="0" type="line"/>
			<point x="626" y="51" type="line"/>
			<point x="405" y="67" type="line"/>
		</contour>
	</outline>
	<anchor name="UCtop" x="733" y="1414"/>
	<anchor name="bottom" x="365" y="0"/>
</glyph>
<glyph name="Q" format="2">
	<unicode hex="0051"/>
	<advance width="1639"/>
	<outline>
		<contour>
			<point x="1010" y="-333" type="line" smooth="yes"/>
			<point x="1143" y="-428"/>
			<point x="1217" y="-455"/>
			<point x="1335" y="-455" type="curve" smooth="yes"/>
			<point x="1367" y="-455"/>
			<point x="1420" y="-449"/>
			<point x="1459" y="-445" type="curve"/>
			<point x="1459" y="-385" type="line"/>
			<point x="1274" y="-400"/>
			<point x="1226" y="-388"/>
			<point x="1043" y="-261" type="curve" smooth="yes"/>
			<point x="578" y="61" type="line"/>
			<point x="560" y="23" type="line"/>
			<point x="1137" y="-118"/>
			<point x="1503" y="165"/>
			<point x="1503" y="707" type="curve" smooth="yes"/>
			<point x="1503" y="1164"/>
			<point x="1252" y="1434"/>
			<point x="812" y="1434" type="curve" smooth="yes"/>
			<point x="404" y="1434"/>
			<point x="136" y="1168"/>
			<point x="136" y="707" type="curve" smooth="yes"/>
			<point x="136" y="405"/>
			<point x="241" y="215"/>
			<point x="411" y="94" type="curve" smooth="yes"/>
		</contour>
		<contour>
			<point x="828" y="50" type="curve" smooth="yes"/>
			<point x="445" y="50"/>
			<point x="220" y="274"/>
			<point x="220" y="708" type="curve" smooth="yes"/>
			<point x="220" y="1119"/>
			<point x="421" y="1364"/>
			<point x="811" y="1364" type="curve" smooth="yes"/>
			<point x="1194" y="1364"/>
			<point x="1419" y="1140"/>
			<point x="1419" y="706" type="curve" smooth="yes"/>
			<point x="1419" y="295"/>
			<point x="1218" y="50"/>
		</contour>
	</outline>
	<anchor name="UCtop" x="820" y="1414"/>
	<anchor name="bottom" x="820" y="-445"/>
</glyph>
<glyph name="R" format="2">
	<unicode hex="0052"/>
	<advance width="1445"/>
	<outline>
		<contour>
			<point x="790" y="741" type="curve" smooth="yes"/>
			<point x="355" y="741" type="line"/>
			<point x="391" y="673" type="line"/>
			<point x="844" y="673" type="line" smooth="yes"/>
			<point x="974" y="673"/>
			<point x="1020" y="644"/>
			<point x="1043" y="498" type="curve" smooth="yes"/>
			<point x="1094" y="171" type="line" smooth="yes"/>
			<point x="1121" y="1"/>
			<point x="1179" y="-10"/>
			<point x="1380" y="0" type="curve"/>
			<point x="1380" y="60" type="line"/>
			<point x="1230" y="50"/>
			<point x="1191" y="63"/>
			<point x="1173" y="177" type="curve" smooth="yes"/>
			<point x="1122" y="494" type="line" smooth="yes"/>
			<point x="1100" y="632"/>
			<point x="1067" y="701"/>
			<point x="913" y="715" type="curve"/>
			<point x="913" y="706" type="line"/>
			<point x="1126" y="747"/>
			<point x="1201" y="883"/>
			<point x="1201" y="1057" type="curve" smooth="yes"/>
			<point x="1201" y="1282"/>
			<point x="1084" y="1414"/>
			<point x="701" y="1414" type="curve" smooth="yes"/>
			<point x="311" y="1414" type="line"/>
			<point x="344" y="1346" type="line"/>
			<point x="679" y="1346" type="line" smooth="yes"/>
			<point x="1045" y="1346"/>
			<point x="1121" y="1245"/>
			<point x="1121" y="1053" type="curve" smooth="yes"/>
			<point x="1121" y="834"/>
			<point x="1003" y="741"/>
		</contour>
		<contour>
			<point x="405" y="1414" type="line"/>
			<point x="104" y="1414" type="line"/>
			<point x="104" y="1363" type="line"/>
			<point x="325" y="1347" type="line"/>
			<point x="325" y="67" type="line"/>
			<point x="104" y="51" type="line"/>
			<point x="104" y="0" type="line"/>
			<point x="626" y="0" type="line"/>
			<point x="626" y="51" type="line"/>
			<point x="405" y="67" type="line"/>
		</contour>
	</outline>
	<anchor name="UCtop" x="712" y="1414"/>
	<anchor name="bottom" x="812" y="0"/>
</glyph>
<glyph name="S" format="2">
	<unicode hex="0053"/>
	<advance width="1219"/>
	<outline>
		<contour>
			<point x="986" y="1356" type="line"/>
			<point x="899" y="1398"/>
			<point x="768" y="1434"/>
			<point x="639" y="1434" type="curve" smooth="yes"/>
			<point x="303" y="1434"/>
			<point x="164" y="1296"/>
			<point x="164" y="1081" type="curve" smooth="yes"/>
			<point x="164" y="808"/>
			<point x="393" y="760"/>
			<point x="597" y="716" type="curve" smooth="yes"/>
			<point x="801" y="672"/>
			<point x="1003" y="625"/>
			<point x="1003" y="381" type="curve" smooth="yes"/>
			<point x="1003" y="141"/>
			<point x="810" y="46"/>
			<point x="535" y="46" type="curve" smooth="yes"/>
			<point x="397" y="46"/>
			<point x="287" y="63"/>
			<point x="194" y="115" type="curve"/>
			<point x="280" y="14" type="line"/>
			<point x="190" y="399" type="line"/>
			<point x="138" y="399" type="line"/>
			<point x="175" y="32" type="line"/>
			<point x="274" y="0"/>
			<point x="384" y="-20"/>
			<point x="525" y="-20" type="curve" smooth="yes"/>
			<point x="860" y="-20"/>
			<point x="1081" y="106"/>
			<point x="1081" y="393" type="curve" smooth="yes"/>
			<point x="1081" y="693"/>
			<point x="847" y="744"/>
			<point x="640" y="789" type="curve" smooth="yes"/>
			<point x="433" y="834"/>
			<point x="240" y="873"/>
			<point x="240" y="1098" type="curve" smooth="yes"/>
			<point x="240" y="1271"/>
			<point x="355" y="1367"/>
			<point x="616" y="1367" type="curve" smooth="yes"/>
			<point x="787" y="1367"/>
			<point x="881" y="1334"/>
			<point x="993" y="1254" type="curve"/>
			<point x="928" y="1304" type="line"/>
			<point x="950" y="999" type="line"/>
			<point x="1012" y="999" type="line"/>
			<point x="1012" y="1464" type="line"/>
			<point x="959" y="1464" type="line"/>
			<point x="938" y="1350" type="line"/>
		</contour>
	</outline>
	<anchor name="UCtop" x="577" y="1414"/>
	<anchor name="bottom" x="619" y="0"/>
</glyph>
<glyph name="T" format="2">
	<unicode hex="0054"/>
	<advance width="1410"/>
	<outline>
		<contour>
			<point x="665" y="1407" type="line"/>
			<point x="665" y="67" type="line"/>
			<point x="444" y="51" type="line"/>
			<point x="444" y="0" type="line"/>
			<point x="966" y="0" type="line"/>
			<point x="966" y="51" type="line"/>
			<point x="745" y="67" type="line"/>
			<point x="745" y="1407" type="line"/>
		</contour>
		<contour>
			<point x="1254" y="1346" type="line"/>
			<point x="1199" y="1372" type="line"/>
			<point x="1280" y="1044" type="line"/>
			<point x="1345" y="1044" type="line"/>
			<point x="1277" y="1484" type="line"/>
			<point x="1211" y="1484" type="line"/>
			<point x="1202" y="1398" type="line"/>
			<point x="1272" y="1414" type="line"/>
			<point x="158" y="1414" type="line"/>
			<point x="208" y="1398" type="line"/>
			<point x="199" y="1484" type="line"/>
			<point x="133" y="1484" type="line"/>
			<point x="65" y="1044" type="line"/>
			<point x="130" y="1044" type="line"/>
			<point x="211" y="1372" type="line"/>
			<point x="156" y="1346" type="line"/>
		</contour>
	</outline>
	<anchor name="UCtop" x="705" y="1414"/>
	<anchor name="bottom" x="705" y="0"/>
</glyph>
<glyph name="U" format="2">
	<unicode hex="0055"/>
	<advance width="1661"/>
	<outline>
		<contour>
			<point x="1293" y="546" type="line" smooth="yes"/>
			<point x="1293" y="173"/>
			<point x="1147" y="50"/>
			<point x="851" y="50" type="curve" smooth="yes"/>
			<point x="511" y="50"/>
			<point x="380" y="174"/>
			<point x="380" y="570" type="curve" smooth="yes"/>
			<point x="380" y="1347" type="line"/>
			<point x="601" y="1363" type="line"/>
			<point x="601" y="1414" type="line"/>
			<point x="79" y="1414" type="line"/>
			<point x="79" y="1363" type="line"/>
			<point x="300" y="1347" type="line"/>
			<point x="300" y="548" type="line" smooth="yes"/>
			<point x="300" y="124"/>
			<point x="470" y="-20"/>
			<point x="843" y="-20" type="curve" smooth="yes"/>
			<point x="1160" y="-20"/>
			<point x="1361" y="118"/>
			<point x="1361" y="514" type="curve" smooth="yes"/>
			<point x="1361" y="1347" type="line"/>
			<point x="1582" y="1363" type="line"/>
			<point x="1582" y="1414" type="line"/>
			<point x="1072" y="1414" type="line"/>
			<point x="1072" y="1363" type="line"/>
			<point x="1293" y="1347" type="line"/>
		</contour>
	</outline>
	<anchor name="UCtop" x="839" y="1414"/>
	<anchor name="right" x="990" y="0"/>
	<anchor name="bottom" x="839" y="0"/>
	<anchor name="horn" x="1412" y="1414"/>
</glyph>
<glyph name="V" format="2">
  <advance width="1563.0"/>
  <unicode hex="0056"/>
  <guideline x="1268.0" y="1348" angle="179.1690385075712" identifier="Tn25YrsnVm"/>
  <anchor x="805.0" y="1414" name="UCtop"/>
  <anchor x="795.0" y="0" name="bottom"/>
  <outline>
    <contour>
      <point x="206.0" y="1348.0" type="line"/>
      <point x="753.0" y="0.0" type="line"/>
      <point x="849.0" y="0.0" type="line"/>
      <point x="1348.0" y="1347.0" type="line"/>
      <point x="1544.0" y="1363.0" type="line"/>
      <point x="1544.0" y="1414.0" type="line"/>
      <point x="1074.0" y="1414.0" type="line"/>
      <point x="1074.0" y="1363.0" type="line"/>
      <point x="1278.0" y="1348.0" type="line"/>
      <point x="800.0" y="42.0" type="line"/>
      <point x="819.0" y="42.0" type="line"/>
      <point x="294.0" y="1347.0" type="line"/>
      <point x="518.0" y="1363.0" type="line"/>
      <point x="518.0" y="1414.0" type="line"/>
      <point x="5.0" y="1414.0" type="line"/>
      <point x="5.0" y="1363.0" type="line"/>
    </contour>
  </outline>
</glyph>
<glyph name="W" format="2">
	<unicode hex="0057"/>
	<advance width="2108"/>
	<outline>
		<contour>
			<point x="1080" y="1378" type="line"/>
			<point x="1057" y="1378" type="line"/>
			<point x="1469" y="0" type="line"/>
			<point x="1574" y="0" type="line"/>
			<point x="1895" y="1347" type="line"/>
			<point x="2083" y="1363" type="line"/>
			<point x="2083" y="1414" type="line"/>
			<point x="1614" y="1414" type="line"/>
			<point x="1614" y="1363" type="line"/>
			<point x="1826" y="1348" type="line"/>
			<point x="1524" y="61" type="line"/>
			<point x="1535" y="61" type="line"/>
			<point x="1126" y="1414" type="line"/>
			<point x="1023" y="1414" type="line"/>
			<point x="597" y="61" type="line"/>
			<point x="607" y="61" type="line"/>
			<point x="308" y="1347" type="line"/>
			<point x="529" y="1363" type="line"/>
			<point x="529" y="1414" type="line"/>
			<point x="12" y="1414" type="line"/>
			<point x="12" y="1363" type="line"/>
			<point x="228" y="1348" type="line"/>
			<point x="543" y="0" type="line"/>
			<point x="644" y="0" type="line"/>
		</contour>
	</outline>
	<anchor name="UCtop" x="1048" y="1414"/>
	<anchor name="bottom" x="1068" y="0"/>
</glyph>
<glyph name="X" format="2">
	<unicode hex="0058"/>
	<advance width="1633"/>
	<outline>
		<contour>
			<point x="821" y="702" type="line"/>
			<point x="850" y="732" type="line"/>
			<point x="1346" y="1347" type="line"/>
			<point x="1534" y="1363" type="line"/>
			<point x="1534" y="1414" type="line"/>
			<point x="1057" y="1414" type="line"/>
			<point x="1057" y="1363" type="line"/>
			<point x="1269" y="1348" type="line"/>
			<point x="813" y="782" type="line"/>
			<point x="783" y="751" type="line"/>
			<point x="233" y="67" type="line"/>
			<point x="45" y="51" type="line"/>
			<point x="45" y="0" type="line"/>
			<point x="522" y="0" type="line"/>
			<point x="522" y="51" type="line"/>
			<point x="310" y="66" type="line"/>
		</contour>
		<contour>
			<point x="1286" y="67" type="line"/>
			<point x="1055" y="51" type="line"/>
			<point x="1055" y="0" type="line"/>
			<point x="1591" y="0" type="line"/>
			<point x="1591" y="51" type="line"/>
			<point x="1385" y="66" type="line"/>
			<point x="849" y="761" type="line"/>
			<point x="833" y="782" type="line"/>
			<point x="398" y="1347" type="line"/>
			<point x="629" y="1363" type="line"/>
			<point x="629" y="1414" type="line"/>
			<point x="93" y="1414" type="line"/>
			<point x="93" y="1363" type="line"/>
			<point x="299" y="1348" type="line"/>
			<point x="781" y="722" type="line"/>
			<point x="798" y="701" type="line"/>
		</contour>
	</outline>
	<anchor name="UCtop" x="836" y="1414"/>
	<anchor name="bottom" x="808" y="0"/>
</glyph>
<glyph name="Y" format="2">
	<unicode hex="0059"/>
	<advance width="1506"/>
	<outline>
		<contour>
			<point x="235" y="1348" type="line"/>
			<point x="721" y="609" type="line"/>
			<point x="721" y="67" type="line"/>
			<point x="500" y="51" type="line"/>
			<point x="500" y="0" type="line"/>
			<point x="1022" y="0" type="line"/>
			<point x="1022" y="51" type="line"/>
			<point x="801" y="67" type="line"/>
			<point x="801" y="609" type="line"/>
			<point x="1283" y="1347" type="line"/>
			<point x="1471" y="1363" type="line"/>
			<point x="1471" y="1414" type="line"/>
			<point x="996" y="1414" type="line"/>
			<point x="996" y="1363" type="line"/>
			<point x="1208" y="1348" type="line"/>
			<point x="758" y="648" type="line"/>
			<point x="788" y="648" type="line"/>
			<point x="339" y="1347" type="line"/>
			<point x="560" y="1363" type="line"/>
			<point x="560" y="1414" type="line"/>
			<point x="19" y="1414" type="line"/>
			<point x="19" y="1363" type="line"/>
		</contour>
	</outline>
	<anchor name="UCtop" x="765" y="1414"/>
	<anchor name="bottom" x="761" y="0"/>
</glyph>
<glyph name="Z" format="2">
  <advance width="1312.0"/>
  <unicode hex="005A"/>
  <anchor x="668.0" y="1414" name="UCtop"/>
  <anchor x="638.0" y="0" name="bottom"/>
  <outline>
    <contour>
      <point x="1170.0" y="1414.0" type="line"/>
      <point x="222.0" y="1414.0" type="line"/>
      <point x="182.0" y="1484.0" type="line"/>
      <point x="134.0" y="1484.0" type="line"/>
      <point x="141.0" y="1048.0" type="line"/>
      <point x="202.0" y="1048.0" type="line"/>
      <point x="228.0" y="1346.0" type="line"/>
      <point x="1106.0" y="1346.0" type="line"/>
      <point x="1092.0" y="1374.0" type="line"/>
      <point x="125.0" y="55.0" type="line"/>
      <point x="125.0" y="0.0" type="line"/>
      <point x="1064.0" y="0.0" type="line"/>
      <point x="1077.0" y="-70.0" type="line"/>
      <point x="1143.0" y="-70.0" type="line"/>
      <point x="1211.0" y="370.0" type="line"/>
      <point x="1146.0" y="370.0" type="line"/>
      <point x="1063.0" y="68.0" type="line"/>
      <point x="190.0" y="68.0" type="line"/>
      <point x="205.0" y="40.0" type="line"/>
      <point x="1170.0" y="1358.0" type="line"/>
    </contour>
  </outline>
</glyph>
<glyph name="bracketleft" format="2">
	<unicode hex="005B"/>
	<advance width="696"/>
	<outline>
		<contour>
			<point x="239" y="-223" type="line"/>
			<point x="638" y="-223" type="line"/>
			<point x="638" y="-165" type="line"/>
			<point x="315" y="-165" type="line"/>
			<point x="315" y="1406" type="line"/>
			<point x="638" y="1406" type="line"/>
			<point x="638" y="1464" type="line"/>
			<point x="239" y="1464" type="line"/>
		</contour>
	</outline>
</glyph>
<glyph name="backslash" format="2">
	<unicode hex="005C"/>
	<advance width="805"/>
	<outline>
		<contour>
			<point x="731" y="0" type="line"/>
			<point x="141" y="1414" type="line"/>
			<point x="71" y="1414" type="line"/>
			<point x="661" y="0" type="line"/>
		</contour>
	</outline>
</glyph>
<glyph name="bracketright" format="2">
  <advance width="696"/>
  <unicode hex="005D"/>
  <outline>
    <contour>
      <point x="457.0" y="1464.0" type="line"/>
      <point x="58.0" y="1464.0" type="line"/>
      <point x="58.0" y="1406.0" type="line"/>
      <point x="381.0" y="1406.0" type="line"/>
      <point x="381.0" y="-165.0" type="line"/>
      <point x="58.0" y="-165.0" type="line"/>
      <point x="58.0" y="-223.0" type="line"/>
      <point x="457.0" y="-223.0" type="line"/>
    </contour>
  </outline>
</glyph>
<glyph name="asciicircum" format="2">
	<unicode hex="005E"/>
	<advance width="1140"/>
	<outline>
		<contour>
			<point x="561" y="1351" type="line"/>
			<point x="890" y="646" type="line"/>
			<point x="962" y="646" type="line"/>
			<point x="600" y="1414" type="line"/>
			<point x="538" y="1414" type="line"/>
			<point x="178" y="646" type="line"/>
			<point x="250" y="646" type="line"/>
			<point x="576" y="1351" type="line"/>
		</contour>
	</outline>
</glyph>
<glyph name="b" format="2">
	<unicode hex="0062"/>
	<advance width="1259"/>
	<outline>
		<contour>
			<point x="264" y="305" type="line"/>
			<point x="269" y="129"/>
			<point x="385" y="-20"/>
			<point x="641" y="-20" type="curve" smooth="yes"/>
			<point x="918" y="-20"/>
			<point x="1142" y="166"/>
			<point x="1142" y="539" type="curve" smooth="yes"/>
			<point x="1142" y="880"/>
			<point x="986" y="1044"/>
			<point x="673" y="1044" type="curve" smooth="yes"/>
			<point x="590" y="1044"/>
			<point x="532" y="1043"/>
			<point x="254" y="918" type="curve"/>
			<point x="254" y="873" type="line"/>
			<point x="409" y="951"/>
			<point x="535" y="978"/>
			<point x="651" y="978" type="curve" smooth="yes"/>
			<point x="934" y="978"/>
			<point x="1062" y="813"/>
			<point x="1062" y="539" type="curve" smooth="yes"/>
			<point x="1062" y="212"/>
			<point x="893" y="39"/>
			<point x="633" y="39" type="curve" smooth="yes"/>
			<point x="411" y="39"/>
			<point x="282" y="168"/>
			<point x="282" y="471" type="curve" smooth="yes"/>
			<point x="282" y="1391" type="line"/>
			<point x="292" y="1484" type="line"/>
			<point x="275" y="1484" type="line"/>
			<point x="-7" y="1446" type="line"/>
			<point x="-7" y="1407" type="line"/>
			<point x="71" y="1395.7009345794"/>
			<point x="181" y="1379.7663551402"/>
			<point x="207" y="1376" type="curve"/>
			<point x="207" y="294" type="line"/>
			<point x="150" y="0" type="line"/>
			<point x="225" y="0" type="line"/>
			<point x="280" y="305" type="line"/>
		</contour>
	</outline>
	<anchor name="UCtop" x="667" y="1414"/>
	<anchor name="bottom" x="647" y="0"/>
</glyph>
<glyph name="c" format="2">
	<unicode hex="0063"/>
	<advance width="1089"/>
	<outline>
		<contour>
			<point x="665" y="1044" type="curve" smooth="yes"/>
			<point x="298" y="1044"/>
			<point x="116" y="822"/>
			<point x="116" y="508" type="curve" smooth="yes"/>
			<point x="116" y="144"/>
			<point x="284" y="-20"/>
			<point x="593" y="-20" type="curve" smooth="yes"/>
			<point x="746" y="-20"/>
			<point x="841" y="2"/>
			<point x="998" y="86" type="curve"/>
			<point x="998" y="142" type="line"/>
			<point x="862" y="74"/>
			<point x="761" y="51"/>
			<point x="623" y="51" type="curve" smooth="yes"/>
			<point x="332" y="51"/>
			<point x="194" y="184"/>
			<point x="194" y="511" type="curve" smooth="yes"/>
			<point x="194" y="833"/>
			<point x="376" y="980"/>
			<point x="649" y="980" type="curve" smooth="yes"/>
			<point x="825" y="980"/>
			<point x="905" y="841"/>
			<point x="917" y="841" type="curve" smooth="yes"/>
			<point x="955" y="841"/>
			<point x="992" y="870"/>
			<point x="992" y="916" type="curve" smooth="yes"/>
			<point x="992" y="964"/>
			<point x="926" y="1044"/>
		</contour>
	</outline>
	<anchor name="top" x="614" y="1024"/>
	<anchor name="right" x="998" y="0"/>
	<anchor name="bottom" x="625" y="0"/>
</glyph>
<glyph name="d" format="2">
	<unicode hex="0064"/>
	<advance width="1301"/>
	<outline>
		<contour>
			<point x="956" y="865" type="curve" smooth="yes"/>
			<point x="956" y="135" type="line"/>
			<point x="968" y="-14" type="line"/>
			<point x="989" y="-14" type="line"/>
			<point x="1274" y="25" type="line"/>
			<point x="1274" y="64" type="line"/>
			<point x="1232" y="67.8024691358"/>
			<point x="1055" y="83.8271604938"/>
			<point x="1031" y="86" type="curve"/>
			<point x="1031" y="1391" type="line"/>
			<point x="1041" y="1484" type="line"/>
			<point x="1024" y="1484" type="line"/>
			<point x="742" y="1446" type="line"/>
			<point x="742" y="1407" type="line"/>
			<point x="799" y="1398.7429906542"/>
			<point x="932" y="1379.476635514"/>
			<point x="956" y="1376" type="curve"/>
			<point x="956" y="926" type="line"/>
			<point x="1020" y="980" type="line"/>
			<point x="902" y="1026"/>
			<point x="838" y="1044"/>
			<point x="710" y="1044" type="curve" smooth="yes"/>
			<point x="355" y="1044"/>
			<point x="116" y="832"/>
			<point x="116" y="477" type="curve" smooth="yes"/>
			<point x="116" y="147"/>
			<point x="269" y="-20"/>
			<point x="593" y="-20" type="curve" smooth="yes"/>
			<point x="676" y="-20"/>
			<point x="734" y="-3"/>
			<point x="1012" y="136" type="curve"/>
			<point x="1012" y="181" type="line"/>
			<point x="838" y="79"/>
			<point x="721" y="46"/>
			<point x="604" y="46" type="curve" smooth="yes"/>
			<point x="323" y="46"/>
			<point x="195" y="213"/>
			<point x="195" y="472" type="curve" smooth="yes"/>
			<point x="195" y="790"/>
			<point x="372" y="986"/>
			<point x="704" y="986" type="curve" smooth="yes"/>
			<point x="863" y="986"/>
			<point x="956" y="933"/>
		</contour>
	</outline>
	<anchor name="UCtop" x="575" y="1414"/>
	<anchor name="right" x="1031" y="1464"/>
	<anchor name="bottom" x="705" y="0"/>
	<anchor name="center" x="941" y="1206"/>
</glyph>
<glyph name="e" format="2">
	<unicode hex="0065"/>
	<advance width="1134"/>
	<outline>
		<contour>
			<point x="594" y="1044" type="curve" smooth="yes"/>
			<point x="312" y="1044"/>
			<point x="117" y="844"/>
			<point x="117" y="508" type="curve" smooth="yes"/>
			<point x="117" y="144"/>
			<point x="285" y="-20"/>
			<point x="594" y="-20" type="curve" smooth="yes"/>
			<point x="747" y="-20"/>
			<point x="842" y="2"/>
			<point x="999" y="86" type="curve"/>
			<point x="999" y="142" type="line"/>
			<point x="863" y="74"/>
			<point x="762" y="51"/>
			<point x="624" y="51" type="curve" smooth="yes"/>
			<point x="333" y="51"/>
			<point x="195" y="184"/>
			<point x="195" y="511" type="curve" smooth="yes"/>
			<point x="195" y="834"/>
			<point x="359" y="985"/>
			<point x="596" y="985" type="curve" smooth="yes"/>
			<point x="838" y="985"/>
			<point x="940" y="821"/>
			<point x="934" y="573" type="curve"/>
			<point x="985" y="594" type="line"/>
			<point x="183" y="594" type="line"/>
			<point x="193" y="530" type="line"/>
			<point x="1021" y="530" type="line"/>
			<point x="1023" y="874"/>
			<point x="896" y="1044"/>
		</contour>
	</outline>
	<anchor name="top" x="589" y="1024"/>
	<anchor name="right" x="999" y="0"/>
	<anchor name="bottom" x="609" y="0"/>
</glyph>
<glyph name="f" format="2">
	<unicode hex="0066"/>
	<advance width="807"/>
	<outline>
		<contour>
			<point x="341" y="958" type="line"/>
			<point x="770" y="958" type="line"/>
			<point x="770" y="1024" type="line"/>
			<point x="341" y="1024" type="line"/>
			<point x="297" y="1028" type="line"/>
			<point x="54" y="1005" type="line"/>
			<point x="54" y="972" type="line"/>
			<point x="283" y="953" type="line"/>
		</contour>
		<contour>
			<point x="355" y="64" type="line"/>
			<point x="355" y="1136" type="line" smooth="yes"/>
			<point x="355" y="1339"/>
			<point x="442" y="1425"/>
			<point x="675" y="1425" type="curve" smooth="yes"/>
			<point x="856" y="1425"/>
			<point x="885" y="1300"/>
			<point x="906" y="1300" type="curve" smooth="yes"/>
			<point x="948" y="1300"/>
			<point x="975" y="1322"/>
			<point x="975" y="1368" type="curve" smooth="yes"/>
			<point x="975" y="1430"/>
			<point x="897" y="1484"/>
			<point x="675" y="1484" type="curve" smooth="yes"/>
			<point x="435" y="1484"/>
			<point x="280" y="1376"/>
			<point x="280" y="1122" type="curve" smooth="yes"/>
			<point x="280" y="64" type="line"/>
			<point x="113" y="48" type="line"/>
			<point x="113" y="0" type="line"/>
			<point x="522" y="0" type="line"/>
			<point x="522" y="48" type="line"/>
		</contour>
	</outline>
	<anchor name="UCtop" x="655" y="1413"/>
	<anchor name="bottom" x="318" y="0"/>
</glyph>
<glyph name="g" format="2">
	<unicode hex="0067"/>
	<advance width="1118"/>
	<outline>
		<contour>
			<point x="514" y="-465" type="curve" smooth="yes"/>
			<point x="899" y="-465"/>
			<point x="1089" y="-345"/>
			<point x="1089" y="-147" type="curve" smooth="yes"/>
			<point x="1089" y="-4"/>
			<point x="1010" y="89"/>
			<point x="595" y="89" type="curve" smooth="yes"/>
			<point x="285" y="89"/>
			<point x="235" y="126"/>
			<point x="235" y="223" type="curve" smooth="yes"/>
			<point x="235" y="277"/>
			<point x="273" y="334"/>
			<point x="382" y="349" type="curve"/>
			<point x="384" y="369" type="line"/>
			<point x="216" y="348"/>
			<point x="164" y="273"/>
			<point x="164" y="199" type="curve" smooth="yes"/>
			<point x="164" y="88"/>
			<point x="222" y="17"/>
			<point x="604" y="20" type="curve" smooth="yes"/>
			<point x="959" y="23"/>
			<point x="1008" y="-56"/>
			<point x="1008" y="-162" type="curve" smooth="yes"/>
			<point x="1008" y="-305"/>
			<point x="870" y="-401"/>
			<point x="512" y="-401" type="curve" smooth="yes"/>
			<point x="207" y="-401"/>
			<point x="113" y="-328"/>
			<point x="113" y="-198" type="curve" smooth="yes"/>
			<point x="113" y="-60"/>
			<point x="243" y="16"/>
			<point x="547" y="22" type="curve"/>
			<point x="558" y="41" type="line"/>
			<point x="513" y="37" type="line"/>
			<point x="202" y="35"/>
			<point x="35" y="-49"/>
			<point x="35" y="-209" type="curve" smooth="yes"/>
			<point x="35" y="-377"/>
			<point x="144" y="-465"/>
		</contour>
		<contour>
			<point x="519" y="321" type="curve" smooth="yes"/>
			<point x="778" y="321"/>
			<point x="933" y="456"/>
			<point x="933" y="681" type="curve" smooth="yes"/>
			<point x="933" y="908"/>
			<point x="782" y="1044"/>
			<point x="530" y="1044" type="curve" smooth="yes"/>
			<point x="271" y="1044"/>
			<point x="116" y="909"/>
			<point x="116" y="684" type="curve" smooth="yes"/>
			<point x="116" y="457"/>
			<point x="267" y="321"/>
		</contour>
		<contour>
			<point x="517" y="380" type="curve" smooth="yes"/>
			<point x="304" y="380"/>
			<point x="194" y="489"/>
			<point x="194" y="689" type="curve" smooth="yes"/>
			<point x="194" y="881"/>
			<point x="309" y="986"/>
			<point x="532" y="986" type="curve" smooth="yes"/>
			<point x="745" y="986"/>
			<point x="855" y="877"/>
			<point x="855" y="678" type="curve" smooth="yes"/>
			<point x="855" y="486"/>
			<point x="740" y="380"/>
		</contour>
		<contour>
			<point x="737" y="961" type="line"/>
			<point x="1012" y="961"/>
			<point x="1033" y="961"/>
			<point x="1051" y="961" type="curve" smooth="yes"/>
			<point x="1060" y="961"/>
			<point x="1061" y="976"/>
			<point x="1061" y="994" type="curve" smooth="yes"/>
			<point x="1061" y="1013"/>
			<point x="1059" y="1024"/>
			<point x="1045" y="1024" type="curve" smooth="yes"/>
			<point x="1021" y="1024"/>
			<point x="886" y="1024"/>
			<point x="615" y="1024" type="curve"/>
		</contour>
	</outline>
	<anchor name="top" x="522" y="1024"/>
	<anchor name="bottom" x="542" y="-445"/>
</glyph>
<glyph name="i" format="2">
	<unicode hex="0069"/>
	<advance width="594"/>
	<outline>
		<contour>
			<point x="288" y="1296" type="curve" smooth="yes"/>
			<point x="346" y="1296"/>
			<point x="384" y="1329"/>
			<point x="384" y="1392" type="curve" smooth="yes"/>
			<point x="384" y="1455"/>
			<point x="346" y="1484"/>
			<point x="288" y="1484" type="curve" smooth="yes"/>
			<point x="230" y="1484"/>
			<point x="192" y="1455"/>
			<point x="192" y="1392" type="curve" smooth="yes"/>
			<point x="192" y="1329"/>
			<point x="230" y="1296"/>
		</contour>
		<contour>
			<point x="358" y="1044" type="line"/>
			<point x="341" y="1044" type="line"/>
			<point x="73" y="1006" type="line"/>
			<point x="73" y="967" type="line"/>
			<point x="134" y="958.5024875622"/>
			<point x="252" y="942.0646766169"/>
			<point x="274" y="939" type="curve"/>
			<point x="274" y="64" type="line"/>
			<point x="107" y="48" type="line"/>
			<point x="107" y="0" type="line"/>
			<point x="516" y="0" type="line"/>
			<point x="516" y="48" type="line"/>
			<point x="349" y="64" type="line"/>
			<point x="349" y="938" type="line"/>
		</contour>
	</outline>
	<anchor name="top" x="286" y="1414"/>
	<anchor name="bottom" x="312" y="0"/>
	<anchor name="right" x="436" y="0"/>
</glyph>
<glyph name="j" format="2">
  <advance width="528.0"/>
  <unicode hex="006A"/>
  <anchor x="264.0" y="1414" name="top"/>
  <anchor x="225.0" y="-445" name="bottom"/>
  <outline>
    <contour>
      <point x="269.0" y="1296.0" type="curve" smooth="yes"/>
      <point x="327.0" y="1296.0"/>
      <point x="365.0" y="1329.0"/>
      <point x="365.0" y="1392.0" type="curve" smooth="yes"/>
      <point x="365.0" y="1455.0"/>
      <point x="327.0" y="1484.0"/>
      <point x="269.0" y="1484.0" type="curve" smooth="yes"/>
      <point x="211.0" y="1484.0"/>
      <point x="173.0" y="1455.0"/>
      <point x="173.0" y="1392.0" type="curve" smooth="yes"/>
      <point x="173.0" y="1329.0"/>
      <point x="211.0" y="1296.0"/>
    </contour>
    <contour>
      <point x="255.0" y="939.0" type="curve"/>
      <point x="255.0" y="-20.0" type="line" smooth="yes"/>
      <point x="255.0" y="-134.0"/>
      <point x="227.0" y="-187.0"/>
      <point x="25.0" y="-429.0" type="curve"/>
      <point x="65.0" y="-465.0" type="line"/>
      <point x="301.0" y="-202.0"/>
      <point x="330.0" y="-154.0"/>
      <point x="330.0" y="-38.0" type="curve" smooth="yes"/>
      <point x="330.0" y="938.0" type="line"/>
      <point x="339.0" y="1044.0" type="line"/>
      <point x="322.0" y="1044.0" type="line"/>
      <point x="54.0" y="1006.0" type="line"/>
      <point x="54.0" y="967.0" type="line"/>
      <point x="115.0" y="958.5024875621891"/>
      <point x="233.0" y="942.0646766169154"/>
    </contour>
  </outline>
</glyph>
<glyph name="k" format="2">
	<unicode hex="006B"/>
	<advance width="1309"/>
	<outline>
		<contour>
			<point x="585" y="548" type="line"/>
			<point x="1046" y="956" type="line"/>
			<point x="1228" y="976" type="line"/>
			<point x="1228" y="1024" type="line"/>
			<point x="763" y="1024" type="line"/>
			<point x="763" y="976" type="line"/>
			<point x="948" y="953" type="line"/>
			<point x="566" y="613" type="line"/>
			<point x="276" y="613" type="line"/>
			<point x="276" y="547" type="line"/>
			<point x="563" y="547" type="line"/>
			<point x="1014" y="63" type="line"/>
			<point x="825" y="48" type="line"/>
			<point x="825" y="0" type="line"/>
			<point x="1280" y="0" type="line"/>
			<point x="1280" y="48" type="line"/>
			<point x="1112" y="64" type="line"/>
			<point x="600" y="609" type="line"/>
		</contour>
		<contour>
			<point x="316" y="64" type="line"/>
			<point x="316" y="1391" type="line"/>
			<point x="326" y="1484" type="line"/>
			<point x="309" y="1484" type="line"/>
			<point x="27" y="1446" type="line"/>
			<point x="27" y="1407" type="line"/>
			<point x="105" y="1395.7009345794"/>
			<point x="215" y="1379.7663551402"/>
			<point x="241" y="1376" type="curve"/>
			<point x="241" y="64" type="line"/>
			<point x="74" y="48" type="line"/>
			<point x="74" y="0" type="line"/>
			<point x="483" y="0" type="line"/>
			<point x="483" y="48" type="line"/>
		</contour>
	</outline>
	<anchor name="UCtop" x="653" y="1414"/>
	<anchor name="bottom" x="643" y="0"/>
</glyph>
<glyph name="l" format="2">
	<unicode hex="006C"/>
	<advance width="565"/>
	<outline>
		<contour>
			<point x="320" y="64" type="line"/>
			<point x="320" y="1391" type="line"/>
			<point x="330" y="1484" type="line"/>
			<point x="313" y="1484" type="line"/>
			<point x="31" y="1446" type="line"/>
			<point x="31" y="1407" type="line"/>
			<point x="109" y="1395.7009345794"/>
			<point x="219" y="1379.7663551402"/>
			<point x="245" y="1376" type="curve"/>
			<point x="245" y="64" type="line"/>
			<point x="78" y="48" type="line"/>
			<point x="78" y="0" type="line"/>
			<point x="487" y="0" type="line"/>
			<point x="487" y="48" type="line"/>
		</contour>
	</outline>
	<anchor name="UCtop" x="283" y="1414"/>
	<anchor name="right" x="320" y="1464"/>
	<anchor name="bottom" x="283" y="0"/>
	<anchor name="mid" x="567" y="512"/>
</glyph>
<glyph name="m" format="2">
	<unicode hex="006D"/>
	<advance width="1962"/>
	<outline>
		<contour>
			<point x="346" y="888" type="line"/>
			<point x="338" y="1044" type="line"/>
			<point x="321" y="1044" type="line"/>
			<point x="70" y="1006" type="line"/>
			<point x="70" y="967" type="line"/>
			<point x="161" y="954.3233830846"/>
			<point x="249" y="942.0646766169"/>
			<point x="271" y="939" type="curve"/>
			<point x="271" y="64" type="line"/>
			<point x="104" y="48" type="line"/>
			<point x="104" y="0" type="line"/>
			<point x="513" y="0" type="line"/>
			<point x="513" y="48" type="line"/>
			<point x="346" y="64" type="line"/>
		</contour>
		<contour>
			<point x="1035" y="761" type="line" smooth="yes"/>
			<point x="1035" y="954"/>
			<point x="956" y="1044"/>
			<point x="740" y="1044" type="curve" smooth="yes"/>
			<point x="612" y="1044"/>
			<point x="521" y="1013"/>
			<point x="333" y="900" type="curve"/>
			<point x="333" y="860" type="line"/>
			<point x="482" y="939"/>
			<point x="578" y="965"/>
			<point x="693" y="965" type="curve" smooth="yes"/>
			<point x="902" y="965"/>
			<point x="960" y="906"/>
			<point x="960" y="705" type="curve" smooth="yes"/>
			<point x="960" y="64" type="line"/>
			<point x="793" y="48" type="line"/>
			<point x="793" y="0" type="line"/>
			<point x="1202" y="0" type="line"/>
			<point x="1202" y="48" type="line"/>
			<point x="1035" y="64" type="line"/>
		</contour>
		<contour>
			<point x="1726" y="752" type="line" smooth="yes"/>
			<point x="1726" y="951"/>
			<point x="1644" y="1044"/>
			<point x="1422" y="1044" type="curve" smooth="yes"/>
			<point x="1290" y="1044"/>
			<point x="1197" y="1012"/>
			<point x="1003" y="896" type="curve"/>
			<point x="1003" y="857" type="line"/>
			<point x="1157" y="938"/>
			<point x="1256" y="965"/>
			<point x="1374" y="965" type="curve" smooth="yes"/>
			<point x="1591" y="965"/>
			<point x="1651" y="903"/>
			<point x="1651" y="696" type="curve" smooth="yes"/>
			<point x="1651" y="64" type="line"/>
			<point x="1484" y="48" type="line"/>
			<point x="1484" y="0" type="line"/>
			<point x="1893" y="0" type="line"/>
			<point x="1893" y="48" type="line"/>
			<point x="1726" y="64" type="line"/>
		</contour>
	</outline>
	<anchor name="top" x="998" y="1024"/>
	<anchor name="bottom" x="998" y="0"/>
</glyph>
<glyph name="o" format="2">
	<unicode hex="006F"/>
	<advance width="1246"/>
	<outline>
		<contour>
			<point x="613" y="44" type="curve" smooth="yes"/>
			<point x="338" y="44"/>
			<point x="196" y="238"/>
			<point x="196" y="520" type="curve" smooth="yes"/>
			<point x="196" y="824"/>
			<point x="363" y="980"/>
			<point x="633" y="980" type="curve" smooth="yes"/>
			<point x="908" y="980"/>
			<point x="1050" y="787"/>
			<point x="1050" y="504" type="curve" smooth="yes"/>
			<point x="1050" y="200"/>
			<point x="883" y="44"/>
		</contour>
		<contour>
			<point x="617" y="-20" type="curve" smooth="yes"/>
			<point x="939" y="-20"/>
			<point x="1130" y="160"/>
			<point x="1130" y="510" type="curve" smooth="yes"/>
			<point x="1130" y="850"/>
			<point x="929" y="1044"/>
			<point x="629" y="1044" type="curve" smooth="yes"/>
			<point x="307" y="1044"/>
			<point x="116" y="864"/>
			<point x="116" y="514" type="curve" smooth="yes"/>
			<point x="116" y="174"/>
			<point x="317" y="-20"/>
		</contour>
	</outline>
	<anchor name="top" x="623" y="1024"/>
	<anchor name="bottom" x="623" y="0"/>
	<anchor name="horn" x="867" y="1024"/>
	<anchor name="right" x="750" y="0"/>
</glyph>
<glyph name="p" format="2">
	<unicode hex="0070"/>
	<advance width="1305"/>
	<outline>
		<contour>
			<point x="1109" y="552" type="curve" smooth="yes"/>
			<point x="1109" y="220"/>
			<point x="940" y="39"/>
			<point x="679" y="39" type="curve" smooth="yes"/>
			<point x="457" y="39"/>
			<point x="328" y="168"/>
			<point x="328" y="471" type="curve" smooth="yes"/>
			<point x="328" y="887" type="line"/>
			<point x="320" y="1044" type="line"/>
			<point x="303" y="1044" type="line"/>
			<point x="52" y="1006" type="line"/>
			<point x="52" y="967" type="line"/>
			<point x="126" y="956.6915422886"/>
			<point x="227" y="942.6218905473"/>
			<point x="253" y="939" type="curve"/>
			<point x="253" y="-381" type="line"/>
			<point x="86" y="-397" type="line"/>
			<point x="86" y="-445" type="line"/>
			<point x="515" y="-445" type="line"/>
			<point x="515" y="-397" type="line"/>
			<point x="328" y="-381" type="line"/>
			<point x="328" y="299" type="line"/>
			<point x="317" y="299" type="line"/>
			<point x="322" y="113"/>
			<point x="445" y="-20"/>
			<point x="687" y="-20" type="curve" smooth="yes"/>
			<point x="964" y="-20"/>
			<point x="1188" y="174"/>
			<point x="1188" y="547" type="curve" smooth="yes"/>
			<point x="1188" y="877"/>
			<point x="1035" y="1044"/>
			<point x="711" y="1044" type="curve" smooth="yes"/>
			<point x="628" y="1044"/>
			<point x="570" y="1027"/>
			<point x="292" y="888" type="curve"/>
			<point x="292" y="843" type="line"/>
			<point x="466" y="945"/>
			<point x="583" y="978"/>
			<point x="700" y="978" type="curve" smooth="yes"/>
			<point x="981" y="978"/>
			<point x="1109" y="811"/>
		</contour>
	</outline>
	<anchor name="top" x="690" y="1024"/>
	<anchor name="bottom" x="291" y="-445"/>
</glyph>
<glyph name="q" format="2">
	<unicode hex="0071"/>
	<advance width="1232"/>
	<outline>
		<contour>
			<point x="195" y="472" type="curve" smooth="yes"/>
			<point x="195" y="778"/>
			<point x="368" y="986"/>
			<point x="704" y="986" type="curve" smooth="yes"/>
			<point x="863" y="986"/>
			<point x="956" y="924"/>
			<point x="956" y="845" type="curve" smooth="yes"/>
			<point x="956" y="-381" type="line"/>
			<point x="769" y="-397" type="line"/>
			<point x="769" y="-445" type="line"/>
			<point x="1198" y="-445" type="line"/>
			<point x="1198" y="-397" type="line"/>
			<point x="1031" y="-381" type="line"/>
			<point x="1031" y="870" type="line"/>
			<point x="1082" y="1030" type="line"/>
			<point x="1054" y="1042" type="line"/>
			<point x="955" y="937" type="line"/>
			<point x="1020" y="960" type="line"/>
			<point x="923" y="1019"/>
			<point x="838" y="1044"/>
			<point x="710" y="1044" type="curve" smooth="yes"/>
			<point x="355" y="1044"/>
			<point x="116" y="824"/>
			<point x="116" y="477" type="curve" smooth="yes"/>
			<point x="116" y="147"/>
			<point x="269" y="-20"/>
			<point x="593" y="-20" type="curve" smooth="yes"/>
			<point x="676" y="-20"/>
			<point x="734" y="-3"/>
			<point x="1012" y="136" type="curve"/>
			<point x="1012" y="181" type="line"/>
			<point x="838" y="79"/>
			<point x="721" y="46"/>
			<point x="604" y="46" type="curve" smooth="yes"/>
			<point x="323" y="46"/>
			<point x="195" y="213"/>
		</contour>
	</outline>
	<anchor name="top" x="643" y="1024"/>
	<anchor name="bottom" x="994" y="-445"/>
</glyph>
<glyph name="r" format="2">
	<unicode hex="0072"/>
	<advance width="823"/>
	<outline>
		<contour>
			<point x="719" y="1044" type="curve" smooth="yes"/>
			<point x="644" y="1044"/>
			<point x="585" y="1024"/>
			<point x="302" y="829" type="curve"/>
			<point x="326" y="811" type="line"/>
			<point x="493" y="915"/>
			<point x="552" y="926"/>
			<point x="622" y="926" type="curve" smooth="yes"/>
			<point x="661" y="926"/>
			<point x="705" y="926"/>
			<point x="752" y="926" type="curve" smooth="yes"/>
			<point x="768" y="926"/>
			<point x="778" y="957"/>
			<point x="778" y="985" type="curve" smooth="yes"/>
			<point x="778" y="1022"/>
			<point x="760" y="1044"/>
		</contour>
		<contour>
			<point x="346" y="888" type="line"/>
			<point x="338" y="1044" type="line"/>
			<point x="321" y="1044" type="line"/>
			<point x="70" y="1006" type="line"/>
			<point x="70" y="967" type="line"/>
			<point x="144" y="956.6915422886"/>
			<point x="245" y="942.6218905473"/>
			<point x="271" y="939" type="curve"/>
			<point x="271" y="64" type="line"/>
			<point x="104" y="48" type="line"/>
			<point x="104" y="0" type="line"/>
			<point x="533" y="0" type="line"/>
			<point x="533" y="48" type="line"/>
			<point x="346" y="64" type="line"/>
		</contour>
	</outline>
	<anchor name="top" x="444" y="1024"/>
	<anchor name="bottom" x="309" y="0"/>
</glyph>
<glyph name="s" format="2">
	<unicode hex="0073"/>
	<advance width="1015"/>
	<outline>
		<contour>
			<point x="534" y="1044" type="curve" smooth="yes"/>
			<point x="268" y="1044"/>
			<point x="143" y="942"/>
			<point x="143" y="776" type="curve" smooth="yes"/>
			<point x="143" y="592"/>
			<point x="264" y="546"/>
			<point x="434" y="517" type="curve" smooth="yes"/>
			<point x="604" y="488"/>
			<point x="829" y="493"/>
			<point x="829" y="275" type="curve" smooth="yes"/>
			<point x="829" y="134"/>
			<point x="728" y="44"/>
			<point x="477" y="44" type="curve" smooth="yes"/>
			<point x="394" y="44"/>
			<point x="253" y="61"/>
			<point x="178" y="92" type="curve"/>
			<point x="247" y="44" type="line"/>
			<point x="165" y="319" type="line"/>
			<point x="116" y="319" type="line"/>
			<point x="146" y="36" type="line"/>
			<point x="229" y="0"/>
			<point x="370" y="-16"/>
			<point x="475" y="-16" type="curve" smooth="yes"/>
			<point x="770" y="-16"/>
			<point x="900" y="104"/>
			<point x="900" y="285" type="curve" smooth="yes"/>
			<point x="900" y="520"/>
			<point x="710" y="552"/>
			<point x="537" y="578" type="curve" smooth="yes"/>
			<point x="364" y="604"/>
			<point x="211" y="623"/>
			<point x="211" y="791" type="curve" smooth="yes"/>
			<point x="211" y="926"/>
			<point x="320" y="986"/>
			<point x="538" y="986" type="curve" smooth="yes"/>
			<point x="621" y="986"/>
			<point x="707" y="967"/>
			<point x="824" y="916" type="curve"/>
			<point x="739" y="975" type="line"/>
			<point x="807" y="745" type="line"/>
			<point x="856" y="745" type="line"/>
			<point x="828" y="993" type="line"/>
			<point x="749" y="1024"/>
			<point x="659" y="1044"/>
		</contour>
	</outline>
	<anchor name="top" x="508" y="1024"/>
	<anchor name="bottom" x="528" y="0"/>
</glyph>
<glyph name="t" format="2">
	<unicode hex="0074"/>
	<advance width="787"/>
	<outline>
		<contour>
			<point x="319" y="247" type="curve" smooth="yes"/>
			<point x="319" y="987" type="line"/>
			<point x="319" y="1139" type="line"/>
			<point x="273" y="1139" type="line"/>
			<point x="248" y="1041"/>
			<point x="218" y="1023"/>
			<point x="55" y="1001" type="curve"/>
			<point x="55" y="965" type="line"/>
			<point x="244" y="951" type="line"/>
			<point x="244" y="207" type="line" smooth="yes"/>
			<point x="244" y="58"/>
			<point x="345" y="-10"/>
			<point x="473" y="-10" type="curve" smooth="yes"/>
			<point x="546" y="-10"/>
			<point x="587" y="-7"/>
			<point x="750" y="38" type="curve"/>
			<point x="750" y="91" type="line"/>
			<point x="652" y="70"/>
			<point x="577" y="60"/>
			<point x="526" y="60" type="curve" smooth="yes"/>
			<point x="366" y="60"/>
			<point x="319" y="113"/>
		</contour>
		<contour>
			<point x="274" y="958" type="line"/>
			<point x="736" y="958" type="line"/>
			<point x="736" y="1024" type="line"/>
			<point x="274" y="1024" type="line"/>
		</contour>
	</outline>
	<anchor name="right" x="339" y="1535"/>
	<anchor name="bottom" x="492" y="0"/>
</glyph>
<glyph name="u" format="2">
	<unicode hex="0075"/>
	<advance width="1330"/>
	<outline>
		<contour>
			<point x="329" y="338" type="curve" smooth="yes"/>
			<point x="329" y="951" type="line"/>
			<point x="343" y="1037" type="line"/>
			<point x="25" y="1024" type="line"/>
			<point x="25" y="966" type="line"/>
			<point x="254" y="951" type="line"/>
			<point x="254" y="281" type="line" smooth="yes"/>
			<point x="254" y="76"/>
			<point x="338" y="-20"/>
			<point x="568" y="-20" type="curve" smooth="yes"/>
			<point x="704" y="-20"/>
			<point x="800" y="13"/>
			<point x="1000" y="133" type="curve"/>
			<point x="1000" y="172" type="line"/>
			<point x="840" y="87"/>
			<point x="738" y="59"/>
			<point x="616" y="59" type="curve" smooth="yes"/>
			<point x="391" y="59"/>
			<point x="329" y="123"/>
		</contour>
		<contour>
			<point x="999" y="-14" type="line"/>
			<point x="1020" y="-14" type="line"/>
			<point x="1305" y="25" type="line"/>
			<point x="1305" y="64" type="line"/>
			<point x="1263" y="67.8024691358"/>
			<point x="1086" y="83.8271604938"/>
			<point x="1062" y="86" type="curve"/>
			<point x="1062" y="951" type="line"/>
			<point x="1076" y="1037" type="line"/>
			<point x="758" y="1024" type="line"/>
			<point x="758" y="966" type="line"/>
			<point x="987" y="951" type="line"/>
			<point x="987" y="135" type="line"/>
		</contour>
	</outline>
	<anchor name="top" x="635" y="1024"/>
	<anchor name="right" x="1125" y="0"/>
	<anchor name="bottom" x="665" y="0"/>
	<anchor name="horn" x="1035" y="1024"/>
</glyph>
<glyph name="v" format="2">
	<unicode hex="0076"/>
	<advance width="1345"/>
	<outline>
		<contour>
			<point x="1136" y="961" type="line"/>
			<point x="1295" y="976" type="line"/>
			<point x="1295" y="1024" type="line"/>
			<point x="900" y="1024" type="line"/>
			<point x="900" y="976" type="line"/>
			<point x="1067" y="960" type="line"/>
			<point x="679" y="22" type="line"/>
			<point x="697" y="22" type="line"/>
			<point x="275" y="961" type="line"/>
			<point x="436" y="976" type="line"/>
			<point x="436" y="1024" type="line"/>
			<point x="33" y="1024" type="line"/>
			<point x="33" y="986" type="line"/>
			<point x="193" y="961" type="line"/>
			<point x="641" y="-20" type="line"/>
			<point x="720" y="-20" type="line"/>
		</contour>
	</outline>
	<anchor name="top" x="684" y="1024"/>
	<anchor name="bottom" x="684" y="0"/>
</glyph>
<glyph name="w" format="2">
	<unicode hex="0077"/>
	<advance width="1834"/>
	<outline>
		<contour>
			<point x="1564" y="960" type="line"/>
			<point x="1288" y="22" type="line"/>
			<point x="1305" y="22" type="line"/>
			<point x="968" y="1044" type="line"/>
			<point x="882" y="1044" type="line"/>
			<point x="535" y="22" type="line"/>
			<point x="551" y="22" type="line"/>
			<point x="288" y="961" type="line"/>
			<point x="449" y="976" type="line"/>
			<point x="449" y="1024" type="line"/>
			<point x="46" y="1024" type="line"/>
			<point x="46" y="986" type="line"/>
			<point x="206" y="961" type="line"/>
			<point x="491" y="-20" type="line"/>
			<point x="581" y="-20" type="line"/>
			<point x="915" y="955" type="line"/>
			<point x="916" y="955" type="line"/>
			<point x="1245" y="-20" type="line"/>
			<point x="1335" y="-20" type="line"/>
			<point x="1633" y="961" type="line"/>
			<point x="1792" y="976" type="line"/>
			<point x="1792" y="1024" type="line"/>
			<point x="1397" y="1024" type="line"/>
			<point x="1397" y="976" type="line"/>
		</contour>
	</outline>
	<anchor name="top" x="919" y="1024"/>
	<anchor name="bottom" x="919" y="0"/>
</glyph>
<glyph name="x" format="2">
	<unicode hex="0078"/>
	<advance width="1307"/>
	<outline>
		<contour>
			<point x="1106" y="63" type="line"/>
			<point x="686" y="549" type="line"/>
			<point x="667" y="570" type="line"/>
			<point x="332" y="961" type="line"/>
			<point x="493" y="976" type="line"/>
			<point x="493" y="1024" type="line"/>
			<point x="75" y="1024" type="line"/>
			<point x="75" y="976" type="line"/>
			<point x="235" y="961" type="line"/>
			<point x="617" y="516" type="line"/>
			<point x="636" y="495" type="line"/>
			<point x="1009" y="63" type="line"/>
			<point x="848" y="48" type="line"/>
			<point x="848" y="0" type="line"/>
			<point x="1266" y="0" type="line"/>
			<point x="1266" y="48" type="line"/>
		</contour>
		<contour>
			<point x="659" y="505" type="line"/>
			<point x="683" y="524" type="line"/>
			<point x="1076" y="961" type="line"/>
			<point x="1229" y="976" type="line"/>
			<point x="1229" y="1024" type="line"/>
			<point x="834" y="1024" type="line"/>
			<point x="834" y="976" type="line"/>
			<point x="996" y="960" type="line"/>
			<point x="648" y="565" type="line"/>
			<point x="623" y="544" type="line"/>
			<point x="211" y="64" type="line"/>
			<point x="44" y="48" type="line"/>
			<point x="44" y="0" type="line"/>
			<point x="453" y="0" type="line"/>
			<point x="453" y="48" type="line"/>
			<point x="286" y="64" type="line"/>
		</contour>
	</outline>
	<anchor name="top" x="669" y="1024"/>
	<anchor name="bottom" x="665" y="0"/>
</glyph>
<glyph name="y" format="2">
	<unicode hex="0079"/>
	<advance width="1341"/>
	<outline>
		<contour>
			<point x="711" y="22" type="line"/>
			<point x="278" y="961" type="line"/>
			<point x="439" y="976" type="line"/>
			<point x="439" y="1024" type="line"/>
			<point x="36" y="1024" type="line"/>
			<point x="36" y="986" type="line"/>
			<point x="196" y="961" type="line"/>
			<point x="670" y="-53" type="line"/>
		</contour>
		<contour>
			<point x="357" y="-465" type="curve" smooth="yes"/>
			<point x="483" y="-465"/>
			<point x="566" y="-411"/>
			<point x="649" y="-212" type="curve" smooth="yes"/>
			<point x="1139" y="961" type="line"/>
			<point x="1298" y="976" type="line"/>
			<point x="1298" y="1024" type="line"/>
			<point x="899" y="1024" type="line"/>
			<point x="899" y="976" type="line"/>
			<point x="1066" y="960" type="line"/>
			<point x="691" y="16" type="line"/>
			<point x="675" y="-12" type="line"/>
			<point x="603" y="-167" type="line" smooth="yes"/>
			<point x="541" y="-301"/>
			<point x="482" y="-351"/>
			<point x="381" y="-351" type="curve" smooth="yes"/>
			<point x="359" y="-351"/>
			<point x="273" y="-342"/>
			<point x="262" y="-342" type="curve" smooth="yes"/>
			<point x="250" y="-342"/>
			<point x="241" y="-365"/>
			<point x="241" y="-387" type="curve" smooth="yes"/>
			<point x="241" y="-439"/>
			<point x="267" y="-465"/>
		</contour>
	</outline>
	<anchor name="top" x="677" y="1024"/>
	<anchor name="bottom" x="821" y="-150"/>
</glyph>
<glyph name="z" format="2">
	<unicode hex="007A"/>
	<advance width="1067"/>
	<outline>
		<contour>
			<point x="107" y="0" type="line"/>
			<point x="909" y="0" type="line"/>
			<point x="990" y="333" type="line"/>
			<point x="942" y="333" type="line"/>
			<point x="808" y="28" type="line"/>
			<point x="849" y="56" type="line"/>
			<point x="155" y="56" type="line"/>
			<point x="175" y="27" type="line"/>
			<point x="954" y="971" type="line"/>
			<point x="954" y="1024" type="line"/>
			<point x="233" y="1024" type="line"/>
			<point x="181" y="1044" type="line"/>
			<point x="141" y="1044" type="line"/>
			<point x="111" y="718" type="line"/>
			<point x="160" y="718" type="line"/>
			<point x="245" y="994" type="line"/>
			<point x="189" y="968" type="line"/>
			<point x="903" y="968" type="line"/>
			<point x="885" y="994" type="line"/>
			<point x="107" y="53" type="line"/>
		</contour>
	</outline>
	<anchor name="top" x="562" y="1024"/>
	<anchor name="bottom" x="543" y="0"/>
</glyph>
<glyph name="braceleft" format="2">
	<unicode hex="007B"/>
	<advance width="683"/>
	<outline>
		<contour>
			<point x="79" y="592" type="line"/>
			<point x="153" y="592" type="line" smooth="yes"/>
			<point x="260" y="592"/>
			<point x="313" y="536"/>
			<point x="313" y="443" type="curve" smooth="yes"/>
			<point x="313" y="274"/>
			<point x="260" y="173"/>
			<point x="260" y="52" type="curve" smooth="yes"/>
			<point x="260" y="-76"/>
			<point x="318" y="-217"/>
			<point x="525" y="-236" type="curve" smooth="yes"/>
			<point x="591" y="-242" type="line"/>
			<point x="598" y="-191" type="line"/>
			<point x="526" y="-183" type="line" smooth="yes"/>
			<point x="378" y="-167"/>
			<point x="340" y="-78"/>
			<point x="340" y="36" type="curve" smooth="yes"/>
			<point x="340" y="143"/>
			<point x="382" y="273"/>
			<point x="382" y="416" type="curve" smooth="yes"/>
			<point x="382" y="548"/>
			<point x="318" y="622"/>
			<point x="175" y="631" type="curve"/>
			<point x="175" y="611" type="line"/>
			<point x="318" y="620"/>
			<point x="382" y="694"/>
			<point x="382" y="826" type="curve" smooth="yes"/>
			<point x="382" y="969"/>
			<point x="340" y="1099"/>
			<point x="340" y="1206" type="curve" smooth="yes"/>
			<point x="340" y="1320"/>
			<point x="378" y="1409"/>
			<point x="526" y="1425" type="curve" smooth="yes"/>
			<point x="598" y="1433" type="line"/>
			<point x="591" y="1484" type="line"/>
			<point x="525" y="1478" type="line" smooth="yes"/>
			<point x="318" y="1459"/>
			<point x="260" y="1318"/>
			<point x="260" y="1190" type="curve" smooth="yes"/>
			<point x="260" y="1069"/>
			<point x="313" y="968"/>
			<point x="313" y="799" type="curve" smooth="yes"/>
			<point x="313" y="706"/>
			<point x="260" y="650"/>
			<point x="153" y="650" type="curve" smooth="yes"/>
			<point x="79" y="650" type="line"/>
		</contour>
	</outline>
</glyph>
<glyph name="bar" format="2">
	<unicode hex="007C"/>
	<advance width="550"/>
	<outline>
		<contour>
			<point x="240" y="-465" type="line"/>
			<point x="310" y="-465" type="line"/>
			<point x="310" y="1535" type="line"/>
			<point x="240" y="1535" type="line"/>
		</contour>
	</outline>
</glyph>
<glyph name="braceright" format="2">
	<unicode hex="007D"/>
	<advance width="684"/>
	<outline>
		<contour>
			<point x="604" y="651" type="line"/>
			<point x="530" y="651" type="line" smooth="yes"/>
			<point x="423" y="651"/>
			<point x="370" y="707"/>
			<point x="370" y="800" type="curve" smooth="yes"/>
			<point x="370" y="969"/>
			<point x="423" y="1070"/>
			<point x="423" y="1191" type="curve" smooth="yes"/>
			<point x="423" y="1319"/>
			<point x="365" y="1460"/>
			<point x="158" y="1479" type="curve" smooth="yes"/>
			<point x="92" y="1485" type="line"/>
			<point x="85" y="1434" type="line"/>
			<point x="157" y="1426" type="line" smooth="yes"/>
			<point x="305" y="1410"/>
			<point x="343" y="1321"/>
			<point x="343" y="1207" type="curve" smooth="yes"/>
			<point x="343" y="1100"/>
			<point x="301" y="970"/>
			<point x="301" y="827" type="curve" smooth="yes"/>
			<point x="301" y="695"/>
			<point x="365" y="621"/>
			<point x="508" y="612" type="curve"/>
			<point x="508" y="632" type="line"/>
			<point x="365" y="623"/>
			<point x="301" y="549"/>
			<point x="301" y="417" type="curve" smooth="yes"/>
			<point x="301" y="274"/>
			<point x="343" y="144"/>
			<point x="343" y="37" type="curve" smooth="yes"/>
			<point x="343" y="-77"/>
			<point x="305" y="-166"/>
			<point x="157" y="-182" type="curve" smooth="yes"/>
			<point x="85" y="-190" type="line"/>
			<point x="92" y="-241" type="line"/>
			<point x="158" y="-235" type="line" smooth="yes"/>
			<point x="365" y="-216"/>
			<point x="423" y="-75"/>
			<point x="423" y="53" type="curve" smooth="yes"/>
			<point x="423" y="174"/>
			<point x="370" y="275"/>
			<point x="370" y="444" type="curve" smooth="yes"/>
			<point x="370" y="537"/>
			<point x="423" y="593"/>
			<point x="530" y="593" type="curve" smooth="yes"/>
			<point x="604" y="593" type="line"/>
		</contour>
	</outline>
</glyph>
<glyph name="asciitilde" format="2">
	<unicode hex="007E"/>
	<advance width="1140"/>
	<outline>
		<contour>
			<point x="157" y="396" type="curve"/>
			<point x="225" y="396" type="line"/>
			<point x="238" y="512"/>
			<point x="278" y="568"/>
			<point x="383" y="568" type="curve" smooth="yes"/>
			<point x="528" y="568"/>
			<point x="579" y="388"/>
			<point x="756" y="388" type="curve" smooth="yes"/>
			<point x="869" y="388"/>
			<point x="975" y="440"/>
			<point x="983" y="628" type="curve"/>
			<point x="915" y="628" type="line"/>
			<point x="902" y="512"/>
			<point x="862" y="456"/>
			<point x="757" y="456" type="curve" smooth="yes"/>
			<point x="612" y="456"/>
			<point x="561" y="636"/>
			<point x="384" y="636" type="curve" smooth="yes"/>
			<point x="271" y="636"/>
			<point x="165" y="584"/>
		</contour>
	</outline>
</glyph>
<glyph name="exclamdown" format="2">
	<unicode hex="00A1"/>
	<advance width="548"/>
	<outline>
		<contour>
			<point x="227" y="-390" type="line" smooth="yes"/>
			<point x="227" y="-404"/>
			<point x="251" y="-410"/>
			<point x="274" y="-410" type="curve" smooth="yes"/>
			<point x="297" y="-410"/>
			<point x="321" y="-404"/>
			<point x="321" y="-390" type="curve" smooth="yes"/>
			<point x="321" y="-323" type="line" smooth="yes"/>
			<point x="321" y="-188"/>
			<point x="307.7728706625" y="276"/>
			<point x="300" y="628" type="curve"/>
			<point x="248" y="628" type="line"/>
			<point x="240.2271293375" y="276"/>
			<point x="227" y="-188"/>
			<point x="227" y="-323" type="curve" smooth="yes"/>
		</contour>
		<contour>
			<point x="274" y="840" type="curve" smooth="yes"/>
			<point x="336" y="840"/>
			<point x="377" y="871"/>
			<point x="377" y="939" type="curve" smooth="yes"/>
			<point x="377" y="1007"/>
			<point x="336" y="1038"/>
			<point x="274" y="1038" type="curve" smooth="yes"/>
			<point x="212" y="1038"/>
			<point x="171" y="1007"/>
			<point x="171" y="939" type="curve" smooth="yes"/>
			<point x="171" y="871"/>
			<point x="212" y="840"/>
		</contour>
	</outline>
</glyph>
<glyph name="currency" format="2">
	<unicode hex="00A4"/>
	<advance width="1026"/>
	<outline>
		<contour>
			<point x="211" y="861" type="line"/>
			<point x="164" y="814" type="line"/>
			<point x="289" y="689" type="line"/>
			<point x="336" y="736" type="line"/>
		</contour>
		<contour>
			<point x="164" y="210" type="line"/>
			<point x="211" y="163" type="line"/>
			<point x="336" y="288" type="line"/>
			<point x="289" y="335" type="line"/>
		</contour>
		<contour>
			<point x="513" y="808" type="curve" smooth="yes"/>
			<point x="340" y="808"/>
			<point x="216" y="685"/>
			<point x="216" y="512" type="curve" smooth="yes"/>
			<point x="216" y="339"/>
			<point x="340" y="216"/>
			<point x="513" y="216" type="curve" smooth="yes"/>
			<point x="686" y="216"/>
			<point x="810" y="339"/>
			<point x="810" y="512" type="curve" smooth="yes"/>
			<point x="810" y="685"/>
			<point x="686" y="808"/>
		</contour>
		<contour>
			<point x="513" y="280" type="curve" smooth="yes"/>
			<point x="380" y="280"/>
			<point x="284" y="373"/>
			<point x="284" y="512" type="curve" smooth="yes"/>
			<point x="284" y="651"/>
			<point x="380" y="744"/>
			<point x="513" y="744" type="curve" smooth="yes"/>
			<point x="646" y="744"/>
			<point x="742" y="651"/>
			<point x="742" y="512" type="curve" smooth="yes"/>
			<point x="742" y="373"/>
			<point x="646" y="280"/>
		</contour>
		<contour>
			<point x="862" y="814" type="line"/>
			<point x="815" y="861" type="line"/>
			<point x="690" y="736" type="line"/>
			<point x="737" y="689" type="line"/>
		</contour>
		<contour>
			<point x="862" y="210" type="line"/>
			<point x="737" y="335" type="line"/>
			<point x="690" y="288" type="line"/>
			<point x="815" y="163" type="line"/>
		</contour>
	</outline>
</glyph>
<glyph name="brokenbar" format="2">
	<unicode hex="00A6"/>
	<advance width="550"/>
	<outline>
		<contour>
			<point x="310" y="775" type="line"/>
			<point x="310" y="1535" type="line"/>
			<point x="240" y="1535" type="line"/>
			<point x="240" y="775" type="line"/>
		</contour>
		<contour>
			<point x="240" y="-465" type="line"/>
			<point x="310" y="-465" type="line"/>
			<point x="310" y="295" type="line"/>
			<point x="240" y="295" type="line"/>
		</contour>
	</outline>
</glyph>
<glyph name="section" format="2">
	<unicode hex="00A7"/>
	<advance width="1136"/>
	<outline>
		<contour>
			<point x="505" y="-243" type="curve" smooth="yes"/>
			<point x="781" y="-243"/>
			<point x="910" y="-119"/>
			<point x="910" y="46" type="curve" smooth="yes"/>
			<point x="910" y="458"/>
			<point x="178" y="220"/>
			<point x="178" y="593" type="curve" smooth="yes"/>
			<point x="178" y="766"/>
			<point x="306" y="869"/>
			<point x="580" y="869" type="curve"/>
			<point x="580" y="898" type="line"/>
			<point x="266" y="898"/>
			<point x="106" y="786"/>
			<point x="106" y="583" type="curve" smooth="yes"/>
			<point x="106" y="150"/>
			<point x="837" y="381"/>
			<point x="837" y="33" type="curve" smooth="yes"/>
			<point x="837" y="-86"/>
			<point x="752" y="-183"/>
			<point x="525" y="-183" type="curve" smooth="yes"/>
			<point x="328" y="-183"/>
			<point x="255" y="-68"/>
			<point x="237" y="-68" type="curve" smooth="yes"/>
			<point x="205" y="-68"/>
			<point x="180" y="-91"/>
			<point x="180" y="-125" type="curve" smooth="yes"/>
			<point x="180" y="-182"/>
			<point x="262" y="-243"/>
		</contour>
		<contour>
			<point x="958" y="598" type="curve" smooth="yes"/>
			<point x="958" y="425"/>
			<point x="830" y="322"/>
			<point x="556" y="322" type="curve"/>
			<point x="556" y="293" type="line"/>
			<point x="870" y="293"/>
			<point x="1030" y="405"/>
			<point x="1030" y="608" type="curve" smooth="yes"/>
			<point x="1030" y="1041"/>
			<point x="299" y="810"/>
			<point x="299" y="1158" type="curve" smooth="yes"/>
			<point x="299" y="1277"/>
			<point x="384" y="1374"/>
			<point x="611" y="1374" type="curve" smooth="yes"/>
			<point x="808" y="1374"/>
			<point x="881" y="1259"/>
			<point x="899" y="1259" type="curve" smooth="yes"/>
			<point x="931" y="1259"/>
			<point x="956" y="1282"/>
			<point x="956" y="1316" type="curve" smooth="yes"/>
			<point x="956" y="1373"/>
			<point x="874" y="1434"/>
			<point x="631" y="1434" type="curve" smooth="yes"/>
			<point x="355" y="1434"/>
			<point x="226" y="1310"/>
			<point x="226" y="1145" type="curve" smooth="yes"/>
			<point x="226" y="733"/>
			<point x="958" y="971"/>
		</contour>
	</outline>
</glyph>
<glyph name="copyright" format="2">
	<unicode hex="00A9"/>
	<advance width="1738"/>
	<outline>
		<contour>
			<point x="865" y="1434" type="curve" smooth="yes"/>
			<point x="421" y="1434"/>
			<point x="135" y="1168"/>
			<point x="135" y="709" type="curve" smooth="yes"/>
			<point x="135" y="247"/>
			<point x="421" y="-20"/>
			<point x="865" y="-20" type="curve" smooth="yes"/>
			<point x="1309" y="-20"/>
			<point x="1604" y="247"/>
			<point x="1604" y="709" type="curve" smooth="yes"/>
			<point x="1604" y="1168"/>
			<point x="1309" y="1434"/>
		</contour>
		<contour>
			<point x="865" y="1376" type="curve" smooth="yes"/>
			<point x="1280" y="1376"/>
			<point x="1541" y="1144"/>
			<point x="1541" y="709" type="curve" smooth="yes"/>
			<point x="1541" y="271"/>
			<point x="1280" y="40"/>
			<point x="865" y="40" type="curve" smooth="yes"/>
			<point x="450" y="40"/>
			<point x="199" y="271"/>
			<point x="199" y="709" type="curve" smooth="yes"/>
			<point x="199" y="1144"/>
			<point x="450" y="1376"/>
		</contour>
		<contour>
			<point x="926" y="368" type="curve" smooth="yes"/>
			<point x="709" y="368"/>
			<point x="568" y="470"/>
			<point x="568" y="698" type="curve" smooth="yes"/>
			<point x="568" y="947"/>
			<point x="706" y="1055"/>
			<point x="913" y="1055" type="curve" smooth="yes"/>
			<point x="1014" y="1055"/>
			<point x="1077" y="1039"/>
			<point x="1152" y="996" type="curve"/>
			<point x="1119" y="1075" type="line"/>
			<point x="1143" y="873" type="line"/>
			<point x="1192" y="873" type="line"/>
			<point x="1192" y="1140" type="line"/>
			<point x="1149" y="1140" type="line"/>
			<point x="1126" y="1069" type="line"/>
			<point x="1175" y="1075" type="line"/>
			<point x="1108" y="1106"/>
			<point x="1022" y="1123"/>
			<point x="920" y="1123" type="curve" smooth="yes"/>
			<point x="664" y="1123"/>
			<point x="491" y="976"/>
			<point x="491" y="714" type="curve" smooth="yes"/>
			<point x="491" y="427"/>
			<point x="652" y="301"/>
			<point x="925" y="301" type="curve" smooth="yes"/>
			<point x="1012" y="301"/>
			<point x="1099" y="318"/>
			<point x="1165" y="343" type="curve"/>
			<point x="1198" y="536" type="line"/>
			<point x="1154" y="536" type="line"/>
			<point x="1086" y="333" type="line"/>
			<point x="1130" y="407" type="line"/>
			<point x="1071" y="379"/>
			<point x="984" y="368"/>
		</contour>
	</outline>
</glyph>
<glyph name="ordfeminine" format="2">
	<unicode hex="00AA"/>
	<advance width="976"/>
	<outline>
		<contour>
			<point x="174" y="546" type="line"/>
			<point x="801" y="546" type="line"/>
			<point x="801" y="612" type="line"/>
			<point x="174" y="612" type="line"/>
		</contour>
		<contour>
			<point x="656" y="1134" type="curve"/>
			<point x="658" y="1188" type="line"/>
			<point x="234" y="1127"/>
			<point x="180" y="1057"/>
			<point x="180" y="936" type="curve" smooth="yes"/>
			<point x="180" y="822"/>
			<point x="253" y="767"/>
			<point x="406" y="767" type="curve" smooth="yes"/>
			<point x="539" y="767"/>
			<point x="625" y="824"/>
			<point x="646" y="968" type="curve"/>
			<point x="639" y="965" type="line"/>
			<point x="630" y="813"/>
			<point x="665" y="775"/>
			<point x="734" y="775" type="curve" smooth="yes"/>
			<point x="774" y="775"/>
			<point x="806" y="782"/>
			<point x="842" y="796" type="curve"/>
			<point x="842" y="844" type="line"/>
			<point x="812" y="831"/>
			<point x="796" y="828"/>
			<point x="772" y="828" type="curve" smooth="yes"/>
			<point x="722" y="828"/>
			<point x="709" y="845"/>
			<point x="709" y="938" type="curve" smooth="yes"/>
			<point x="709" y="1210" type="line" smooth="yes"/>
			<point x="709" y="1362"/>
			<point x="651" y="1428"/>
			<point x="476" y="1428" type="curve" smooth="yes"/>
			<point x="331" y="1428"/>
			<point x="186" y="1342"/>
			<point x="186" y="1288" type="curve" smooth="yes"/>
			<point x="186" y="1270"/>
			<point x="200" y="1257"/>
			<point x="230" y="1257" type="curve" smooth="yes"/>
			<point x="254" y="1257"/>
			<point x="269" y="1262"/>
			<point x="282" y="1283" type="curve" smooth="yes"/>
			<point x="295" y="1304"/>
			<point x="307" y="1339"/>
			<point x="319" y="1375" type="curve"/>
			<point x="248" y="1331" type="line"/>
			<point x="332" y="1359"/>
			<point x="383" y="1371"/>
			<point x="444" y="1371" type="curve" smooth="yes"/>
			<point x="591" y="1371"/>
			<point x="639" y="1321"/>
			<point x="639" y="1198" type="curve" smooth="yes"/>
			<point x="639" y="994" type="line"/>
			<point x="639" y="893"/>
			<point x="548" y="827"/>
			<point x="418" y="827" type="curve" smooth="yes"/>
			<point x="297" y="827"/>
			<point x="253" y="863"/>
			<point x="253" y="943" type="curve" smooth="yes"/>
			<point x="253" y="1034"/>
			<point x="310" y="1088"/>
		</contour>
	</outline>
</glyph>
<glyph name="guillemotleft" format="2">
	<unicode hex="00AB"/>
	<advance width="1029"/>
	<outline>
		<contour>
			<point x="169" y="543" type="line"/>
			<point x="169" y="501" type="line"/>
			<point x="524" y="891" type="line"/>
			<point x="488" y="928" type="line"/>
			<point x="106" y="555" type="line"/>
			<point x="106" y="489" type="line"/>
			<point x="488" y="116" type="line"/>
			<point x="524" y="153" type="line"/>
		</contour>
		<contour>
			<point x="549" y="543" type="line"/>
			<point x="549" y="501" type="line"/>
			<point x="904" y="891" type="line"/>
			<point x="868" y="928" type="line"/>
			<point x="486" y="555" type="line"/>
			<point x="486" y="489" type="line"/>
			<point x="868" y="116" type="line"/>
			<point x="904" y="153" type="line"/>
		</contour>
	</outline>
</glyph>
<glyph name="logicalnot" format="2">
	<unicode hex="00AC"/>
	<advance width="1140"/>
	<outline>
		<contour>
			<point x="158" y="742" type="line"/>
			<point x="158" y="675" type="line"/>
			<point x="980" y="675" type="line"/>
			<point x="980" y="742" type="line"/>
		</contour>
		<contour>
			<point x="980" y="704" type="line"/>
			<point x="913" y="704" type="line"/>
			<point x="913" y="268" type="line"/>
			<point x="980" y="268" type="line"/>
		</contour>
	</outline>
</glyph>
<glyph name="registered" format="2">
	<unicode hex="00AE"/>
	<advance width="1131"/>
	<outline>
		<contour>
			<point x="563" y="1434" type="curve" smooth="yes"/>
			<point x="291" y="1434"/>
			<point x="134" y="1278"/>
			<point x="134" y="1008" type="curve" smooth="yes"/>
			<point x="134" y="737"/>
			<point x="291" y="580"/>
			<point x="563" y="580" type="curve" smooth="yes"/>
			<point x="838" y="580"/>
			<point x="997" y="737"/>
			<point x="997" y="1008" type="curve" smooth="yes"/>
			<point x="997" y="1278"/>
			<point x="838" y="1434"/>
		</contour>
		<contour>
			<point x="563" y="1381" type="curve" smooth="yes"/>
			<point x="811" y="1381"/>
			<point x="940" y="1253"/>
			<point x="940" y="1008" type="curve" smooth="yes"/>
			<point x="940" y="762"/>
			<point x="811" y="634"/>
			<point x="563" y="634" type="curve" smooth="yes"/>
			<point x="319" y="634"/>
			<point x="191" y="762"/>
			<point x="191" y="1008" type="curve" smooth="yes"/>
			<point x="191" y="1253"/>
			<point x="319" y="1381"/>
		</contour>
		<contour>
			<point x="462" y="1037" type="line"/>
			<point x="462" y="994" type="line"/>
			<point x="601" y="994" type="line" smooth="yes"/>
			<point x="647" y="994"/>
			<point x="665" y="990"/>
			<point x="672" y="949" type="curve" smooth="yes"/>
			<point x="686" y="869" type="line" smooth="yes"/>
			<point x="697.8761663832" y="801.1361920958"/>
			<point x="719.1781692629" y="785.4631076944"/>
			<point x="805" y="791" type="curve"/>
			<point x="805" y="831" type="line"/>
			<point x="756" y="831"/>
			<point x="749" y="839"/>
			<point x="743" y="873" type="curve" smooth="yes"/>
			<point x="730" y="948" type="line" smooth="yes"/>
			<point x="722" y="992"/>
			<point x="710" y="1017"/>
			<point x="655" y="1021" type="curve"/>
			<point x="648" y="1018" type="line"/>
			<point x="724" y="1031"/>
			<point x="751" y="1071"/>
			<point x="751" y="1127" type="curve" smooth="yes"/>
			<point x="751" y="1198"/>
			<point x="709" y="1240"/>
			<point x="573" y="1240" type="curve" smooth="yes"/>
			<point x="462" y="1240" type="line"/>
			<point x="462" y="1197" type="line"/>
			<point x="555" y="1197" type="line" smooth="yes"/>
			<point x="665" y="1197"/>
			<point x="692" y="1177"/>
			<point x="692" y="1125" type="curve" smooth="yes"/>
			<point x="692" y="1062"/>
			<point x="657" y="1037"/>
			<point x="579" y="1037" type="curve" smooth="yes"/>
		</contour>
		<contour>
			<point x="429" y="1198" type="line"/>
			<point x="429" y="833" type="line"/>
			<point x="360" y="828" type="line"/>
			<point x="360" y="791" type="line"/>
			<point x="566" y="791" type="line"/>
			<point x="566" y="828" type="line"/>
			<point x="487" y="833" type="line"/>
			<point x="487" y="1240" type="line"/>
			<point x="360" y="1240" type="line"/>
			<point x="360" y="1203" type="line"/>
		</contour>
	</outline>
</glyph>
<glyph name="degree" format="2">
	<unicode hex="00B0"/>
	<advance width="829"/>
	<outline>
		<contour>
			<point x="414" y="1434" type="curve" smooth="yes"/>
			<point x="242" y="1434"/>
			<point x="118" y="1313"/>
			<point x="118" y="1140" type="curve" smooth="yes"/>
			<point x="118" y="967"/>
			<point x="242" y="846"/>
			<point x="414" y="846" type="curve" smooth="yes"/>
			<point x="587" y="846"/>
			<point x="711" y="967"/>
			<point x="711" y="1140" type="curve" smooth="yes"/>
			<point x="711" y="1313"/>
			<point x="587" y="1434"/>
		</contour>
		<contour>
			<point x="414" y="905" type="curve" smooth="yes"/>
			<point x="280" y="905"/>
			<point x="183" y="999"/>
			<point x="183" y="1140" type="curve" smooth="yes"/>
			<point x="183" y="1281"/>
			<point x="280" y="1375"/>
			<point x="414" y="1375" type="curve" smooth="yes"/>
			<point x="549" y="1375"/>
			<point x="645" y="1281"/>
			<point x="645" y="1140" type="curve" smooth="yes"/>
			<point x="645" y="999"/>
			<point x="549" y="905"/>
		</contour>
	</outline>
</glyph>
<glyph name="plusminus" format="2">
	<unicode hex="00B1"/>
	<advance width="1140"/>
	<outline>
		<contour>
			<point x="537" y="1024" type="line"/>
			<point x="537" y="202" type="line"/>
			<point x="603" y="202" type="line"/>
			<point x="603" y="1024" type="line"/>
		</contour>
		<contour>
			<point x="159" y="646" type="line"/>
			<point x="159" y="580" type="line"/>
			<point x="981" y="580" type="line"/>
			<point x="981" y="646" type="line"/>
		</contour>
		<contour>
			<point x="159" y="66" type="line"/>
			<point x="159" y="0" type="line"/>
			<point x="981" y="0" type="line"/>
			<point x="981" y="66" type="line"/>
		</contour>
	</outline>
</glyph>
<glyph name="uni00B2" format="2">
	<unicode hex="00B2"/>
	<advance width="739"/>
	<outline>
		<contour>
			<point x="554" y="696" type="line"/>
			<point x="590" y="726" type="line"/>
			<point x="151" y="726" type="line"/>
			<point x="166" y="689" type="line"/>
			<point x="393" y="912" type="line" smooth="yes"/>
			<point x="551" y="1067"/>
			<point x="582" y="1127"/>
			<point x="582" y="1234" type="curve" smooth="yes"/>
			<point x="582" y="1354"/>
			<point x="494" y="1428"/>
			<point x="359" y="1428" type="curve" smooth="yes"/>
			<point x="200" y="1428"/>
			<point x="117" y="1335"/>
			<point x="82" y="1171" type="curve"/>
			<point x="135" y="1162" type="line"/>
			<point x="169" y="1299"/>
			<point x="229" y="1361"/>
			<point x="351" y="1361" type="curve" smooth="yes"/>
			<point x="463" y="1361"/>
			<point x="512" y="1298"/>
			<point x="512" y="1220" type="curve" smooth="yes"/>
			<point x="512" y="1141"/>
			<point x="483" y="1085"/>
			<point x="359" y="960" type="curve" smooth="yes"/>
			<point x="130" y="728" type="line"/>
			<point x="130" y="662" type="line"/>
			<point x="554" y="662" type="line"/>
			<point x="554" y="624" type="line"/>
			<point x="608" y="624" type="line"/>
			<point x="652" y="859" type="line"/>
			<point x="603" y="859" type="line"/>
		</contour>
	</outline>
</glyph>
<glyph name="uni00B3" format="2">
	<unicode hex="00B3"/>
	<advance width="717"/>
	<outline>
		<contour>
			<point x="289" y="652" type="curve" smooth="yes"/>
			<point x="496" y="652"/>
			<point x="616" y="757"/>
			<point x="616" y="908" type="curve" smooth="yes"/>
			<point x="616" y="1031"/>
			<point x="541" y="1102"/>
			<point x="378" y="1091" type="curve"/>
			<point x="370" y="1085" type="line"/>
			<point x="480" y="1096"/>
			<point x="561" y="1165"/>
			<point x="561" y="1269" type="curve" smooth="yes"/>
			<point x="561" y="1369"/>
			<point x="489" y="1434"/>
			<point x="353" y="1434" type="curve" smooth="yes"/>
			<point x="217" y="1434"/>
			<point x="139" y="1368"/>
			<point x="95" y="1240" type="curve"/>
			<point x="147" y="1220" type="line"/>
			<point x="187" y="1325"/>
			<point x="241" y="1371"/>
			<point x="349" y="1371" type="curve" smooth="yes"/>
			<point x="439" y="1371"/>
			<point x="487" y="1321"/>
			<point x="487" y="1249" type="curve" smooth="yes"/>
			<point x="487" y="1159"/>
			<point x="449" y="1103"/>
			<point x="283" y="1084" type="curve"/>
			<point x="290" y="1029" type="line"/>
			<point x="338" y="1034" type="line" smooth="yes"/>
			<point x="507" y="1052"/>
			<point x="542" y="989"/>
			<point x="542" y="902" type="curve" smooth="yes"/>
			<point x="542" y="784"/>
			<point x="460" y="709"/>
			<point x="310" y="709" type="curve" smooth="yes"/>
			<point x="203" y="709"/>
			<point x="152" y="772"/>
			<point x="144" y="772" type="curve"/>
			<point x="118" y="772"/>
			<point x="100" y="754"/>
			<point x="100" y="728" type="curve" smooth="yes"/>
			<point x="100" y="689"/>
			<point x="145" y="652"/>
		</contour>
	</outline>
</glyph>
<glyph name="uni00B5" format="2">
	<unicode hex="00B5"/>
	<advance width="1339"/>
	<outline>
		<contour>
			<point x="243" y="1024" type="line"/>
			<point x="243" y="-452" type="line"/>
			<point x="262" y="-452" type="line"/>
			<point x="346" y="-445" type="line"/>
			<point x="310" y="264" type="line"/>
			<point x="303" y="264" type="line"/>
			<point x="298" y="78"/>
			<point x="391" y="-20"/>
			<point x="557" y="-20" type="curve" smooth="yes"/>
			<point x="693" y="-20"/>
			<point x="789" y="13"/>
			<point x="989" y="133" type="curve"/>
			<point x="989" y="172" type="line"/>
			<point x="829" y="87"/>
			<point x="727" y="59"/>
			<point x="605" y="59" type="curve" smooth="yes"/>
			<point x="380" y="59"/>
			<point x="318" y="123"/>
			<point x="318" y="338" type="curve" smooth="yes"/>
			<point x="318" y="1024" type="line"/>
		</contour>
		<contour>
			<point x="1051" y="254" type="curve" smooth="yes"/>
			<point x="1051" y="1024" type="line"/>
			<point x="976" y="1024" type="line"/>
			<point x="976" y="227" type="line" smooth="yes"/>
			<point x="976" y="41"/>
			<point x="1031" y="-7"/>
			<point x="1135" y="-7" type="curve" smooth="yes"/>
			<point x="1196" y="-7"/>
			<point x="1247" y="6"/>
			<point x="1303" y="35" type="curve"/>
			<point x="1303" y="89" type="line"/>
			<point x="1250" y="63"/>
			<point x="1219" y="55"/>
			<point x="1178" y="55" type="curve" smooth="yes"/>
			<point x="1079" y="55"/>
			<point x="1051" y="87"/>
		</contour>
	</outline>
</glyph>
<glyph name="paragraph" format="2">
	<unicode hex="00B6"/>
	<advance width="1349"/>
	<outline>
		<contour>
			<point x="726" y="1414" type="line"/>
			<point x="509" y="1414" type="line" smooth="yes"/>
			<point x="173" y="1414"/>
			<point x="66" y="1301"/>
			<point x="66" y="1081" type="curve" smooth="yes"/>
			<point x="66" y="853"/>
			<point x="188" y="738"/>
			<point x="441" y="738" type="curve" smooth="yes"/>
			<point x="726" y="738" type="line"/>
		</contour>
		<contour>
			<point x="759" y="-223" type="line"/>
			<point x="759" y="1349" type="line"/>
			<point x="1000" y="1349" type="line"/>
			<point x="1000" y="1414" type="line"/>
			<point x="689" y="1414" type="line"/>
			<point x="689" y="-223" type="line"/>
		</contour>
		<contour>
			<point x="1039" y="-223" type="line"/>
			<point x="1039" y="1347" type="line"/>
			<point x="1260" y="1363" type="line"/>
			<point x="1260" y="1414" type="line"/>
			<point x="969" y="1414" type="line"/>
			<point x="969" y="-223" type="line"/>
		</contour>
	</outline>
</glyph>
<glyph name="uni00B9" format="2">
  <advance width="650.0"/>
  <unicode hex="00B9"/>
  <outline>
    <contour>
      <point x="340.0" y="725.0" type="line"/>
      <point x="139.0" y="709.0" type="line"/>
      <point x="139.0" y="662.0" type="line"/>
      <point x="602.0" y="662.0" type="line"/>
      <point x="602.0" y="709.0" type="line"/>
      <point x="411.0" y="725.0" type="line"/>
      <point x="411.0" y="1428.0" type="line"/>
      <point x="350.0" y="1428.0" type="line"/>
      <point x="69.0" y="1278.0" type="line"/>
      <point x="90.0" y="1232.0" type="line"/>
      <point x="351.0" y="1353.0" type="line"/>
      <point x="340.0" y="1360.0" type="line"/>
    </contour>
  </outline>
</glyph>
<glyph name="ordmasculine" format="2">
	<unicode hex="00BA"/>
	<advance width="1003"/>
	<outline>
		<contour>
			<point x="188" y="546" type="line"/>
			<point x="815" y="546" type="line"/>
			<point x="815" y="612" type="line"/>
			<point x="188" y="612" type="line"/>
		</contour>
		<contour>
			<point x="495" y="832" type="curve" smooth="yes"/>
			<point x="328" y="832"/>
			<point x="241" y="942.1868131868"/>
			<point x="241" y="1103" type="curve" smooth="yes"/>
			<point x="241" y="1275.6768060837"/>
			<point x="343" y="1364"/>
			<point x="508" y="1364" type="curve" smooth="yes"/>
			<point x="675" y="1364"/>
			<point x="762" y="1253.8131868132"/>
			<point x="762" y="1093" type="curve" smooth="yes"/>
			<point x="762" y="920.3231939163"/>
			<point x="660" y="832"/>
		</contour>
		<contour>
			<point x="498" y="768" type="curve" smooth="yes"/>
			<point x="710" y="768"/>
			<point x="835" y="880"/>
			<point x="835" y="1097" type="curve" smooth="yes"/>
			<point x="835" y="1308"/>
			<point x="702" y="1428"/>
			<point x="505" y="1428" type="curve" smooth="yes"/>
			<point x="293" y="1428"/>
			<point x="168" y="1316"/>
			<point x="168" y="1099" type="curve" smooth="yes"/>
			<point x="168" y="888"/>
			<point x="301" y="768"/>
		</contour>
	</outline>
</glyph>
<glyph name="guillemotright" format="2">
	<unicode hex="00BB"/>
	<advance width="1050"/>
	<outline>
		<contour>
			<point x="487" y="501" type="line"/>
			<point x="487" y="543" type="line"/>
			<point x="132" y="153" type="line"/>
			<point x="168" y="116" type="line"/>
			<point x="550" y="489" type="line"/>
			<point x="550" y="555" type="line"/>
			<point x="168" y="928" type="line"/>
			<point x="132" y="891" type="line"/>
		</contour>
		<contour>
			<point x="867" y="501" type="line"/>
			<point x="867" y="543" type="line"/>
			<point x="512" y="153" type="line"/>
			<point x="548" y="116" type="line"/>
			<point x="930" y="489" type="line"/>
			<point x="930" y="555" type="line"/>
			<point x="548" y="928" type="line"/>
			<point x="512" y="891" type="line"/>
		</contour>
	</outline>
</glyph>
<glyph name="questiondown" format="2">
	<unicode hex="00BF"/>
	<advance width="979"/>
	<outline>
		<contour>
			<point x="598" y="-410" type="curve" smooth="yes"/>
			<point x="844" y="-410"/>
			<point x="921" y="-353"/>
			<point x="921" y="-294" type="curve" smooth="yes"/>
			<point x="921" y="-248"/>
			<point x="894" y="-226"/>
			<point x="852" y="-226" type="curve" smooth="yes"/>
			<point x="818" y="-226"/>
			<point x="789" y="-351"/>
			<point x="571" y="-351" type="curve" smooth="yes"/>
			<point x="303" y="-351"/>
			<point x="172" y="-191"/>
			<point x="172" y="-19" type="curve" smooth="yes"/>
			<point x="172" y="153"/>
			<point x="270" y="251"/>
			<point x="600" y="261" type="curve"/>
			<point x="571" y="628" type="line"/>
			<point x="530" y="628" type="line"/>
			<point x="530" y="290" type="line"/>
			<point x="568" y="343" type="line"/>
			<point x="229" y="327"/>
			<point x="107" y="213"/>
			<point x="107" y="-17" type="curve" smooth="yes"/>
			<point x="107" y="-218"/>
			<point x="263" y="-410"/>
		</contour>
		<contour>
			<point x="551" y="840" type="curve" smooth="yes"/>
			<point x="613" y="840"/>
			<point x="654" y="871"/>
			<point x="654" y="939" type="curve" smooth="yes"/>
			<point x="654" y="1007"/>
			<point x="613" y="1038"/>
			<point x="551" y="1038" type="curve" smooth="yes"/>
			<point x="489" y="1038"/>
			<point x="448" y="1007"/>
			<point x="448" y="939" type="curve" smooth="yes"/>
			<point x="448" y="871"/>
			<point x="489" y="840"/>
		</contour>
	</outline>
</glyph>
<glyph name="AE" format="2">
	<unicode hex="00C6"/>
	<advance width="2234"/>
	<outline>
		<contour>
			<point x="549" y="520" type="line"/>
			<point x="1136" y="520" type="line"/>
			<point x="1136" y="588" type="line"/>
			<point x="549" y="588" type="line"/>
		</contour>
		<contour>
			<point x="1079" y="1414" type="line"/>
			<point x="200" y="67" type="line"/>
			<point x="4" y="51" type="line"/>
			<point x="4" y="0" type="line"/>
			<point x="480" y="0" type="line"/>
			<point x="480" y="51" type="line"/>
			<point x="276" y="66" type="line"/>
			<point x="1128" y="1372" type="line"/>
			<point x="1128" y="1414" type="line"/>
		</contour>
		<contour>
			<point x="804" y="1363" type="line"/>
			<point x="1086" y="1341" type="line"/>
			<point x="1086" y="1414" type="line"/>
			<point x="804" y="1414" type="line"/>
		</contour>
		<contour>
			<point x="1753" y="988" type="line"/>
			<point x="1703" y="988" type="line"/>
			<point x="1672" y="768" type="line"/>
			<point x="1181" y="768" type="line"/>
			<point x="1181" y="700" type="line"/>
			<point x="1672" y="700" type="line"/>
			<point x="1703" y="477" type="line"/>
			<point x="1753" y="477" type="line"/>
			<point x="1753" y="732" type="line"/>
		</contour>
		<contour>
			<point x="2072" y="1068" type="line"/>
			<point x="2079" y="1484" type="line"/>
			<point x="2031" y="1484" type="line"/>
			<point x="1991" y="1414" type="line"/>
			<point x="1126" y="1414" type="line"/>
			<point x="1126" y="1346" type="line"/>
			<point x="2026" y="1346" type="line"/>
			<point x="1981" y="1402" type="line"/>
			<point x="2011" y="1068" type="line"/>
		</contour>
		<contour>
			<point x="1976" y="42" type="line"/>
			<point x="2045" y="68" type="line"/>
			<point x="1126" y="68" type="line"/>
			<point x="1126" y="0" type="line"/>
			<point x="1982" y="0" type="line"/>
			<point x="1995" y="-72" type="line"/>
			<point x="2061" y="-72" type="line"/>
			<point x="2133" y="380" type="line"/>
			<point x="2074" y="380" type="line"/>
		</contour>
		<contour>
			<point x="895" y="0" type="line"/>
			<point x="1196" y="0" type="line"/>
			<point x="1196" y="1414" type="line"/>
			<point x="1116" y="1414" type="line"/>
			<point x="1116" y="67" type="line"/>
			<point x="895" y="51" type="line"/>
		</contour>
	</outline>
	<anchor name="UCtop" x="1156" y="1414"/>
	<anchor name="bottom" x="1068" y="0"/>
</glyph>
<glyph name="Ccedilla" format="2">
	<unicode hex="00C7"/>
	<advance width="1478"/>
	<outline>
		<contour>
			<point x="891" y="48" type="curve" smooth="yes"/>
			<point x="487" y="48"/>
			<point x="223" y="241"/>
			<point x="223" y="681" type="curve" smooth="yes"/>
			<point x="223" y="1158"/>
			<point x="482" y="1364"/>
			<point x="866" y="1364" type="curve" smooth="yes"/>
			<point x="1028" y="1364"/>
			<point x="1149" y="1332"/>
			<point x="1312" y="1239" type="curve"/>
			<point x="1243" y="1348" type="line"/>
			<point x="1284" y="991" type="line"/>
			<point x="1342" y="991" type="line"/>
			<point x="1342" y="1464" type="line"/>
			<point x="1294" y="1464" type="line"/>
			<point x="1255" y="1337" type="line"/>
			<point x="1313" y="1349" type="line"/>
			<point x="1198" y="1403"/>
			<point x="1051" y="1434"/>
			<point x="874" y="1434" type="curve" smooth="yes"/>
			<point x="433" y="1434"/>
			<point x="135" y="1174"/>
			<point x="135" y="710" type="curve" smooth="yes"/>
			<point x="135" y="202"/>
			<point x="413" y="-20"/>
			<point x="897" y="-20" type="curve" smooth="yes"/>
			<point x="1033" y="-20"/>
			<point x="1182" y="10"/>
			<point x="1296" y="55" type="curve"/>
			<point x="1353" y="395" type="line"/>
			<point x="1295" y="395" type="line"/>
			<point x="1185" y="36" type="line"/>
			<point x="1271" y="121" type="line"/>
			<point x="1162" y="69"/>
			<point x="1001" y="48"/>
		</contour>
		<contour>
			<point x="768" y="-465" type="curve" smooth="yes"/>
			<point x="900" y="-465"/>
			<point x="973" y="-391"/>
			<point x="973" y="-299" type="curve" smooth="yes"/>
			<point x="973" y="-227"/>
			<point x="937" y="-173"/>
			<point x="766" y="-129" type="curve"/>
			<point x="780" y="-155" type="line"/>
			<point x="881" y="0" type="line"/>
			<point x="822" y="0" type="line"/>
			<point x="699" y="-187" type="line"/>
			<point x="699" y="-191" type="line"/>
			<point x="880" y="-231"/>
			<point x="903" y="-264"/>
			<point x="903" y="-319" type="curve" smooth="yes"/>
			<point x="903" y="-377"/>
			<point x="863" y="-418"/>
			<point x="782" y="-418" type="curve" smooth="yes"/>
			<point x="710" y="-418"/>
			<point x="691" y="-365"/>
			<point x="682" y="-365" type="curve" smooth="yes"/>
			<point x="653" y="-365"/>
			<point x="638" y="-385"/>
			<point x="638" y="-405" type="curve" smooth="yes"/>
			<point x="638" y="-437"/>
			<point x="664" y="-465"/>
		</contour>
	</outline>
</glyph>
<glyph name="multiply" format="2">
	<unicode hex="00D7"/>
	<advance width="1140"/>
	<outline>
		<contour>
			<point x="221" y="210" type="line"/>
			<point x="268" y="163" type="line"/>
			<point x="919" y="814" type="line"/>
			<point x="872" y="861" type="line"/>
		</contour>
		<contour>
			<point x="221" y="814" type="line"/>
			<point x="872" y="163" type="line"/>
			<point x="919" y="210" type="line"/>
			<point x="268" y="861" type="line"/>
		</contour>
	</outline>
</glyph>
<glyph name="Oslash" format="2">
	<unicode hex="00D8"/>
	<advance width="1689"/>
	<outline>
		<contour>
			<point x="366" y="229" type="line"/>
			<point x="342" y="201" type="line"/>
			<point x="161" y="0" type="line"/>
			<point x="255" y="0" type="line"/>
			<point x="390" y="150" type="line"/>
			<point x="411" y="179" type="line"/>
			<point x="1323" y="1185" type="line"/>
			<point x="1347" y="1213" type="line"/>
			<point x="1528" y="1414" type="line"/>
			<point x="1434" y="1414" type="line"/>
			<point x="1299" y="1264" type="line"/>
			<point x="1278" y="1235" type="line"/>
		</contour>
		<contour>
			<point x="837" y="1434" type="curve" smooth="yes"/>
			<point x="429" y="1434"/>
			<point x="161" y="1168"/>
			<point x="161" y="707" type="curve" smooth="yes"/>
			<point x="161" y="250"/>
			<point x="412" y="-20"/>
			<point x="852" y="-20" type="curve" smooth="yes"/>
			<point x="1260" y="-20"/>
			<point x="1528" y="246"/>
			<point x="1528" y="707" type="curve" smooth="yes"/>
			<point x="1528" y="1164"/>
			<point x="1277" y="1434"/>
		</contour>
		<contour>
			<point x="853" y="50" type="curve" smooth="yes"/>
			<point x="470" y="50"/>
			<point x="245" y="274"/>
			<point x="245" y="708" type="curve" smooth="yes"/>
			<point x="245" y="1119"/>
			<point x="446" y="1364"/>
			<point x="836" y="1364" type="curve" smooth="yes"/>
			<point x="1219" y="1364"/>
			<point x="1444" y="1140"/>
			<point x="1444" y="706" type="curve" smooth="yes"/>
			<point x="1444" y="295"/>
			<point x="1243" y="50"/>
		</contour>
	</outline>
	<anchor name="UCtop" x="845" y="1414"/>
	<anchor name="bottom" x="845" y="0"/>
</glyph>
<glyph name="Thorn" format="2">
	<unicode hex="00DE"/>
	<advance width="1344"/>
	<outline>
		<contour>
			<point x="1143" y="732" type="curve" smooth="yes"/>
			<point x="1143" y="489"/>
			<point x="1020" y="387"/>
			<point x="797" y="387" type="curve" smooth="yes"/>
			<point x="369" y="387" type="line"/>
			<point x="369" y="319" type="line"/>
			<point x="779" y="319" type="line" smooth="yes"/>
			<point x="1080" y="319"/>
			<point x="1225" y="456"/>
			<point x="1225" y="727" type="curve" smooth="yes"/>
			<point x="1225" y="989"/>
			<point x="1098" y="1124"/>
			<point x="698" y="1124" type="curve" smooth="yes"/>
			<point x="358" y="1124" type="line"/>
			<point x="358" y="1056" type="line"/>
			<point x="682" y="1056" type="line" smooth="yes"/>
			<point x="1046" y="1056"/>
			<point x="1143" y="947"/>
		</contour>
		<contour>
			<point x="626" y="51" type="line"/>
			<point x="405" y="67" type="line"/>
			<point x="405" y="1347" type="line"/>
			<point x="626" y="1363" type="line"/>
			<point x="626" y="1414" type="line"/>
			<point x="104" y="1414" type="line"/>
			<point x="104" y="1363" type="line"/>
			<point x="325" y="1347" type="line"/>
			<point x="325" y="67" type="line"/>
			<point x="104" y="51" type="line"/>
			<point x="104" y="0" type="line"/>
			<point x="626" y="0" type="line"/>
		</contour>
	</outline>
</glyph>
<glyph name="germandbls" format="2">
	<unicode hex="00DF"/>
	<advance width="1388"/>
	<outline>
		<contour>
			<point x="280" y="1068" type="curve" smooth="yes"/>
			<point x="280" y="64" type="line"/>
			<point x="113" y="48" type="line"/>
			<point x="113" y="0" type="line"/>
			<point x="522" y="0" type="line"/>
			<point x="522" y="48" type="line"/>
			<point x="355" y="64" type="line"/>
			<point x="355" y="1082" type="line" smooth="yes"/>
			<point x="355" y="1325"/>
			<point x="508.8461538462" y="1425"/>
			<point x="755" y="1425" type="curve" smooth="yes"/>
			<point x="977.3630136986" y="1425"/>
			<point x="1057" y="1332"/>
			<point x="1057" y="1233" type="curve" smooth="yes"/>
			<point x="1057" y="1012"/>
			<point x="713" y="1004"/>
			<point x="713" y="774" type="curve" smooth="yes"/>
			<point x="713" y="445"/>
			<point x="1224" y="622"/>
			<point x="1224" y="284" type="curve" smooth="yes"/>
			<point x="1224" y="123"/>
			<point x="1133" y="44"/>
			<point x="935" y="44" type="curve" smooth="yes"/>
			<point x="848" y="44"/>
			<point x="752" y="61"/>
			<point x="691" y="92" type="curve"/>
			<point x="757" y="44" type="line"/>
			<point x="675" y="319" type="line"/>
			<point x="626" y="319" type="line"/>
			<point x="656" y="36" type="line"/>
			<point x="727" y="0"/>
			<point x="839" y="-16"/>
			<point x="927" y="-16" type="curve" smooth="yes"/>
			<point x="1173" y="-16"/>
			<point x="1295" y="90"/>
			<point x="1295" y="295" type="curve" smooth="yes"/>
			<point x="1295" y="682"/>
			<point x="786" y="526"/>
			<point x="786" y="784" type="curve" smooth="yes"/>
			<point x="786" y="984"/>
			<point x="1135" y="997"/>
			<point x="1135" y="1236" type="curve" smooth="yes"/>
			<point x="1135" y="1380"/>
			<point x="1019.8975069252" y="1484"/>
			<point x="764" y="1484" type="curve" smooth="yes"/>
			<point x="495.4514767932" y="1484"/>
			<point x="280" y="1365"/>
		</contour>
		<contour>
			<point x="297" y="1028" type="line"/>
			<point x="54" y="1005" type="line"/>
			<point x="54" y="972" type="line"/>
			<point x="283" y="953" type="line"/>
		</contour>
	</outline>
</glyph>
<glyph name="ae" format="2">
	<unicode hex="00E6"/>
	<advance width="1855"/>
	<outline>
		<contour>
			<point x="524" y="984" type="curve" smooth="yes"/>
			<point x="753" y="984"/>
			<point x="841" y="895"/>
			<point x="841" y="694" type="curve" smooth="yes"/>
			<point x="841" y="341" type="line" smooth="yes"/>
			<point x="841" y="163"/>
			<point x="687" y="48"/>
			<point x="478" y="48" type="curve" smooth="yes"/>
			<point x="290" y="48"/>
			<point x="213" y="115"/>
			<point x="213" y="252" type="curve" smooth="yes"/>
			<point x="213" y="400.5105105105"/>
			<point x="304.6992998868" y="482.1032773854"/>
			<point x="866" y="565" type="curve"/>
			<point x="869" y="623" type="line"/>
			<point x="217.6937122089" y="526.1032056507"/>
			<point x="132" y="428.3274559194"/>
			<point x="132" y="246" type="curve" smooth="yes"/>
			<point x="132" y="66"/>
			<point x="240" y="-20"/>
			<point x="466" y="-20" type="curve" smooth="yes"/>
			<point x="688.3160621762" y="-20"/>
			<point x="853" y="79"/>
			<point x="865" y="320" type="curve"/>
			<point x="851" y="320" type="line"/>
			<point x="912" y="88"/>
			<point x="1068.1479028698" y="-20"/>
			<point x="1315" y="-20" type="curve" smooth="yes"/>
			<point x="1468" y="-20"/>
			<point x="1563" y="2"/>
			<point x="1720" y="86" type="curve"/>
			<point x="1720" y="142" type="line"/>
			<point x="1584" y="74"/>
			<point x="1483" y="51"/>
			<point x="1345" y="51" type="curve" smooth="yes"/>
			<point x="1054" y="51"/>
			<point x="916" y="184"/>
			<point x="916" y="511" type="curve" smooth="yes"/>
			<point x="916" y="834"/>
			<point x="1080" y="985"/>
			<point x="1317" y="985" type="curve" smooth="yes"/>
			<point x="1559" y="985"/>
			<point x="1661" y="821"/>
			<point x="1655" y="573" type="curve"/>
			<point x="1706" y="622" type="line"/>
			<point x="904" y="622" type="line"/>
			<point x="914" y="558" type="line"/>
			<point x="1742" y="558" type="line"/>
			<point x="1743.8910544059" y="883.2613578105"/>
			<point x="1617" y="1044"/>
			<point x="1315" y="1044" type="curve" smooth="yes"/>
			<point x="1113" y="1044"/>
			<point x="956" y="937"/>
			<point x="883" y="756" type="curve"/>
			<point x="915" y="756" type="line"/>
			<point x="905" y="937"/>
			<point x="809" y="1042"/>
			<point x="541" y="1042" type="curve" smooth="yes"/>
			<point x="302" y="1042"/>
			<point x="141" y="915"/>
			<point x="141" y="850" type="curve" smooth="yes"/>
			<point x="141" y="825"/>
			<point x="160" y="806"/>
			<point x="207" y="806" type="curve" smooth="yes"/>
			<point x="230" y="806"/>
			<point x="256" y="814"/>
			<point x="269" y="844" type="curve" smooth="yes"/>
			<point x="282" y="874"/>
			<point x="300" y="925"/>
			<point x="316" y="975" type="curve"/>
			<point x="282" y="941" type="line"/>
			<point x="356" y="972"/>
			<point x="425" y="984"/>
		</contour>
	</outline>
	<anchor name="top" x="937" y="1024"/>
	<anchor name="bottom" x="937" y="0"/>
</glyph>
<glyph name="ccedilla" format="2">
	<unicode hex="00E7"/>
	<advance width="1089"/>
	<outline>
		<contour>
			<point x="665" y="1044" type="curve" smooth="yes"/>
			<point x="298" y="1044"/>
			<point x="116" y="822"/>
			<point x="116" y="508" type="curve" smooth="yes"/>
			<point x="116" y="144"/>
			<point x="284" y="-20"/>
			<point x="593" y="-20" type="curve" smooth="yes"/>
			<point x="746" y="-20"/>
			<point x="841" y="2"/>
			<point x="998" y="86" type="curve"/>
			<point x="998" y="142" type="line"/>
			<point x="862" y="74"/>
			<point x="761" y="51"/>
			<point x="623" y="51" type="curve" smooth="yes"/>
			<point x="332" y="51"/>
			<point x="194" y="184"/>
			<point x="194" y="511" type="curve" smooth="yes"/>
			<point x="194" y="833"/>
			<point x="376" y="980"/>
			<point x="649" y="980" type="curve" smooth="yes"/>
			<point x="825" y="980"/>
			<point x="905" y="841"/>
			<point x="917" y="841" type="curve" smooth="yes"/>
			<point x="955" y="841"/>
			<point x="992" y="870"/>
			<point x="992" y="916" type="curve" smooth="yes"/>
			<point x="992" y="964"/>
			<point x="926" y="1044"/>
		</contour>
		<contour>
			<point x="561" y="-465" type="curve" smooth="yes"/>
			<point x="693" y="-465"/>
			<point x="766" y="-391"/>
			<point x="766" y="-299" type="curve" smooth="yes"/>
			<point x="766" y="-227"/>
			<point x="730" y="-173"/>
			<point x="559" y="-129" type="curve"/>
			<point x="573" y="-155" type="line"/>
			<point x="674" y="0" type="line"/>
			<point x="615" y="0" type="line"/>
			<point x="492" y="-187" type="line"/>
			<point x="492" y="-191" type="line"/>
			<point x="673" y="-231"/>
			<point x="696" y="-264"/>
			<point x="696" y="-319" type="curve" smooth="yes"/>
			<point x="696" y="-377"/>
			<point x="656" y="-418"/>
			<point x="575" y="-418" type="curve" smooth="yes"/>
			<point x="503" y="-418"/>
			<point x="484" y="-365"/>
			<point x="475" y="-365" type="curve" smooth="yes"/>
			<point x="446" y="-365"/>
			<point x="431" y="-385"/>
			<point x="431" y="-405" type="curve" smooth="yes"/>
			<point x="431" y="-437"/>
			<point x="457" y="-465"/>
		</contour>
	</outline>
</glyph>
<glyph name="eth" format="2">
	<unicode hex="00F0"/>
	<advance width="1258"/>
	<outline>
		<contour>
			<point x="617" y="-20" type="curve" smooth="yes"/>
			<point x="939" y="-20"/>
			<point x="1130" y="155"/>
			<point x="1130" y="529" type="curve" smooth="yes"/>
			<point x="1130" y="974"/>
			<point x="944" y="1305"/>
			<point x="296" y="1464" type="curve"/>
			<point x="274" y="1411" type="line"/>
			<point x="708.0261427955" y="1307.7101246713"/>
			<point x="1022" y="1056"/>
			<point x="1050" y="632" type="curve"/>
			<point x="1062" y="632" type="line"/>
			<point x="1068" y="780"/>
			<point x="923" y="1012"/>
			<point x="629" y="1012" type="curve" smooth="yes"/>
			<point x="307" y="1012"/>
			<point x="116" y="837"/>
			<point x="116" y="498" type="curve" smooth="yes"/>
			<point x="116" y="168"/>
			<point x="317" y="-20"/>
		</contour>
		<contour>
			<point x="613" y="44" type="curve" smooth="yes"/>
			<point x="338" y="44"/>
			<point x="196" y="231"/>
			<point x="196" y="504" type="curve" smooth="yes"/>
			<point x="196" y="797"/>
			<point x="363" y="947"/>
			<point x="633" y="947" type="curve" smooth="yes"/>
			<point x="908" y="947"/>
			<point x="1050" y="761"/>
			<point x="1050" y="488" type="curve" smooth="yes"/>
			<point x="1050" y="194"/>
			<point x="883" y="44"/>
		</contour>
		<contour>
			<point x="408" y="1082" type="line"/>
			<point x="893" y="1431" type="line"/>
			<point x="856" y="1484" type="line"/>
			<point x="371" y="1135" type="line"/>
		</contour>
	</outline>
</glyph>
<glyph name="divide" format="2">
	<unicode hex="00F7"/>
	<advance width="1140"/>
	<outline>
		<contour>
			<point x="570" y="254" type="curve" smooth="yes"/>
			<point x="508" y="254"/>
			<point x="467" y="223"/>
			<point x="467" y="155" type="curve" smooth="yes"/>
			<point x="467" y="87"/>
			<point x="508" y="56"/>
			<point x="570" y="56" type="curve" smooth="yes"/>
			<point x="632" y="56"/>
			<point x="673" y="87"/>
			<point x="673" y="155" type="curve" smooth="yes"/>
			<point x="673" y="223"/>
			<point x="632" y="254"/>
		</contour>
		<contour>
			<point x="570" y="969" type="curve" smooth="yes"/>
			<point x="508" y="969"/>
			<point x="467" y="938"/>
			<point x="467" y="870" type="curve" smooth="yes"/>
			<point x="467" y="802"/>
			<point x="508" y="771"/>
			<point x="570" y="771" type="curve" smooth="yes"/>
			<point x="632" y="771"/>
			<point x="673" y="802"/>
			<point x="673" y="870" type="curve" smooth="yes"/>
			<point x="673" y="938"/>
			<point x="632" y="969"/>
		</contour>
		<contour>
			<point x="159" y="545" type="line"/>
			<point x="159" y="479" type="line"/>
			<point x="981" y="479" type="line"/>
			<point x="981" y="545" type="line"/>
		</contour>
	</outline>
</glyph>
<glyph name="oslash" format="2">
	<unicode hex="00F8"/>
	<advance width="1280"/>
	<outline>
		<contour>
			<point x="133" y="0" type="line"/>
			<point x="223" y="0" type="line"/>
			<point x="316" y="103" type="line"/>
			<point x="334" y="127" type="line"/>
			<point x="990" y="850" type="line"/>
			<point x="1012" y="875" type="line"/>
			<point x="1147" y="1024" type="line"/>
			<point x="1057" y="1024" type="line"/>
			<point x="964" y="921" type="line"/>
			<point x="946" y="896" type="line"/>
			<point x="290" y="173" type="line"/>
			<point x="268" y="149" type="line"/>
		</contour>
		<contour>
			<point x="630" y="44" type="curve" smooth="yes"/>
			<point x="355" y="44"/>
			<point x="213" y="238"/>
			<point x="213" y="520" type="curve" smooth="yes"/>
			<point x="213" y="824"/>
			<point x="380" y="980"/>
			<point x="650" y="980" type="curve" smooth="yes"/>
			<point x="925" y="980"/>
			<point x="1067" y="787"/>
			<point x="1067" y="504" type="curve" smooth="yes"/>
			<point x="1067" y="200"/>
			<point x="900" y="44"/>
		</contour>
		<contour>
			<point x="634" y="-20" type="curve" smooth="yes"/>
			<point x="956" y="-20"/>
			<point x="1147" y="160"/>
			<point x="1147" y="510" type="curve" smooth="yes"/>
			<point x="1147" y="850"/>
			<point x="946" y="1044"/>
			<point x="646" y="1044" type="curve" smooth="yes"/>
			<point x="324" y="1044"/>
			<point x="133" y="864"/>
			<point x="133" y="514" type="curve" smooth="yes"/>
			<point x="133" y="174"/>
			<point x="334" y="-20"/>
		</contour>
	</outline>
	<anchor name="top" x="640" y="1024"/>
	<anchor name="bottom" x="640" y="0"/>
</glyph>
<glyph name="thorn" format="2">
	<unicode hex="00FE"/>
	<advance width="1249"/>
	<outline>
		<contour>
			<point x="197" y="1376" type="curve"/>
			<point x="197" y="-381" type="line"/>
			<point x="30" y="-397" type="line"/>
			<point x="30" y="-445" type="line"/>
			<point x="459" y="-445" type="line"/>
			<point x="459" y="-397" type="line"/>
			<point x="272" y="-381" type="line"/>
			<point x="272" y="299" type="line"/>
			<point x="261" y="299" type="line"/>
			<point x="266" y="113"/>
			<point x="389" y="-20"/>
			<point x="631" y="-20" type="curve" smooth="yes"/>
			<point x="908" y="-20"/>
			<point x="1132" y="174"/>
			<point x="1132" y="547" type="curve" smooth="yes"/>
			<point x="1132" y="877"/>
			<point x="979" y="1044"/>
			<point x="655" y="1044" type="curve" smooth="yes"/>
			<point x="572" y="1044"/>
			<point x="514" y="1027"/>
			<point x="236" y="888" type="curve"/>
			<point x="236" y="843" type="line"/>
			<point x="410" y="945"/>
			<point x="527" y="978"/>
			<point x="644" y="978" type="curve" smooth="yes"/>
			<point x="925" y="978"/>
			<point x="1053" y="811"/>
			<point x="1053" y="552" type="curve" smooth="yes"/>
			<point x="1053" y="220"/>
			<point x="884" y="39"/>
			<point x="623" y="39" type="curve" smooth="yes"/>
			<point x="401" y="39"/>
			<point x="272" y="168"/>
			<point x="272" y="471" type="curve" smooth="yes"/>
			<point x="272" y="1391" type="line"/>
			<point x="282" y="1484" type="line"/>
			<point x="265" y="1484" type="line"/>
			<point x="-17" y="1446" type="line"/>
			<point x="-17" y="1407" type="line"/>
			<point x="61" y="1395.7009345794"/>
			<point x="171" y="1379.7663551402"/>
		</contour>
	</outline>
</glyph>
<glyph name="Aogonek" format="2">
	<unicode hex="0104"/>
	<advance width="1588"/>
	<outline>
		<contour>
			<point x="436" y="520" type="line"/>
			<point x="1123" y="520" type="line"/>
			<point x="1123" y="588" type="line"/>
			<point x="436" y="588" type="line"/>
		</contour>
		<contour>
			<point x="1380" y="66" type="line"/>
			<point x="820" y="1414" type="line"/>
			<point x="724" y="1414" type="line"/>
			<point x="218" y="67" type="line"/>
			<point x="22" y="51" type="line"/>
			<point x="22" y="0" type="line"/>
			<point x="495" y="0" type="line"/>
			<point x="495" y="51" type="line"/>
			<point x="291" y="66" type="line"/>
			<point x="778" y="1372" type="line"/>
			<point x="757" y="1372" type="line"/>
			<point x="1295" y="67" type="line"/>
			<point x="1071" y="51" type="line"/>
			<point x="1071" y="0" type="line"/>
			<point x="1581" y="0" type="line"/>
			<point x="1581" y="51" type="line"/>
		</contour>
		<contour>
			<point x="1329" y="-82" type="curve" smooth="yes"/>
			<point x="1376" y="0" type="line"/>
			<point x="1317" y="0" type="line"/>
			<point x="1248" y="-120" type="line" smooth="yes"/>
			<point x="1188" y="-224"/>
			<point x="1176" y="-271"/>
			<point x="1176" y="-334" type="curve" smooth="yes"/>
			<point x="1176" y="-403"/>
			<point x="1224" y="-465"/>
			<point x="1325" y="-465" type="curve" smooth="yes"/>
			<point x="1382" y="-465"/>
			<point x="1425" y="-456"/>
			<point x="1488" y="-411" type="curve"/>
			<point x="1488" y="-364" type="line"/>
			<point x="1435" y="-395"/>
			<point x="1404" y="-403"/>
			<point x="1364" y="-403" type="curve" smooth="yes"/>
			<point x="1296" y="-403"/>
			<point x="1256" y="-363"/>
			<point x="1256" y="-299" type="curve" smooth="yes"/>
			<point x="1256" y="-244"/>
			<point x="1264" y="-195"/>
		</contour>
	</outline>
</glyph>
<glyph name="aogonek" format="2">
	<unicode hex="0105"/>
	<advance width="1171"/>
	<outline>
		<contour>
			<point x="1168" y="35" type="line"/>
			<point x="1168" y="89" type="line"/>
			<point x="1115" y="63"/>
			<point x="1084" y="55"/>
			<point x="1043" y="55" type="curve" smooth="yes"/>
			<point x="944" y="55"/>
			<point x="916" y="87"/>
			<point x="916" y="254" type="curve" smooth="yes"/>
			<point x="916" y="728" type="line" smooth="yes"/>
			<point x="916" y="930"/>
			<point x="825" y="1042"/>
			<point x="541" y="1042" type="curve" smooth="yes"/>
			<point x="302" y="1042"/>
			<point x="141" y="915"/>
			<point x="141" y="850" type="curve" smooth="yes"/>
			<point x="141" y="825"/>
			<point x="160" y="806"/>
			<point x="207" y="806" type="curve" smooth="yes"/>
			<point x="230" y="806"/>
			<point x="256" y="814"/>
			<point x="269" y="844" type="curve" smooth="yes"/>
			<point x="282" y="874"/>
			<point x="300" y="925"/>
			<point x="316" y="975" type="curve"/>
			<point x="282" y="941" type="line"/>
			<point x="356" y="972"/>
			<point x="425" y="984"/>
			<point x="524" y="984" type="curve" smooth="yes"/>
			<point x="753" y="984"/>
			<point x="841" y="895"/>
			<point x="841" y="694" type="curve" smooth="yes"/>
			<point x="841" y="341" type="line" smooth="yes"/>
			<point x="841" y="163"/>
			<point x="687" y="48"/>
			<point x="478" y="48" type="curve" smooth="yes"/>
			<point x="290" y="48"/>
			<point x="213" y="115"/>
			<point x="213" y="252" type="curve" smooth="yes"/>
			<point x="213" y="410"/>
			<point x="304" y="502"/>
			<point x="866" y="585" type="curve"/>
			<point x="869" y="643" type="line"/>
			<point x="217" y="546"/>
			<point x="132" y="438"/>
			<point x="132" y="246" type="curve" smooth="yes"/>
			<point x="132" y="66"/>
			<point x="240" y="-20"/>
			<point x="466" y="-20" type="curve" smooth="yes"/>
			<point x="680" y="-20"/>
			<point x="820" y="72"/>
			<point x="852" y="303" type="curve"/>
			<point x="842" y="298" type="line"/>
			<point x="827" y="53"/>
			<point x="884" y="-7"/>
			<point x="1000" y="-7" type="curve" smooth="yes"/>
			<point x="1033" y="-7"/>
			<point x="1063" y="-3"/>
			<point x="1093" y="5" type="curve"/>
			<point x="1088" y="12" type="line"/>
			<point x="996" y="-97" type="line" smooth="yes"/>
			<point x="903" y="-207"/>
			<point x="883" y="-265"/>
			<point x="883" y="-324" type="curve" smooth="yes"/>
			<point x="883" y="-412"/>
			<point x="937" y="-465"/>
			<point x="1036" y="-465" type="curve" smooth="yes"/>
			<point x="1098" y="-465"/>
			<point x="1134" y="-454"/>
			<point x="1195" y="-411" type="curve"/>
			<point x="1195" y="-364" type="line"/>
			<point x="1139" y="-395"/>
			<point x="1107" y="-403"/>
			<point x="1065" y="-403" type="curve" smooth="yes"/>
			<point x="994" y="-403"/>
			<point x="963" y="-358"/>
			<point x="963" y="-296" type="curve" smooth="yes"/>
			<point x="963" y="-231"/>
			<point x="1000" y="-162"/>
			<point x="1093" y="-53" type="curve" smooth="yes"/>
		</contour>
	</outline>
</glyph>
<glyph name="Dcroat" format="2">
	<unicode hex="0110"/>
	<advance width="1602"/>
	<outline>
		<contour>
			<point x="110" y="677" type="line"/>
			<point x="776" y="677" type="line"/>
			<point x="776" y="744" type="line"/>
			<point x="110" y="744" type="line"/>
		</contour>
		<contour>
			<point x="1380" y="707" type="curve" smooth="yes"/>
			<point x="1380" y="255"/>
			<point x="1145" y="68"/>
			<point x="707" y="68" type="curve" smooth="yes"/>
			<point x="359" y="68" type="line"/>
			<point x="359" y="0" type="line"/>
			<point x="731" y="0" type="line" smooth="yes"/>
			<point x="1185" y="0"/>
			<point x="1464" y="212"/>
			<point x="1464" y="707" type="curve" smooth="yes"/>
			<point x="1464" y="1202"/>
			<point x="1185" y="1414"/>
			<point x="731" y="1414" type="curve" smooth="yes"/>
			<point x="359" y="1414" type="line"/>
			<point x="359" y="1346" type="line"/>
			<point x="707" y="1346" type="line" smooth="yes"/>
			<point x="1145" y="1346"/>
			<point x="1380" y="1159"/>
		</contour>
		<contour>
			<point x="110" y="0" type="line"/>
			<point x="411" y="0" type="line"/>
			<point x="411" y="1414" type="line"/>
			<point x="110" y="1414" type="line"/>
			<point x="110" y="1363" type="line"/>
			<point x="331" y="1347" type="line"/>
			<point x="331" y="67" type="line"/>
			<point x="110" y="51" type="line"/>
		</contour>
	</outline>
</glyph>
<glyph name="Eogonek" format="2">
	<unicode hex="0118"/>
	<advance width="1443"/>
	<outline>
		<contour>
			<point x="962" y="988" type="line"/>
			<point x="912" y="988" type="line"/>
			<point x="881" y="768" type="line"/>
			<point x="390" y="768" type="line"/>
			<point x="390" y="700" type="line"/>
			<point x="881" y="700" type="line"/>
			<point x="912" y="477" type="line"/>
			<point x="962" y="477" type="line"/>
			<point x="962" y="732" type="line"/>
		</contour>
		<contour>
			<point x="1281" y="1068" type="line"/>
			<point x="1288" y="1484" type="line"/>
			<point x="1240" y="1484" type="line"/>
			<point x="1200" y="1414" type="line"/>
			<point x="335" y="1414" type="line"/>
			<point x="335" y="1346" type="line"/>
			<point x="1235" y="1346" type="line"/>
			<point x="1190" y="1402" type="line"/>
			<point x="1220" y="1068" type="line"/>
		</contour>
		<contour>
			<point x="1185" y="42" type="line"/>
			<point x="1254" y="68" type="line"/>
			<point x="335" y="68" type="line"/>
			<point x="335" y="0" type="line"/>
			<point x="1191" y="0" type="line"/>
			<point x="1204" y="-72" type="line"/>
			<point x="1270" y="-72" type="line"/>
			<point x="1342" y="380" type="line"/>
			<point x="1283" y="380" type="line"/>
		</contour>
		<contour>
			<point x="104" y="0" type="line"/>
			<point x="405" y="0" type="line"/>
			<point x="405" y="1414" type="line"/>
			<point x="104" y="1414" type="line"/>
			<point x="104" y="1363" type="line"/>
			<point x="325" y="1347" type="line"/>
			<point x="325" y="67" type="line"/>
			<point x="104" y="51" type="line"/>
		</contour>
		<contour>
			<point x="1122" y="-82" type="curve" smooth="yes"/>
			<point x="1187" y="0" type="line"/>
			<point x="1128" y="0" type="line"/>
			<point x="1030" y="-123" type="line" smooth="yes"/>
			<point x="949" y="-225"/>
			<point x="939" y="-279"/>
			<point x="939" y="-334" type="curve" smooth="yes"/>
			<point x="939" y="-403"/>
			<point x="987" y="-465"/>
			<point x="1088" y="-465" type="curve" smooth="yes"/>
			<point x="1145" y="-465"/>
			<point x="1188" y="-456"/>
			<point x="1251" y="-411" type="curve"/>
			<point x="1251" y="-364" type="line"/>
			<point x="1198" y="-395"/>
			<point x="1167" y="-403"/>
			<point x="1127" y="-403" type="curve" smooth="yes"/>
			<point x="1059" y="-403"/>
			<point x="1019" y="-363"/>
			<point x="1019" y="-299" type="curve" smooth="yes"/>
			<point x="1019" y="-244"/>
			<point x="1041" y="-184"/>
		</contour>
	</outline>
</glyph>
<glyph name="eogonek" format="2">
	<unicode hex="0119"/>
	<advance width="1134"/>
	<outline>
		<contour>
			<point x="999" y="86" type="line"/>
			<point x="999" y="142" type="line"/>
			<point x="863" y="74"/>
			<point x="762" y="51"/>
			<point x="624" y="51" type="curve" smooth="yes"/>
			<point x="333" y="51"/>
			<point x="195" y="184"/>
			<point x="195" y="511" type="curve" smooth="yes"/>
			<point x="195" y="834"/>
			<point x="359" y="985"/>
			<point x="596" y="985" type="curve" smooth="yes"/>
			<point x="838" y="985"/>
			<point x="940" y="821"/>
			<point x="934" y="573" type="curve"/>
			<point x="985" y="594" type="line"/>
			<point x="183" y="594" type="line"/>
			<point x="193" y="530" type="line"/>
			<point x="1021" y="530" type="line"/>
			<point x="1023" y="874"/>
			<point x="896" y="1044"/>
			<point x="594" y="1044" type="curve" smooth="yes"/>
			<point x="312" y="1044"/>
			<point x="117" y="844"/>
			<point x="117" y="508" type="curve" smooth="yes"/>
			<point x="117" y="144"/>
			<point x="285" y="-20"/>
			<point x="594" y="-20" type="curve" smooth="yes"/>
			<point x="725" y="-20"/>
			<point x="814" y="-4"/>
			<point x="935" y="54" type="curve"/>
			<point x="927" y="63" type="line"/>
			<point x="833" y="-60" type="line" smooth="yes"/>
			<point x="728" y="-196"/>
			<point x="714" y="-259"/>
			<point x="714" y="-327" type="curve" smooth="yes"/>
			<point x="714" y="-412"/>
			<point x="769" y="-465"/>
			<point x="867" y="-465" type="curve" smooth="yes"/>
			<point x="930" y="-465"/>
			<point x="963" y="-454"/>
			<point x="1026" y="-411" type="curve"/>
			<point x="1026" y="-364" type="line"/>
			<point x="973" y="-395"/>
			<point x="942" y="-403"/>
			<point x="902" y="-403" type="curve" smooth="yes"/>
			<point x="825" y="-403"/>
			<point x="794" y="-364"/>
			<point x="794" y="-294" type="curve" smooth="yes"/>
			<point x="794" y="-247"/>
			<point x="817" y="-160"/>
			<point x="926" y="-13" type="curve" smooth="yes"/>
		</contour>
	</outline>
</glyph>
<glyph name="Hbar" format="2">
	<unicode hex="0126"/>
	<advance width="1698"/>
	<outline>
		<contour>
			<point x="407" y="67" type="line"/>
			<point x="407" y="1347" type="line"/>
			<point x="628" y="1363" type="line"/>
			<point x="628" y="1414" type="line"/>
			<point x="106" y="1414" type="line"/>
			<point x="106" y="1363" type="line"/>
			<point x="327" y="1347" type="line"/>
			<point x="327" y="67" type="line"/>
			<point x="106" y="51" type="line"/>
			<point x="106" y="0" type="line"/>
			<point x="628" y="0" type="line"/>
			<point x="628" y="51" type="line"/>
		</contour>
		<contour>
			<point x="1371" y="67" type="line"/>
			<point x="1371" y="1347" type="line"/>
			<point x="1592" y="1363" type="line"/>
			<point x="1592" y="1414" type="line"/>
			<point x="1070" y="1414" type="line"/>
			<point x="1070" y="1363" type="line"/>
			<point x="1291" y="1347" type="line"/>
			<point x="1291" y="67" type="line"/>
			<point x="1070" y="51" type="line"/>
			<point x="1070" y="0" type="line"/>
			<point x="1592" y="0" type="line"/>
			<point x="1592" y="51" type="line"/>
		</contour>
		<contour>
			<point x="106" y="1027" type="line"/>
			<point x="1592" y="1027" type="line"/>
			<point x="1592" y="1094" type="line"/>
			<point x="106" y="1094" type="line"/>
		</contour>
		<contour>
			<point x="355" y="696" type="line"/>
			<point x="1343" y="696" type="line"/>
			<point x="1343" y="764" type="line"/>
			<point x="355" y="764" type="line"/>
		</contour>
	</outline>
</glyph>
<glyph name="hbar" format="2">
	<unicode hex="0127"/>
	<advance width="1299"/>
	<outline>
		<contour>
			<point x="822" y="48" type="line"/>
			<point x="822" y="0" type="line"/>
			<point x="1231" y="0" type="line"/>
			<point x="1231" y="48" type="line"/>
			<point x="1064" y="64" type="line"/>
			<point x="1064" y="737" type="line" smooth="yes"/>
			<point x="1064" y="946"/>
			<point x="978" y="1044"/>
			<point x="744" y="1044" type="curve" smooth="yes"/>
			<point x="605" y="1044"/>
			<point x="507" y="1010"/>
			<point x="303" y="888" type="curve"/>
			<point x="303" y="850" type="line"/>
			<point x="466" y="937"/>
			<point x="571" y="965"/>
			<point x="696" y="965" type="curve" smooth="yes"/>
			<point x="926" y="965"/>
			<point x="989" y="900"/>
			<point x="989" y="680" type="curve" smooth="yes"/>
			<point x="989" y="64" type="line"/>
		</contour>
		<contour>
			<point x="483" y="0" type="line"/>
			<point x="483" y="48" type="line"/>
			<point x="316" y="64" type="line"/>
			<point x="316" y="1391" type="line"/>
			<point x="326" y="1484" type="line"/>
			<point x="309" y="1484" type="line"/>
			<point x="27" y="1446" type="line"/>
			<point x="27" y="1407" type="line"/>
			<point x="105" y="1395.7009345794"/>
			<point x="215" y="1379.7663551402"/>
			<point x="241" y="1376" type="curve"/>
			<point x="241" y="64" type="line"/>
			<point x="74" y="48" type="line"/>
			<point x="74" y="0" type="line"/>
		</contour>
		<contour>
			<point x="8" y="1167" type="line"/>
			<point x="654" y="1167" type="line"/>
			<point x="654" y="1234" type="line"/>
			<point x="8" y="1234" type="line"/>
		</contour>
	</outline>
</glyph>
<glyph name="Iogonek" format="2">
	<unicode hex="012E"/>
	<advance width="730"/>
	<outline>
		<contour>
			<point x="626" y="51" type="line"/>
			<point x="405" y="67" type="line"/>
			<point x="405" y="1347" type="line"/>
			<point x="626" y="1363" type="line"/>
			<point x="626" y="1414" type="line"/>
			<point x="104" y="1414" type="line"/>
			<point x="104" y="1363" type="line"/>
			<point x="325" y="1347" type="line"/>
			<point x="325" y="67" type="line"/>
			<point x="104" y="51" type="line"/>
			<point x="104" y="0" type="line"/>
			<point x="626" y="0" type="line"/>
		</contour>
		<contour>
			<point x="353" y="-80" type="curve" smooth="yes"/>
			<point x="396" y="0" type="line"/>
			<point x="337" y="0" type="line"/>
			<point x="268" y="-121" type="line" smooth="yes"/>
			<point x="213" y="-217"/>
			<point x="199" y="-270"/>
			<point x="199" y="-334" type="curve" smooth="yes"/>
			<point x="199" y="-403"/>
			<point x="247" y="-465"/>
			<point x="348" y="-465" type="curve" smooth="yes"/>
			<point x="405" y="-465"/>
			<point x="448" y="-456"/>
			<point x="511" y="-411" type="curve"/>
			<point x="511" y="-364" type="line"/>
			<point x="458" y="-395"/>
			<point x="427" y="-403"/>
			<point x="387" y="-403" type="curve" smooth="yes"/>
			<point x="319" y="-403"/>
			<point x="279" y="-363"/>
			<point x="279" y="-299" type="curve" smooth="yes"/>
			<point x="279" y="-253"/>
			<point x="291" y="-195"/>
		</contour>
	</outline>
</glyph>
<glyph name="iogonek" format="2">
	<unicode hex="012F"/>
	<advance width="594"/>
	<outline>
		<contour>
			<point x="288" y="1296" type="curve" smooth="yes"/>
			<point x="346" y="1296"/>
			<point x="384" y="1329"/>
			<point x="384" y="1392" type="curve" smooth="yes"/>
			<point x="384" y="1455"/>
			<point x="346" y="1484"/>
			<point x="288" y="1484" type="curve" smooth="yes"/>
			<point x="230" y="1484"/>
			<point x="192" y="1455"/>
			<point x="192" y="1392" type="curve" smooth="yes"/>
			<point x="192" y="1329"/>
			<point x="230" y="1296"/>
		</contour>
		<contour>
			<point x="358" y="1044" type="line"/>
			<point x="341" y="1044" type="line"/>
			<point x="73" y="1006" type="line"/>
			<point x="73" y="967" type="line"/>
			<point x="134" y="958.5024875622"/>
			<point x="252" y="942.0646766169"/>
			<point x="274" y="939" type="curve"/>
			<point x="274" y="64" type="line"/>
			<point x="107" y="48" type="line"/>
			<point x="107" y="0" type="line"/>
			<point x="516" y="0" type="line"/>
			<point x="516" y="48" type="line"/>
			<point x="349" y="64" type="line"/>
			<point x="349" y="938" type="line"/>
		</contour>
		<contour>
			<point x="299" y="-82" type="curve" smooth="yes"/>
			<point x="340" y="0" type="line"/>
			<point x="281" y="0" type="line"/>
			<point x="219" y="-123" type="line" smooth="yes"/>
			<point x="166" y="-228"/>
			<point x="151" y="-279"/>
			<point x="151" y="-334" type="curve" smooth="yes"/>
			<point x="151" y="-403"/>
			<point x="199" y="-465"/>
			<point x="300" y="-465" type="curve" smooth="yes"/>
			<point x="357" y="-465"/>
			<point x="400" y="-456"/>
			<point x="463" y="-411" type="curve"/>
			<point x="463" y="-364" type="line"/>
			<point x="410" y="-395"/>
			<point x="379" y="-403"/>
			<point x="339" y="-403" type="curve" smooth="yes"/>
			<point x="271" y="-403"/>
			<point x="231" y="-363"/>
			<point x="231" y="-299" type="curve" smooth="yes"/>
			<point x="231" y="-252"/>
			<point x="242" y="-196"/>
		</contour>
	</outline>
</glyph>
<glyph name="dotlessi" format="2">
	<unicode hex="0131"/>
	<advance width="594"/>
	<outline>
		<contour>
			<point x="358" y="1044" type="line"/>
			<point x="341" y="1044" type="line"/>
			<point x="73" y="1006" type="line"/>
			<point x="73" y="967" type="line"/>
			<point x="134" y="958.5024875622"/>
			<point x="252" y="942.0646766169"/>
			<point x="274" y="939" type="curve"/>
			<point x="274" y="64" type="line"/>
			<point x="107" y="48" type="line"/>
			<point x="107" y="0" type="line"/>
			<point x="516" y="0" type="line"/>
			<point x="516" y="48" type="line"/>
			<point x="349" y="64" type="line"/>
			<point x="349" y="938" type="line"/>
		</contour>
	</outline>
	<anchor name="top" x="266" y="1024"/>
	<anchor name="bottom" x="312" y="0"/>
	<anchor name="right" x="436" y="0"/>
</glyph>
<glyph name="kgreenlandic" format="2">
	<unicode hex="0138"/>
	<advance width="1339"/>
	<outline>
		<contour>
			<point x="593" y="510" type="line"/>
			<point x="1044" y="63" type="line"/>
			<point x="855" y="48" type="line"/>
			<point x="855" y="0" type="line"/>
			<point x="1310" y="0" type="line"/>
			<point x="1310" y="48" type="line"/>
			<point x="1142" y="64" type="line"/>
			<point x="630" y="572" type="line"/>
			<point x="615" y="511" type="line"/>
			<point x="1076" y="956" type="line"/>
			<point x="1258" y="976" type="line"/>
			<point x="1258" y="1024" type="line"/>
			<point x="793" y="1024" type="line"/>
			<point x="793" y="976" type="line"/>
			<point x="978" y="953" type="line"/>
			<point x="596" y="576" type="line"/>
			<point x="306" y="576" type="line"/>
			<point x="306" y="510" type="line"/>
		</contour>
		<contour>
			<point x="355" y="1044" type="line"/>
			<point x="338" y="1044" type="line"/>
			<point x="70" y="1006" type="line"/>
			<point x="70" y="967" type="line"/>
			<point x="131" y="958.5024875622"/>
			<point x="249" y="942.0646766169"/>
			<point x="271" y="939" type="curve"/>
			<point x="271" y="64" type="line"/>
			<point x="104" y="48" type="line"/>
			<point x="104" y="0" type="line"/>
			<point x="513" y="0" type="line"/>
			<point x="513" y="48" type="line"/>
			<point x="346" y="64" type="line"/>
			<point x="346" y="938" type="line"/>
		</contour>
	</outline>
</glyph>
<glyph name="Lslash" format="2">
	<unicode hex="0141"/>
	<advance width="1332"/>
	<outline>
		<contour>
			<point x="372" y="648" type="line"/>
			<point x="415" y="663" type="line"/>
			<point x="808" y="870" type="line"/>
			<point x="808" y="942" type="line"/>
			<point x="415" y="735" type="line"/>
			<point x="372" y="720" type="line"/>
			<point x="131" y="593" type="line"/>
			<point x="131" y="521" type="line"/>
		</contour>
		<contour>
			<point x="1197" y="-72" type="line"/>
			<point x="1269" y="380" type="line"/>
			<point x="1210" y="380" type="line"/>
			<point x="1112" y="42" type="line"/>
			<point x="1181" y="64" type="line"/>
			<point x="362" y="64" type="line"/>
			<point x="362" y="0" type="line"/>
			<point x="1118" y="0" type="line"/>
			<point x="1131" y="-72" type="line"/>
		</contour>
		<contour>
			<point x="432" y="1347" type="line"/>
			<point x="653" y="1363" type="line"/>
			<point x="653" y="1414" type="line"/>
			<point x="131" y="1414" type="line"/>
			<point x="131" y="1363" type="line"/>
			<point x="352" y="1347" type="line"/>
			<point x="352" y="67" type="line"/>
			<point x="131" y="51" type="line"/>
			<point x="131" y="0" type="line"/>
			<point x="432" y="0" type="line"/>
		</contour>
	</outline>
</glyph>
<glyph name="lslash" format="2">
	<unicode hex="0142"/>
	<advance width="701"/>
	<outline>
		<contour>
			<point x="337" y="678" type="line"/>
			<point x="369" y="695" type="line"/>
			<point x="634" y="881" type="line"/>
			<point x="634" y="958" type="line"/>
			<point x="369" y="772" type="line"/>
			<point x="337" y="755" type="line"/>
			<point x="79" y="572" type="line"/>
			<point x="79" y="495" type="line"/>
		</contour>
		<contour>
			<point x="388" y="64" type="line"/>
			<point x="388" y="1391" type="line"/>
			<point x="398" y="1484" type="line"/>
			<point x="381" y="1484" type="line"/>
			<point x="99" y="1446" type="line"/>
			<point x="99" y="1407" type="line"/>
			<point x="177" y="1395.7009345794"/>
			<point x="287" y="1379.7663551402"/>
			<point x="313" y="1376" type="curve"/>
			<point x="313" y="64" type="line"/>
			<point x="146" y="48" type="line"/>
			<point x="146" y="0" type="line"/>
			<point x="555" y="0" type="line"/>
			<point x="555" y="48" type="line"/>
		</contour>
	</outline>
</glyph>
<glyph name="Eng" format="2">
	<unicode hex="014A"/>
	<advance width="1707"/>
	<outline>
		<contour>
			<point x="1356" y="80" type="line"/>
			<point x="415" y="1414" type="line"/>
			<point x="104" y="1414" type="line"/>
			<point x="104" y="1363" type="line"/>
			<point x="325" y="1347" type="line"/>
			<point x="325" y="67" type="line"/>
			<point x="104" y="51" type="line"/>
			<point x="104" y="0" type="line"/>
			<point x="612" y="0" type="line"/>
			<point x="612" y="51" type="line"/>
			<point x="391" y="67" type="line"/>
			<point x="391" y="1352" type="line"/>
			<point x="371" y="1346" type="line"/>
			<point x="1356" y="-50" type="line"/>
		</contour>
		<contour>
			<point x="1403" y="-141" type="curve" smooth="yes"/>
			<point x="1403" y="1347" type="line"/>
			<point x="1624" y="1363" type="line"/>
			<point x="1624" y="1414" type="line"/>
			<point x="1116" y="1414" type="line"/>
			<point x="1116" y="1363" type="line"/>
			<point x="1337" y="1347" type="line"/>
			<point x="1337" y="-120" type="line" smooth="yes"/>
			<point x="1337" y="-320"/>
			<point x="1251" y="-399"/>
			<point x="1047" y="-399" type="curve" smooth="yes"/>
			<point x="946" y="-399"/>
			<point x="899" y="-327"/>
			<point x="866" y="-327" type="curve" smooth="yes"/>
			<point x="832" y="-327"/>
			<point x="815" y="-347"/>
			<point x="815" y="-373" type="curve" smooth="yes"/>
			<point x="815" y="-424"/>
			<point x="876" y="-465"/>
			<point x="1047" y="-465" type="curve" smooth="yes"/>
			<point x="1280" y="-465"/>
			<point x="1403" y="-356"/>
		</contour>
	</outline>
</glyph>
<glyph name="eng" format="2">
  <advance width="1276.0"/>
  <unicode hex="014B"/>
  <outline>
    <contour>
      <point x="346.0" y="888.0" type="line"/>
      <point x="338.0" y="1044.0" type="line"/>
      <point x="321.0" y="1044.0" type="line"/>
      <point x="70.0" y="1006.0" type="line"/>
      <point x="70.0" y="967.0" type="line"/>
      <point x="161.0" y="954.3233830845771"/>
      <point x="249.0" y="942.0646766169154"/>
      <point x="271.0" y="939.0" type="curve"/>
      <point x="271.0" y="64.0" type="line"/>
      <point x="104.0" y="48.0" type="line"/>
      <point x="104.0" y="0.0" type="line"/>
      <point x="513.0" y="0.0" type="line"/>
      <point x="513.0" y="48.0" type="line"/>
      <point x="346.0" y="64.0" type="line"/>
    </contour>
    <contour>
      <point x="1019.0" y="-20.0" type="line" smooth="yes"/>
      <point x="1019.0" y="-134.0"/>
      <point x="991.0" y="-187.0"/>
      <point x="789.0" y="-429.0" type="curve"/>
      <point x="829.0" y="-465.0" type="line"/>
      <point x="1065.0" y="-202.0"/>
      <point x="1094.0" y="-154.0"/>
      <point x="1094.0" y="-38.0" type="curve" smooth="yes"/>
      <point x="1094.0" y="737.0" type="line" smooth="yes"/>
      <point x="1094.0" y="946.0"/>
      <point x="1008.0" y="1044.0"/>
      <point x="774.0" y="1044.0" type="curve" smooth="yes"/>
      <point x="635.0" y="1044.0"/>
      <point x="537.0" y="1010.0"/>
      <point x="333.0" y="888.0" type="curve"/>
      <point x="333.0" y="850.0" type="line"/>
      <point x="496.0" y="937.0"/>
      <point x="601.0" y="965.0"/>
      <point x="726.0" y="965.0" type="curve" smooth="yes"/>
      <point x="956.0" y="965.0"/>
      <point x="1019.0" y="900.0"/>
      <point x="1019.0" y="680.0" type="curve" smooth="yes"/>
    </contour>
  </outline>
</glyph>
<glyph name="OE" format="2">
  <advance width="2309.0"/>
  <unicode hex="0152"/>
  <outline>
    <contour>
      <point x="1828.0" y="988.0" type="line"/>
      <point x="1778.0" y="988.0" type="line"/>
      <point x="1747.0" y="768.0" type="line"/>
      <point x="1256.0" y="768.0" type="line"/>
      <point x="1256.0" y="700.0" type="line"/>
      <point x="1747.0" y="700.0" type="line"/>
      <point x="1778.0" y="477.0" type="line"/>
      <point x="1828.0" y="477.0" type="line"/>
      <point x="1828.0" y="732.0" type="line"/>
    </contour>
    <contour>
      <point x="1191.0" y="1414.0" type="line"/>
      <point x="1191.0" y="0.0" type="line"/>
      <point x="1271.0" y="0.0" type="line"/>
      <point x="1271.0" y="1414.0" type="line"/>
    </contour>
    <contour>
      <point x="871.0" y="0.0" type="curve" smooth="yes"/>
      <point x="2057.0" y="0.0" type="line"/>
      <point x="2070.0" y="-72.0" type="line"/>
      <point x="2136.0" y="-72.0" type="line"/>
      <point x="2208.0" y="380.0" type="line"/>
      <point x="2149.0" y="380.0" type="line"/>
      <point x="2051.0" y="42.0" type="line"/>
      <point x="2120.0" y="68.0" type="line"/>
      <point x="895.0" y="68.0" type="line" smooth="yes"/>
      <point x="457.0" y="68.0"/>
      <point x="222.0" y="255.0"/>
      <point x="222.0" y="707.0" type="curve" smooth="yes"/>
      <point x="222.0" y="1159.0"/>
      <point x="457.0" y="1346.0"/>
      <point x="895.0" y="1346.0" type="curve" smooth="yes"/>
      <point x="2101.0" y="1346.0" type="line"/>
      <point x="2056.0" y="1402.0" type="line"/>
      <point x="2086.0" y="1068.0" type="line"/>
      <point x="2147.0" y="1068.0" type="line"/>
      <point x="2154.0" y="1484.0" type="line"/>
      <point x="2106.0" y="1484.0" type="line"/>
      <point x="2066.0" y="1414.0" type="line"/>
      <point x="871.0" y="1414.0" type="line" smooth="yes"/>
      <point x="417.0" y="1414.0"/>
      <point x="138.0" y="1202.0"/>
      <point x="138.0" y="707.0" type="curve" smooth="yes"/>
      <point x="138.0" y="212.0"/>
      <point x="417.0" y="0.0"/>
    </contour>
  </outline>
</glyph>
<glyph name="oe" format="2">
	<unicode hex="0153"/>
	<advance width="2069"/>
	<outline>
		<contour>
			<point x="613" y="44" type="curve" smooth="yes"/>
			<point x="338" y="44"/>
			<point x="196" y="238"/>
			<point x="196" y="520" type="curve" smooth="yes"/>
			<point x="196" y="824"/>
			<point x="363" y="980"/>
			<point x="633" y="980" type="curve" smooth="yes"/>
			<point x="908" y="980"/>
			<point x="1050" y="787"/>
			<point x="1050" y="504" type="curve" smooth="yes"/>
			<point x="1050" y="200"/>
			<point x="883" y="44"/>
		</contour>
		<contour>
			<point x="1104" y="317" type="curve"/>
			<point x="1074" y="317" type="line"/>
			<point x="1128" y="93"/>
			<point x="1284" y="-20"/>
			<point x="1529" y="-20" type="curve" smooth="yes"/>
			<point x="1682" y="-20"/>
			<point x="1777" y="2"/>
			<point x="1934" y="86" type="curve"/>
			<point x="1934" y="142" type="line"/>
			<point x="1798" y="74"/>
			<point x="1697" y="51"/>
			<point x="1559" y="51" type="curve" smooth="yes"/>
			<point x="1268" y="51"/>
			<point x="1130" y="184"/>
			<point x="1130" y="511" type="curve" smooth="yes"/>
			<point x="1130" y="834"/>
			<point x="1294" y="985"/>
			<point x="1531" y="985" type="curve" smooth="yes"/>
			<point x="1773" y="985"/>
			<point x="1875" y="821"/>
			<point x="1869" y="573" type="curve"/>
			<point x="1920" y="594" type="line"/>
			<point x="1118" y="594" type="line"/>
			<point x="1128" y="530" type="line"/>
			<point x="1956" y="530" type="line"/>
			<point x="1958" y="874"/>
			<point x="1831" y="1044"/>
			<point x="1529" y="1044" type="curve" smooth="yes"/>
			<point x="1303" y="1044"/>
			<point x="1133" y="906"/>
			<point x="1074" y="682" type="curve"/>
			<point x="1108" y="682" type="line"/>
			<point x="1048" y="908"/>
			<point x="871" y="1044"/>
			<point x="629" y="1044" type="curve" smooth="yes"/>
			<point x="307" y="1044"/>
			<point x="116" y="864"/>
			<point x="116" y="514" type="curve" smooth="yes"/>
			<point x="116" y="174"/>
			<point x="317" y="-20"/>
			<point x="617" y="-20" type="curve" smooth="yes"/>
			<point x="869" y="-20"/>
			<point x="1041" y="100"/>
		</contour>
	</outline>
	<anchor name="top" x="1036" y="1024"/>
	<anchor name="bottom" x="1036" y="0"/>
</glyph>
<glyph name="Scedilla" format="2">
	<unicode hex="015E"/>
	<advance width="1219"/>
	<outline>
		<contour>
			<point x="986" y="1356" type="line"/>
			<point x="899" y="1398"/>
			<point x="768" y="1434"/>
			<point x="639" y="1434" type="curve" smooth="yes"/>
			<point x="303" y="1434"/>
			<point x="164" y="1296"/>
			<point x="164" y="1081" type="curve" smooth="yes"/>
			<point x="164" y="808"/>
			<point x="393" y="760"/>
			<point x="597" y="716" type="curve" smooth="yes"/>
			<point x="801" y="672"/>
			<point x="1003" y="625"/>
			<point x="1003" y="381" type="curve" smooth="yes"/>
			<point x="1003" y="141"/>
			<point x="810" y="46"/>
			<point x="535" y="46" type="curve" smooth="yes"/>
			<point x="397" y="46"/>
			<point x="287" y="63"/>
			<point x="194" y="115" type="curve"/>
			<point x="280" y="14" type="line"/>
			<point x="190" y="399" type="line"/>
			<point x="138" y="399" type="line"/>
			<point x="175" y="32" type="line"/>
			<point x="274" y="0"/>
			<point x="384" y="-20"/>
			<point x="525" y="-20" type="curve" smooth="yes"/>
			<point x="860" y="-20"/>
			<point x="1081" y="106"/>
			<point x="1081" y="393" type="curve" smooth="yes"/>
			<point x="1081" y="693"/>
			<point x="847" y="744"/>
			<point x="640" y="789" type="curve" smooth="yes"/>
			<point x="433" y="834"/>
			<point x="240" y="873"/>
			<point x="240" y="1098" type="curve" smooth="yes"/>
			<point x="240" y="1271"/>
			<point x="355" y="1367"/>
			<point x="616" y="1367" type="curve" smooth="yes"/>
			<point x="787" y="1367"/>
			<point x="881" y="1334"/>
			<point x="993" y="1254" type="curve"/>
			<point x="928" y="1304" type="line"/>
			<point x="950" y="999" type="line"/>
			<point x="1012" y="999" type="line"/>
			<point x="1012" y="1464" type="line"/>
			<point x="959" y="1464" type="line"/>
			<point x="938" y="1350" type="line"/>
		</contour>
		<contour>
			<point x="555" y="-465" type="curve" smooth="yes"/>
			<point x="687" y="-465"/>
			<point x="760" y="-391"/>
			<point x="760" y="-299" type="curve" smooth="yes"/>
			<point x="760" y="-227"/>
			<point x="724" y="-173"/>
			<point x="553" y="-129" type="curve"/>
			<point x="567" y="-155" type="line"/>
			<point x="668" y="0" type="line"/>
			<point x="609" y="0" type="line"/>
			<point x="486" y="-187" type="line"/>
			<point x="486" y="-191" type="line"/>
			<point x="667" y="-231"/>
			<point x="690" y="-264"/>
			<point x="690" y="-319" type="curve" smooth="yes"/>
			<point x="690" y="-377"/>
			<point x="650" y="-418"/>
			<point x="569" y="-418" type="curve" smooth="yes"/>
			<point x="497" y="-418"/>
			<point x="478" y="-365"/>
			<point x="469" y="-365" type="curve" smooth="yes"/>
			<point x="440" y="-365"/>
			<point x="425" y="-385"/>
			<point x="425" y="-405" type="curve" smooth="yes"/>
			<point x="425" y="-437"/>
			<point x="451" y="-465"/>
		</contour>
	</outline>
</glyph>
<glyph name="scedilla" format="2">
	<unicode hex="015F"/>
	<advance width="1015"/>
	<outline>
		<contour>
			<point x="534" y="1044" type="curve" smooth="yes"/>
			<point x="268" y="1044"/>
			<point x="143" y="942"/>
			<point x="143" y="776" type="curve" smooth="yes"/>
			<point x="143" y="592"/>
			<point x="264" y="546"/>
			<point x="434" y="517" type="curve" smooth="yes"/>
			<point x="604" y="488"/>
			<point x="829" y="493"/>
			<point x="829" y="275" type="curve" smooth="yes"/>
			<point x="829" y="134"/>
			<point x="728" y="44"/>
			<point x="477" y="44" type="curve" smooth="yes"/>
			<point x="394" y="44"/>
			<point x="253" y="61"/>
			<point x="178" y="92" type="curve"/>
			<point x="247" y="44" type="line"/>
			<point x="165" y="319" type="line"/>
			<point x="116" y="319" type="line"/>
			<point x="146" y="36" type="line"/>
			<point x="229" y="0"/>
			<point x="370" y="-16"/>
			<point x="475" y="-16" type="curve" smooth="yes"/>
			<point x="770" y="-16"/>
			<point x="900" y="104"/>
			<point x="900" y="285" type="curve" smooth="yes"/>
			<point x="900" y="520"/>
			<point x="710" y="552"/>
			<point x="537" y="578" type="curve" smooth="yes"/>
			<point x="364" y="604"/>
			<point x="211" y="623"/>
			<point x="211" y="791" type="curve" smooth="yes"/>
			<point x="211" y="926"/>
			<point x="320" y="986"/>
			<point x="538" y="986" type="curve" smooth="yes"/>
			<point x="621" y="986"/>
			<point x="707" y="967"/>
			<point x="824" y="916" type="curve"/>
			<point x="739" y="975" type="line"/>
			<point x="807" y="745" type="line"/>
			<point x="856" y="745" type="line"/>
			<point x="828" y="993" type="line"/>
			<point x="749" y="1024"/>
			<point x="659" y="1044"/>
		</contour>
		<contour>
			<point x="464" y="-465" type="curve" smooth="yes"/>
			<point x="596" y="-465"/>
			<point x="669" y="-391"/>
			<point x="669" y="-299" type="curve" smooth="yes"/>
			<point x="669" y="-227"/>
			<point x="633" y="-173"/>
			<point x="462" y="-129" type="curve"/>
			<point x="476" y="-155" type="line"/>
			<point x="577" y="0" type="line"/>
			<point x="518" y="0" type="line"/>
			<point x="395" y="-187" type="line"/>
			<point x="395" y="-191" type="line"/>
			<point x="576" y="-231"/>
			<point x="599" y="-264"/>
			<point x="599" y="-319" type="curve" smooth="yes"/>
			<point x="599" y="-377"/>
			<point x="559" y="-418"/>
			<point x="478" y="-418" type="curve" smooth="yes"/>
			<point x="406" y="-418"/>
			<point x="387" y="-365"/>
			<point x="378" y="-365" type="curve" smooth="yes"/>
			<point x="349" y="-365"/>
			<point x="334" y="-385"/>
			<point x="334" y="-405" type="curve" smooth="yes"/>
			<point x="334" y="-437"/>
			<point x="360" y="-465"/>
		</contour>
	</outline>
</glyph>
<glyph name="uni0162" format="2">
  <advance width="1410.0"/>
  <unicode hex="0162"/>
  <outline>
    <contour>
      <point x="665.0" y="1407.0" type="line"/>
      <point x="665.0" y="67.0" type="line"/>
      <point x="444.0" y="51.0" type="line"/>
      <point x="444.0" y="0.0" type="line"/>
      <point x="966.0" y="0.0" type="line"/>
      <point x="966.0" y="51.0" type="line"/>
      <point x="745.0" y="67.0" type="line"/>
      <point x="745.0" y="1407.0" type="line"/>
    </contour>
    <contour>
      <point x="1254.0" y="1346.0" type="line"/>
      <point x="1199.0" y="1372.0" type="line"/>
      <point x="1280.0" y="1044.0" type="line"/>
      <point x="1345.0" y="1044.0" type="line"/>
      <point x="1277.0" y="1484.0" type="line"/>
      <point x="1211.0" y="1484.0" type="line"/>
      <point x="1202.0" y="1398.0" type="line"/>
      <point x="1272.0" y="1414.0" type="line"/>
      <point x="158.0" y="1414.0" type="line"/>
      <point x="208.0" y="1398.0" type="line"/>
      <point x="199.0" y="1484.0" type="line"/>
      <point x="133.0" y="1484.0" type="line"/>
      <point x="65.0" y="1044.0" type="line"/>
      <point x="130.0" y="1044.0" type="line"/>
      <point x="211.0" y="1372.0" type="line"/>
      <point x="156.0" y="1346.0" type="line"/>
    </contour>
    <contour>
      <point x="641.0" y="-465.0" type="curve" smooth="yes"/>
      <point x="773.0" y="-465.0"/>
      <point x="846.0" y="-391.0"/>
      <point x="846.0" y="-299.0" type="curve" smooth="yes"/>
      <point x="846.0" y="-227.0"/>
      <point x="810.0" y="-173.0"/>
      <point x="639.0" y="-129.0" type="curve"/>
      <point x="653.0" y="-155.0" type="line"/>
      <point x="754.0" y="0.0" type="line"/>
      <point x="695.0" y="0.0" type="line"/>
      <point x="572.0" y="-187.0" type="line"/>
      <point x="572.0" y="-191.0" type="line"/>
      <point x="753.0" y="-231.0"/>
      <point x="776.0" y="-264.0"/>
      <point x="776.0" y="-319.0" type="curve" smooth="yes"/>
      <point x="776.0" y="-377.0"/>
      <point x="736.0" y="-418.0"/>
      <point x="655.0" y="-418.0" type="curve" smooth="yes"/>
      <point x="583.0" y="-418.0"/>
      <point x="564.0" y="-365.0"/>
      <point x="555.0" y="-365.0" type="curve" smooth="yes"/>
      <point x="526.0" y="-365.0"/>
      <point x="511.0" y="-385.0"/>
      <point x="511.0" y="-405.0" type="curve" smooth="yes"/>
      <point x="511.0" y="-437.0"/>
      <point x="537.0" y="-465.0"/>
    </contour>
  </outline>
</glyph>
<glyph name="uni0163" format="2">
  <advance width="787.0"/>
  <unicode hex="0163"/>
  <outline>
    <contour>
      <point x="319.0" y="247.0" type="curve" smooth="yes"/>
      <point x="319.0" y="987.0" type="line"/>
      <point x="319.0" y="1139.0" type="line"/>
      <point x="273.0" y="1139.0" type="line"/>
      <point x="248.0" y="1041.0"/>
      <point x="218.0" y="1023.0"/>
      <point x="55.0" y="1001.0" type="curve"/>
      <point x="55.0" y="965.0" type="line"/>
      <point x="244.0" y="951.0" type="line"/>
      <point x="244.0" y="207.0" type="line" smooth="yes"/>
      <point x="244.0" y="58.0"/>
      <point x="345.0" y="-10.0"/>
      <point x="473.0" y="-10.0" type="curve" smooth="yes"/>
      <point x="546.0" y="-10.0"/>
      <point x="587.0" y="-7.0"/>
      <point x="750.0" y="38.0" type="curve"/>
      <point x="750.0" y="91.0" type="line"/>
      <point x="652.0" y="70.0"/>
      <point x="577.0" y="60.0"/>
      <point x="526.0" y="60.0" type="curve" smooth="yes"/>
      <point x="366.0" y="60.0"/>
      <point x="319.0" y="113.0"/>
    </contour>
    <contour>
      <point x="274.0" y="958.0" type="line"/>
      <point x="736.0" y="958.0" type="line"/>
      <point x="736.0" y="1024.0" type="line"/>
      <point x="274.0" y="1024.0" type="line"/>
    </contour>
    <contour>
      <point x="428.0" y="-465.0" type="curve" smooth="yes"/>
      <point x="560.0" y="-465.0"/>
      <point x="633.0" y="-391.0"/>
      <point x="633.0" y="-299.0" type="curve" smooth="yes"/>
      <point x="633.0" y="-227.0"/>
      <point x="597.0" y="-173.0"/>
      <point x="426.0" y="-129.0" type="curve"/>
      <point x="440.0" y="-155.0" type="line"/>
      <point x="541.0" y="0.0" type="line"/>
      <point x="482.0" y="0.0" type="line"/>
      <point x="359.0" y="-187.0" type="line"/>
      <point x="359.0" y="-191.0" type="line"/>
      <point x="540.0" y="-231.0"/>
      <point x="563.0" y="-264.0"/>
      <point x="563.0" y="-319.0" type="curve" smooth="yes"/>
      <point x="563.0" y="-377.0"/>
      <point x="523.0" y="-418.0"/>
      <point x="442.0" y="-418.0" type="curve" smooth="yes"/>
      <point x="370.0" y="-418.0"/>
      <point x="351.0" y="-365.0"/>
      <point x="342.0" y="-365.0" type="curve" smooth="yes"/>
      <point x="313.0" y="-365.0"/>
      <point x="298.0" y="-385.0"/>
      <point x="298.0" y="-405.0" type="curve" smooth="yes"/>
      <point x="298.0" y="-437.0"/>
      <point x="324.0" y="-465.0"/>
    </contour>
  </outline>
</glyph>
<glyph name="Tbar" format="2">
	<unicode hex="0166"/>
	<advance width="1414"/>
	<outline>
		<contour>
			<point x="353" y="689" type="line"/>
			<point x="1061" y="689" type="line"/>
			<point x="1061" y="756" type="line"/>
			<point x="353" y="756" type="line"/>
		</contour>
		<contour>
			<point x="667" y="1407" type="line"/>
			<point x="667" y="67" type="line"/>
			<point x="446" y="51" type="line"/>
			<point x="446" y="0" type="line"/>
			<point x="968" y="0" type="line"/>
			<point x="968" y="51" type="line"/>
			<point x="747" y="67" type="line"/>
			<point x="747" y="1407" type="line"/>
		</contour>
		<contour>
			<point x="1256" y="1346" type="line"/>
			<point x="1201" y="1372" type="line"/>
			<point x="1282" y="1044" type="line"/>
			<point x="1347" y="1044" type="line"/>
			<point x="1279" y="1484" type="line"/>
			<point x="1213" y="1484" type="line"/>
			<point x="1204" y="1398" type="line"/>
			<point x="1274" y="1414" type="line"/>
			<point x="160" y="1414" type="line"/>
			<point x="210" y="1398" type="line"/>
			<point x="201" y="1484" type="line"/>
			<point x="135" y="1484" type="line"/>
			<point x="67" y="1044" type="line"/>
			<point x="132" y="1044" type="line"/>
			<point x="213" y="1372" type="line"/>
			<point x="158" y="1346" type="line"/>
		</contour>
	</outline>
</glyph>
<glyph name="tbar" format="2">
	<unicode hex="0167"/>
	<advance width="802"/>
	<outline>
		<contour>
			<point x="72" y="517" type="line"/>
			<point x="648" y="517" type="line"/>
			<point x="648" y="584" type="line"/>
			<point x="72" y="584" type="line"/>
		</contour>
		<contour>
			<point x="332" y="247" type="curve" smooth="yes"/>
			<point x="332" y="987" type="line"/>
			<point x="332" y="1139" type="line"/>
			<point x="286" y="1139" type="line"/>
			<point x="261" y="1041"/>
			<point x="231" y="1023"/>
			<point x="68" y="1001" type="curve"/>
			<point x="68" y="965" type="line"/>
			<point x="257" y="951" type="line"/>
			<point x="257" y="207" type="line" smooth="yes"/>
			<point x="257" y="58"/>
			<point x="358" y="-10"/>
			<point x="486" y="-10" type="curve" smooth="yes"/>
			<point x="559" y="-10"/>
			<point x="600" y="-7"/>
			<point x="763" y="38" type="curve"/>
			<point x="763" y="91" type="line"/>
			<point x="665" y="70"/>
			<point x="590" y="60"/>
			<point x="539" y="60" type="curve" smooth="yes"/>
			<point x="379" y="60"/>
			<point x="332" y="113"/>
		</contour>
		<contour>
			<point x="287" y="958" type="line"/>
			<point x="749" y="958" type="line"/>
			<point x="749" y="1024" type="line"/>
			<point x="287" y="1024" type="line"/>
		</contour>
	</outline>
</glyph>
<glyph name="Uogonek" format="2">
	<unicode hex="0172"/>
	<advance width="1661"/>
	<outline>
		<contour>
			<point x="1293" y="546" type="line" smooth="yes"/>
			<point x="1293" y="173"/>
			<point x="1147" y="50"/>
			<point x="851" y="50" type="curve" smooth="yes"/>
			<point x="511" y="50"/>
			<point x="380" y="174"/>
			<point x="380" y="570" type="curve" smooth="yes"/>
			<point x="380" y="1347" type="line"/>
			<point x="601" y="1363" type="line"/>
			<point x="601" y="1414" type="line"/>
			<point x="79" y="1414" type="line"/>
			<point x="79" y="1363" type="line"/>
			<point x="300" y="1347" type="line"/>
			<point x="300" y="548" type="line" smooth="yes"/>
			<point x="300" y="124"/>
			<point x="470" y="-20"/>
			<point x="843" y="-20" type="curve" smooth="yes"/>
			<point x="1160" y="-20"/>
			<point x="1361" y="118"/>
			<point x="1361" y="514" type="curve" smooth="yes"/>
			<point x="1361" y="1347" type="line"/>
			<point x="1582" y="1363" type="line"/>
			<point x="1582" y="1414" type="line"/>
			<point x="1072" y="1414" type="line"/>
			<point x="1072" y="1363" type="line"/>
			<point x="1293" y="1347" type="line"/>
		</contour>
		<contour>
			<point x="862" y="-82" type="curve" smooth="yes"/>
			<point x="905" y="0" type="line"/>
			<point x="846" y="0" type="line"/>
			<point x="777" y="-123" type="line" smooth="yes"/>
			<point x="718" y="-229"/>
			<point x="705" y="-279"/>
			<point x="705" y="-334" type="curve" smooth="yes"/>
			<point x="705" y="-403"/>
			<point x="753" y="-465"/>
			<point x="854" y="-465" type="curve" smooth="yes"/>
			<point x="911" y="-465"/>
			<point x="954" y="-456"/>
			<point x="1017" y="-411" type="curve"/>
			<point x="1017" y="-364" type="line"/>
			<point x="964" y="-395"/>
			<point x="933" y="-403"/>
			<point x="893" y="-403" type="curve" smooth="yes"/>
			<point x="825" y="-403"/>
			<point x="785" y="-363"/>
			<point x="785" y="-299" type="curve" smooth="yes"/>
			<point x="785" y="-258"/>
			<point x="798" y="-204"/>
		</contour>
	</outline>
</glyph>
<glyph name="uogonek" format="2">
	<unicode hex="0173"/>
	<advance width="1330"/>
	<outline>
		<contour>
			<point x="329" y="338" type="curve" smooth="yes"/>
			<point x="329" y="951" type="line"/>
			<point x="343" y="1037" type="line"/>
			<point x="25" y="1024" type="line"/>
			<point x="25" y="966" type="line"/>
			<point x="254" y="951" type="line"/>
			<point x="254" y="281" type="line" smooth="yes"/>
			<point x="254" y="76"/>
			<point x="338" y="-20"/>
			<point x="568" y="-20" type="curve" smooth="yes"/>
			<point x="704" y="-20"/>
			<point x="800" y="13"/>
			<point x="1000" y="133" type="curve"/>
			<point x="1000" y="172" type="line"/>
			<point x="840" y="87"/>
			<point x="738" y="59"/>
			<point x="616" y="59" type="curve" smooth="yes"/>
			<point x="391" y="59"/>
			<point x="329" y="123"/>
		</contour>
		<contour>
			<point x="999" y="-14" type="line"/>
			<point x="1020" y="-14" type="line"/>
			<point x="1305" y="25" type="line"/>
			<point x="1305" y="64" type="line"/>
			<point x="1263" y="67.8024691358"/>
			<point x="1086" y="83.8271604938"/>
			<point x="1062" y="86" type="curve"/>
			<point x="1062" y="951" type="line"/>
			<point x="1076" y="1037" type="line"/>
			<point x="758" y="1024" type="line"/>
			<point x="758" y="966" type="line"/>
			<point x="987" y="951" type="line"/>
			<point x="987" y="135" type="line"/>
		</contour>
		<contour>
			<point x="1005" y="-82" type="curve" smooth="yes"/>
			<point x="1057" y="6" type="line"/>
			<point x="998" y="6" type="line"/>
			<point x="917" y="-123" type="line" smooth="yes"/>
			<point x="851" y="-228"/>
			<point x="840" y="-279"/>
			<point x="840" y="-334" type="curve" smooth="yes"/>
			<point x="840" y="-403"/>
			<point x="888" y="-465"/>
			<point x="989" y="-465" type="curve" smooth="yes"/>
			<point x="1046" y="-465"/>
			<point x="1089" y="-456"/>
			<point x="1152" y="-411" type="curve"/>
			<point x="1152" y="-364" type="line"/>
			<point x="1099" y="-395"/>
			<point x="1068" y="-403"/>
			<point x="1028" y="-403" type="curve" smooth="yes"/>
			<point x="960" y="-403"/>
			<point x="920" y="-363"/>
			<point x="920" y="-299" type="curve" smooth="yes"/>
			<point x="920" y="-243"/>
			<point x="932" y="-206"/>
		</contour>
	</outline>
</glyph>
<glyph name="uni018F" format="2">
	<unicode hex="018F"/>
	<advance width="1506"/>
	<outline>
		<contour>
			<point x="182" y="610" type="line"/>
			<point x="1316" y="610" type="line"/>
			<point x="1316" y="678" type="line"/>
			<point x="132" y="678" type="line"/>
			<point x="129" y="210"/>
			<point x="302" y="-20"/>
			<point x="718" y="-20" type="curve" smooth="yes"/>
			<point x="1104" y="-20"/>
			<point x="1368" y="253"/>
			<point x="1368" y="712" type="curve" smooth="yes"/>
			<point x="1368" y="1217"/>
			<point x="1119" y="1434"/>
			<point x="718" y="1434" type="curve" smooth="yes"/>
			<point x="507" y="1434"/>
			<point x="351" y="1390"/>
			<point x="162" y="1292" type="curve"/>
			<point x="162" y="1217" type="line"/>
			<point x="352" y="1314"/>
			<point x="505" y="1356"/>
			<point x="677" y="1356" type="curve" smooth="yes"/>
			<point x="1088" y="1356"/>
			<point x="1284" y="1162"/>
			<point x="1284" y="711" type="curve" smooth="yes"/>
			<point x="1284" y="261"/>
			<point x="1053" y="50"/>
			<point x="717" y="50" type="curve" smooth="yes"/>
			<point x="357" y="50"/>
			<point x="210" y="282"/>
			<point x="218" y="632" type="curve"/>
		</contour>
	</outline>
</glyph>
<glyph name="Ohorn" format="2">
	<unicode hex="01A0"/>
	<advance width="1640"/>
	<outline>
		<contour>
			<point x="828" y="50" type="curve" smooth="yes"/>
			<point x="445" y="50"/>
			<point x="220" y="274"/>
			<point x="220" y="708" type="curve" smooth="yes"/>
			<point x="220" y="1119"/>
			<point x="421" y="1364"/>
			<point x="811" y="1364" type="curve" smooth="yes"/>
			<point x="1194" y="1364"/>
			<point x="1419" y="1140"/>
			<point x="1419" y="706" type="curve" smooth="yes"/>
			<point x="1419" y="295"/>
			<point x="1218" y="50"/>
		</contour>
		<contour>
			<point x="812" y="1434" type="curve" smooth="yes"/>
			<point x="404" y="1434"/>
			<point x="136" y="1168"/>
			<point x="136" y="707" type="curve" smooth="yes"/>
			<point x="136" y="250"/>
			<point x="387" y="-20"/>
			<point x="827" y="-20" type="curve" smooth="yes"/>
			<point x="1235" y="-20"/>
			<point x="1503" y="246"/>
			<point x="1503" y="707" type="curve" smooth="yes"/>
			<point x="1503" y="1026"/>
			<point x="1381" y="1265"/>
			<point x="1125" y="1374" type="curve"/>
			<point x="1125" y="1353" type="line"/>
			<point x="1359" y="1332"/>
			<point x="1451" y="1438"/>
			<point x="1451" y="1585" type="curve" smooth="yes"/>
			<point x="1451" y="1659"/>
			<point x="1424" y="1687"/>
			<point x="1383" y="1687" type="curve" smooth="yes"/>
			<point x="1344" y="1687"/>
			<point x="1318" y="1664"/>
			<point x="1318" y="1636" type="curve" smooth="yes"/>
			<point x="1318" y="1628"/>
			<point x="1359" y="1583"/>
			<point x="1359" y="1527" type="curve" smooth="yes"/>
			<point x="1359" y="1456"/>
			<point x="1305" y="1396"/>
			<point x="1164" y="1396" type="curve" smooth="yes"/>
			<point x="1054" y="1396"/>
			<point x="961" y="1434"/>
		</contour>
	</outline>
	<anchor name="UCtop" x="820" y="1414"/>
	<anchor name="bottom" x="820" y="0"/>
</glyph>
<glyph name="ohorn" format="2">
	<unicode hex="01A1"/>
	<advance width="1248"/>
	<outline>
		<contour>
			<point x="613" y="44" type="curve" smooth="yes"/>
			<point x="338" y="44"/>
			<point x="196" y="238"/>
			<point x="196" y="520" type="curve" smooth="yes"/>
			<point x="196" y="824"/>
			<point x="363" y="980"/>
			<point x="633" y="980" type="curve" smooth="yes"/>
			<point x="908" y="980"/>
			<point x="1050" y="787"/>
			<point x="1050" y="504" type="curve" smooth="yes"/>
			<point x="1050" y="200"/>
			<point x="883" y="44"/>
		</contour>
		<contour>
			<point x="1132" y="1195" type="curve" smooth="yes"/>
			<point x="1132" y="1269"/>
			<point x="1105" y="1297"/>
			<point x="1064" y="1297" type="curve" smooth="yes"/>
			<point x="1025" y="1297"/>
			<point x="999" y="1274"/>
			<point x="999" y="1246" type="curve" smooth="yes"/>
			<point x="999" y="1238"/>
			<point x="1040" y="1193"/>
			<point x="1040" y="1137" type="curve" smooth="yes"/>
			<point x="1040" y="1075"/>
			<point x="991" y="1023"/>
			<point x="899" y="1023" type="curve" smooth="yes"/>
			<point x="790" y="1023"/>
			<point x="742" y="1044"/>
			<point x="629" y="1044" type="curve" smooth="yes"/>
			<point x="307" y="1044"/>
			<point x="116" y="864"/>
			<point x="116" y="514" type="curve" smooth="yes"/>
			<point x="116" y="174"/>
			<point x="317" y="-20"/>
			<point x="617" y="-20" type="curve" smooth="yes"/>
			<point x="939" y="-20"/>
			<point x="1130" y="160"/>
			<point x="1130" y="510" type="curve" smooth="yes"/>
			<point x="1130" y="703"/>
			<point x="1066" y="880"/>
			<point x="885" y="981" type="curve"/>
			<point x="885" y="973" type="line"/>
			<point x="1052" y="965"/>
			<point x="1132" y="1059"/>
		</contour>
	</outline>
	<anchor name="top" x="624" y="1024"/>
	<anchor name="bottom" x="624" y="0"/>
</glyph>
<glyph name="Uhorn" format="2">
  <advance width="1632.0"/>
  <unicode hex="01AF"/>
  <anchor x="839.0" y="1414" name="UCtop"/>
  <anchor x="839.0" y="0" name="bottom"/>
  <outline>
    <contour>
      <point x="1585.0" y="1527.0" type="curve" smooth="yes"/>
      <point x="1585.0" y="1453.0"/>
      <point x="1531.0" y="1414.0"/>
      <point x="1397.0" y="1414.0" type="curve" smooth="yes"/>
      <point x="1072.0" y="1414.0" type="line"/>
      <point x="1072.0" y="1363.0" type="line"/>
      <point x="1293.0" y="1347.0" type="line"/>
      <point x="1293.0" y="546.0" type="line" smooth="yes"/>
      <point x="1293.0" y="173.0"/>
      <point x="1147.0" y="50.0"/>
      <point x="851.0" y="50.0" type="curve" smooth="yes"/>
      <point x="511.0" y="50.0"/>
      <point x="380.0" y="174.0"/>
      <point x="380.0" y="570.0" type="curve" smooth="yes"/>
      <point x="380.0" y="1347.0" type="line"/>
      <point x="601.0" y="1363.0" type="line"/>
      <point x="601.0" y="1414.0" type="line"/>
      <point x="79.0" y="1414.0" type="line"/>
      <point x="79.0" y="1363.0" type="line"/>
      <point x="300.0" y="1347.0" type="line"/>
      <point x="300.0" y="548.0" type="line" smooth="yes"/>
      <point x="300.0" y="124.0"/>
      <point x="470.0" y="-20.0"/>
      <point x="843.0" y="-20.0" type="curve" smooth="yes"/>
      <point x="1160.0" y="-20.0"/>
      <point x="1361.0" y="118.0"/>
      <point x="1361.0" y="514.0" type="curve" smooth="yes"/>
      <point x="1361.0" y="1351.0" type="line"/>
      <point x="1599.0" y="1354.0"/>
      <point x="1677.0" y="1439.0"/>
      <point x="1677.0" y="1585.0" type="curve" smooth="yes"/>
      <point x="1677.0" y="1659.0"/>
      <point x="1650.0" y="1687.0"/>
      <point x="1609.0" y="1687.0" type="curve" smooth="yes"/>
      <point x="1570.0" y="1687.0"/>
      <point x="1544.0" y="1664.0"/>
      <point x="1544.0" y="1636.0" type="curve" smooth="yes"/>
      <point x="1544.0" y="1628.0"/>
      <point x="1585.0" y="1583.0"/>
    </contour>
  </outline>
</glyph>
<glyph name="uhorn" format="2">
	<unicode hex="01B0"/>
	<advance width="1329"/>
	<outline>
		<contour>
			<point x="329" y="338" type="curve" smooth="yes"/>
			<point x="329" y="951" type="line"/>
			<point x="343" y="1037" type="line"/>
			<point x="25" y="1024" type="line"/>
			<point x="25" y="966" type="line"/>
			<point x="254" y="951" type="line"/>
			<point x="254" y="281" type="line" smooth="yes"/>
			<point x="254" y="76"/>
			<point x="338" y="-20"/>
			<point x="568" y="-20" type="curve" smooth="yes"/>
			<point x="704" y="-20"/>
			<point x="800" y="13"/>
			<point x="1000" y="133" type="curve"/>
			<point x="1000" y="172" type="line"/>
			<point x="840" y="87"/>
			<point x="738" y="59"/>
			<point x="616" y="59" type="curve" smooth="yes"/>
			<point x="391" y="59"/>
			<point x="329" y="123"/>
		</contour>
		<contour>
			<point x="1208" y="1137" type="curve" smooth="yes"/>
			<point x="1208" y="1078"/>
			<point x="1166" y="1041"/>
			<point x="1042" y="1036" type="curve" smooth="yes"/>
			<point x="758" y="1024" type="line"/>
			<point x="758" y="966" type="line"/>
			<point x="987" y="951" type="line"/>
			<point x="987" y="135" type="line"/>
			<point x="999" y="-14" type="line"/>
			<point x="1020" y="-14" type="line"/>
			<point x="1305" y="25" type="line"/>
			<point x="1305" y="64" type="line"/>
			<point x="1263" y="67.8024691358"/>
			<point x="1086" y="83.8271604938"/>
			<point x="1062" y="86" type="curve"/>
			<point x="1062" y="951" type="line"/>
			<point x="1069" y="994" type="line"/>
			<point x="1201" y="994"/>
			<point x="1300" y="1060"/>
			<point x="1300" y="1195" type="curve" smooth="yes"/>
			<point x="1300" y="1269"/>
			<point x="1273" y="1297"/>
			<point x="1232" y="1297" type="curve" smooth="yes"/>
			<point x="1193" y="1297"/>
			<point x="1167" y="1274"/>
			<point x="1167" y="1246" type="curve" smooth="yes"/>
			<point x="1167" y="1238"/>
			<point x="1208" y="1193"/>
		</contour>
	</outline>
	<anchor name="top" x="615" y="1024"/>
	<anchor name="bottom" x="665" y="0"/>
</glyph>
<glyph name="uni01EA" format="2">
	<unicode hex="01EA"/>
	<advance width="1639"/>
	<outline>
		<contour>
			<point x="812" y="1434" type="curve" smooth="yes"/>
			<point x="404" y="1434"/>
			<point x="136" y="1168"/>
			<point x="136" y="707" type="curve" smooth="yes"/>
			<point x="136" y="250"/>
			<point x="387" y="-20"/>
			<point x="827" y="-20" type="curve" smooth="yes"/>
			<point x="1235" y="-20"/>
			<point x="1503" y="246"/>
			<point x="1503" y="707" type="curve" smooth="yes"/>
			<point x="1503" y="1164"/>
			<point x="1252" y="1434"/>
		</contour>
		<contour>
			<point x="828" y="50" type="curve" smooth="yes"/>
			<point x="445" y="50"/>
			<point x="220" y="274"/>
			<point x="220" y="708" type="curve" smooth="yes"/>
			<point x="220" y="1119"/>
			<point x="421" y="1364"/>
			<point x="811" y="1364" type="curve" smooth="yes"/>
			<point x="1194" y="1364"/>
			<point x="1419" y="1140"/>
			<point x="1419" y="706" type="curve" smooth="yes"/>
			<point x="1419" y="295"/>
			<point x="1218" y="50"/>
		</contour>
		<contour>
			<point x="857" y="-82" type="curve" smooth="yes"/>
			<point x="904" y="0" type="line"/>
			<point x="845" y="0" type="line"/>
			<point x="770" y="-123" type="line" smooth="yes"/>
			<point x="706" y="-228"/>
			<point x="694" y="-279"/>
			<point x="694" y="-334" type="curve" smooth="yes"/>
			<point x="694" y="-403"/>
			<point x="742" y="-465"/>
			<point x="843" y="-465" type="curve" smooth="yes"/>
			<point x="900" y="-465"/>
			<point x="943" y="-456"/>
			<point x="1006" y="-411" type="curve"/>
			<point x="1006" y="-364" type="line"/>
			<point x="953" y="-395"/>
			<point x="922" y="-403"/>
			<point x="882" y="-403" type="curve" smooth="yes"/>
			<point x="814" y="-403"/>
			<point x="774" y="-363"/>
			<point x="774" y="-299" type="curve" smooth="yes"/>
			<point x="774" y="-244"/>
			<point x="796" y="-188"/>
		</contour>
	</outline>
</glyph>
